<svg xmlns="http://www.w3.org/2000/svg"><symbol viewbox="0 0 32 32" id="shape-arrow-down"><title>arrow-down</title> <g> </g> <path d="M24.773 13.701c-0.651 0.669-7.512 7.205-7.512 7.205-0.349 0.357-0.805 0.534-1.261 0.534-0.458 0-0.914-0.178-1.261-0.534 0 0-6.861-6.536-7.514-7.205-0.651-0.669-0.696-1.87 0-2.586 0.698-0.714 1.669-0.77 2.522 0l6.253 5.997 6.251-5.995c0.854-0.77 1.827-0.714 2.522 0 0.698 0.714 0.654 1.917 0 2.584z" fill="#000000"/> </symbol><symbol viewbox="0 0 32 32" id="shape-arrow-left"><title>arrow-left</title> <g> </g> <path d="M18.299 7.226c-0.669 0.653-7.203 7.514-7.203 7.514-0.357 0.349-0.534 0.805-0.534 1.261s0.178 0.912 0.534 1.261c0 0 6.534 6.861 7.203 7.512 0.669 0.653 1.872 0.698 2.586 0 0.712-0.696 0.768-1.667-0.002-2.52l-5.995-6.253 5.995-6.253c0.77-0.854 0.714-1.826 0.002-2.522-0.715-0.696-1.918-0.653-2.586 0z" fill="#000000"/> </symbol><symbol viewbox="0 0 32 32" id="shape-arrow-right"><title>arrow-right</title> <g> </g> <path d="M13.701 7.226c0.669 0.653 7.203 7.514 7.203 7.514 0.358 0.349 0.536 0.805 0.536 1.261s-0.178 0.912-0.536 1.261c0 0-6.534 6.861-7.203 7.512-0.669 0.653-1.87 0.698-2.586 0-0.714-0.696-0.77-1.667 0-2.52l5.997-6.253-5.995-6.253c-0.77-0.854-0.714-1.826 0-2.522 0.714-0.696 1.917-0.653 2.584 0z" fill="#000000"/> </symbol><symbol viewbox="0 0 32 32" id="shape-arrow-up"><title>arrow-up</title> <g> </g> <path d="M24.773 18.299c-0.651-0.669-7.512-7.203-7.512-7.203-0.349-0.357-0.805-0.536-1.261-0.536-0.458 0-0.914 0.179-1.261 0.536 0 0-6.861 6.534-7.514 7.203-0.651 0.669-0.696 1.872 0 2.586 0.698 0.712 1.669 0.77 2.522 0l6.253-5.995 6.251 5.995c0.854 0.77 1.827 0.712 2.522 0 0.698-0.715 0.654-1.918 0-2.586z" fill="#000000"/> </symbol><symbol viewbox="0 0 32 32" id="shape-close"><title>close</title> <g> </g> <path d="M31.708 25.708c-0-0-0-0-0-0l-9.708-9.708 9.708-9.708c0-0 0-0 0-0 0.105-0.105 0.18-0.227 0.229-0.357 0.133-0.356 0.057-0.771-0.229-1.057l-4.586-4.586c-0.286-0.286-0.702-0.361-1.057-0.229-0.13 0.048-0.252 0.124-0.357 0.228 0 0-0 0-0 0l-9.708 9.708-9.708-9.708c-0-0-0-0-0-0-0.105-0.104-0.227-0.18-0.357-0.228-0.356-0.133-0.771-0.057-1.057 0.229l-4.586 4.586c-0.286 0.286-0.361 0.702-0.229 1.057 0.049 0.13 0.124 0.252 0.229 0.357 0 0 0 0 0 0l9.708 9.708-9.708 9.708c-0 0-0 0-0 0-0.104 0.105-0.18 0.227-0.229 0.357-0.133 0.355-0.057 0.771 0.229 1.057l4.586 4.586c0.286 0.286 0.702 0.361 1.057 0.229 0.13-0.049 0.252-0.124 0.357-0.229 0-0 0-0 0-0l9.708-9.708 9.708 9.708c0 0 0 0 0 0 0.105 0.105 0.227 0.18 0.357 0.229 0.356 0.133 0.771 0.057 1.057-0.229l4.586-4.586c0.286-0.286 0.362-0.702 0.229-1.057-0.049-0.13-0.124-0.252-0.229-0.357z" fill="#000000"/> </symbol><symbol viewbox="0 0 32 32" id="shape-facebook"><title>facebook</title> <g> </g> <path d="M17.996 32h-5.996v-16h-4v-5.514l4-0.002-0.007-3.248c0-4.498 1.22-7.236 6.519-7.236h4.412v5.515h-2.757c-2.064 0-2.163 0.771-2.163 2.209l-0.008 2.76h4.959l-0.584 5.514-4.37 0.002-0.004 16z" fill="#000000"/> </symbol><symbol viewbox="0 0 32 32" id="shape-feed"><title>feed</title> <g> </g> <path d="M4.259 23.467c-2.35 0-4.259 1.917-4.259 4.252 0 2.349 1.909 4.244 4.259 4.244 2.358 0 4.265-1.895 4.265-4.244-0-2.336-1.907-4.252-4.265-4.252zM0.005 10.873v6.133c3.993 0 7.749 1.562 10.577 4.391 2.825 2.822 4.384 6.595 4.384 10.603h6.16c-0-11.651-9.478-21.127-21.121-21.127zM0.012 0v6.136c14.243 0 25.836 11.604 25.836 25.864h6.152c0-17.64-14.352-32-31.988-32z" fill="#000000"/> </symbol><symbol viewbox="0 0 32 32" id="shape-film"><title>film</title> <g> </g> <path d="M0 4v24h32v-24h-32zM6 26h-4v-4h4v4zM6 18h-4v-4h4v4zM6 10h-4v-4h4v4zM24 26h-16v-20h16v20zM30 26h-4v-4h4v4zM30 18h-4v-4h4v4zM30 10h-4v-4h4v4zM12 10v12l8-6z" fill="#000000"/> </symbol><symbol viewbox="0 0 32 32" id="shape-github"><title>github</title> <g> </g> <path d="M16 0c-8.837 0-16 7.163-16 16s7.163 16 16 16 16-7.163 16-16-7.163-16-16-16zM25.502 25.502c-1.235 1.235-2.672 2.204-4.272 2.881-0.406 0.172-0.819 0.323-1.238 0.453v-2.398c0-1.26-0.432-2.188-1.297-2.781 0.542-0.052 1.039-0.125 1.492-0.219s0.932-0.229 1.438-0.406 0.958-0.388 1.359-0.633 0.786-0.563 1.156-0.953 0.68-0.833 0.93-1.328 0.448-1.089 0.594-1.781 0.219-1.456 0.219-2.289c0-1.615-0.526-2.99-1.578-4.125 0.479-1.25 0.427-2.609-0.156-4.078l-0.391-0.047c-0.271-0.031-0.758 0.083-1.461 0.344s-1.492 0.688-2.367 1.281c-1.24-0.344-2.526-0.516-3.859-0.516-1.344 0-2.625 0.172-3.844 0.516-0.552-0.375-1.075-0.685-1.57-0.93-0.495-0.245-0.891-0.411-1.188-0.5s-0.573-0.143-0.828-0.164-0.419-0.026-0.492-0.016-0.125 0.021-0.156 0.031c-0.583 1.479-0.635 2.839-0.156 4.078-1.052 1.135-1.578 2.51-1.578 4.125 0 0.833 0.073 1.596 0.219 2.289s0.344 1.286 0.594 1.781 0.56 0.938 0.93 1.328 0.755 0.708 1.156 0.953 0.854 0.456 1.359 0.633 0.984 0.313 1.438 0.406 0.95 0.167 1.492 0.219c-0.854 0.583-1.281 1.51-1.281 2.781v2.445c-0.472-0.14-0.937-0.306-1.394-0.5-1.6-0.677-3.037-1.646-4.272-2.881-1.235-1.235-2.204-2.672-2.881-4.272-0.7-1.655-1.055-3.414-1.055-5.23s0.355-3.575 1.055-5.23c0.677-1.6 1.646-3.037 2.881-4.272s2.672-2.204 4.272-2.881c1.655-0.7 3.415-1.055 5.23-1.055s3.575 0.355 5.23 1.055c1.6 0.677 3.037 1.646 4.272 2.881 1.235 1.235 2.204 2.672 2.881 4.272 0.7 1.655 1.055 3.415 1.055 5.23s-0.355 3.575-1.055 5.23c-0.677 1.6-1.646 3.037-2.881 4.272z" fill="#000000"/> </symbol><symbol viewbox="0 0 32 32" id="shape-image"><title>image</title> <g> </g> <path d="M28 6h-24v20h24v-20zM32 2v0 28h-32v-28h32zM26 24h-20v-4l6-10 8.219 10 5.781-4v2zM20 11c0-1.657 1.343-3 3-3s3 1.343 3 3c0 1.657-1.343 3-3 3-1.657 0-3-1.343-3-3z" fill="#000000"/> </symbol><symbol viewbox="0 0 32 32" id="shape-linkedin"><title>linkedin</title> <g> </g> <path d="M26.625 0h-21.25c-2.956 0-5.375 2.419-5.375 5.375v21.25c0 2.956 2.419 5.375 5.375 5.375h21.25c2.956 0 5.375-2.419 5.375-5.375v-21.25c0-2.956-2.419-5.375-5.375-5.375zM12 26h-4v-14h4v14zM10 10c-1.105 0-2-0.895-2-2s0.895-2 2-2 2 0.895 2 2-0.895 2-2 2zM26 26h-4v-8c0-1.105-0.895-2-2-2s-2 0.895-2 2v8h-4v-14h4v2.483c0.825-1.133 2.086-2.483 3.5-2.483 2.485 0 4.5 2.239 4.5 5v9z" fill="#000000"/> </symbol><symbol viewbox="0 0 32 32" id="shape-menu"><title>menu</title> <g> </g> <path d="M2 6h28v6h-28zM2 14h28v6h-28zM2 22h28v6h-28z" fill="#000000"/> </symbol><symbol viewbox="0 0 32 32" id="shape-quotes-left"><title>quotes-left</title> <g> </g> <path d="M7.031 14c3.866 0 7 3.134 7 7 0 3.866-3.134 7-7 7-3.866 0-7-3.134-7-7l-0.031-1c0-7.732 6.268-14 14-14v4c-2.671 0-5.182 1.040-7.071 2.929-0.364 0.364-0.695 0.751-0.995 1.157 0.357-0.056 0.724-0.086 1.097-0.086zM25.031 14c3.866 0 7 3.134 7 7 0 3.866-3.134 7-7 7-3.866 0-7-3.134-7-7l-0.031-1c0-7.732 6.268-14 14-14v4c-2.671 0-5.182 1.040-7.071 2.929-0.364 0.364-0.695 0.751-0.995 1.157 0.358-0.056 0.724-0.086 1.097-0.086z" fill="#000000"/> </symbol><symbol viewbox="0 0 32 32" id="shape-twitter"><title>twitter</title> <g> </g> <path d="M32 6.076c-1.177 0.522-2.443 0.875-3.771 1.034 1.355-0.813 2.396-2.099 2.887-3.632-1.269 0.752-2.674 1.299-4.169 1.593-1.198-1.276-2.904-2.073-4.792-2.073-3.626 0-6.565 2.939-6.565 6.565 0 0.515 0.058 1.016 0.17 1.496-5.456-0.274-10.294-2.888-13.532-6.86-0.565 0.97-0.889 2.097-0.889 3.301 0 2.278 1.159 4.287 2.921 5.465-1.076-0.034-2.088-0.329-2.974-0.821-0.001 0.027-0.001 0.055-0.001 0.083 0 3.181 2.263 5.834 5.266 6.437-0.551 0.15-1.131 0.23-1.73 0.23-0.423 0-0.834-0.041-1.235-0.118 0.835 2.608 3.26 4.506 6.133 4.559-2.247 1.761-5.078 2.81-8.154 2.81-0.53 0-1.052-0.031-1.566-0.092 2.905 1.863 6.356 2.95 10.064 2.95 12.076 0 18.679-10.004 18.679-18.68 0-0.285-0.006-0.568-0.019-0.849 1.283-0.926 2.396-2.082 3.276-3.398z" fill="#000000"/> </symbol></svg>
>>>>>>> refs/heads/updating-tools
=======
<svg xmlns="http://www.w3.org/2000/svg"><symbol viewbox="0 0 32 32" id="shape-arrow-down"><title>arrow-down</title> <g> </g> <path d="M24.773 13.701c-0.651 0.669-7.512 7.205-7.512 7.205-0.349 0.357-0.805 0.534-1.261 0.534-0.458 0-0.914-0.178-1.261-0.534 0 0-6.861-6.536-7.514-7.205-0.651-0.669-0.696-1.87 0-2.586 0.698-0.714 1.669-0.77 2.522 0l6.253 5.997 6.251-5.995c0.854-0.77 1.827-0.714 2.522 0 0.698 0.714 0.654 1.917 0 2.584z" fill="#000000"/> </symbol><symbol viewbox="0 0 32 32" id="shape-arrow-left"><title>arrow-left</title> <g> </g> <path d="M18.299 7.226c-0.669 0.653-7.203 7.514-7.203 7.514-0.357 0.349-0.534 0.805-0.534 1.261s0.178 0.912 0.534 1.261c0 0 6.534 6.861 7.203 7.512 0.669 0.653 1.872 0.698 2.586 0 0.712-0.696 0.768-1.667-0.002-2.52l-5.995-6.253 5.995-6.253c0.77-0.854 0.714-1.826 0.002-2.522-0.715-0.696-1.918-0.653-2.586 0z" fill="#000000"/> </symbol><symbol viewbox="0 0 32 32" id="shape-arrow-right"><title>arrow-right</title> <g> </g> <path d="M13.701 7.226c0.669 0.653 7.203 7.514 7.203 7.514 0.358 0.349 0.536 0.805 0.536 1.261s-0.178 0.912-0.536 1.261c0 0-6.534 6.861-7.203 7.512-0.669 0.653-1.87 0.698-2.586 0-0.714-0.696-0.77-1.667 0-2.52l5.997-6.253-5.995-6.253c-0.77-0.854-0.714-1.826 0-2.522 0.714-0.696 1.917-0.653 2.584 0z" fill="#000000"/> </symbol><symbol viewbox="0 0 32 32" id="shape-arrow-up"><title>arrow-up</title> <g> </g> <path d="M24.773 18.299c-0.651-0.669-7.512-7.203-7.512-7.203-0.349-0.357-0.805-0.536-1.261-0.536-0.458 0-0.914 0.179-1.261 0.536 0 0-6.861 6.534-7.514 7.203-0.651 0.669-0.696 1.872 0 2.586 0.698 0.712 1.669 0.77 2.522 0l6.253-5.995 6.251 5.995c0.854 0.77 1.827 0.712 2.522 0 0.698-0.715 0.654-1.918 0-2.586z" fill="#000000"/> </symbol><symbol viewbox="0 0 32 32" id="shape-close"><title>close</title> <g> </g> <path d="M31.708 25.708c-0-0-0-0-0-0l-9.708-9.708 9.708-9.708c0-0 0-0 0-0 0.105-0.105 0.18-0.227 0.229-0.357 0.133-0.356 0.057-0.771-0.229-1.057l-4.586-4.586c-0.286-0.286-0.702-0.361-1.057-0.229-0.13 0.048-0.252 0.124-0.357 0.228 0 0-0 0-0 0l-9.708 9.708-9.708-9.708c-0-0-0-0-0-0-0.105-0.104-0.227-0.18-0.357-0.228-0.356-0.133-0.771-0.057-1.057 0.229l-4.586 4.586c-0.286 0.286-0.361 0.702-0.229 1.057 0.049 0.13 0.124 0.252 0.229 0.357 0 0 0 0 0 0l9.708 9.708-9.708 9.708c-0 0-0 0-0 0-0.104 0.105-0.18 0.227-0.229 0.357-0.133 0.355-0.057 0.771 0.229 1.057l4.586 4.586c0.286 0.286 0.702 0.361 1.057 0.229 0.13-0.049 0.252-0.124 0.357-0.229 0-0 0-0 0-0l9.708-9.708 9.708 9.708c0 0 0 0 0 0 0.105 0.105 0.227 0.18 0.357 0.229 0.356 0.133 0.771 0.057 1.057-0.229l4.586-4.586c0.286-0.286 0.362-0.702 0.229-1.057-0.049-0.13-0.124-0.252-0.229-0.357z" fill="#000000"/> </symbol><symbol viewbox="0 0 32 32" id="shape-facebook"><title>facebook</title> <g> </g> <path d="M17.996 32h-5.996v-16h-4v-5.514l4-0.002-0.007-3.248c0-4.498 1.22-7.236 6.519-7.236h4.412v5.515h-2.757c-2.064 0-2.163 0.771-2.163 2.209l-0.008 2.76h4.959l-0.584 5.514-4.37 0.002-0.004 16z" fill="#000000"/> </symbol><symbol viewbox="0 0 32 32" id="shape-feed"><title>feed</title> <g> </g> <path d="M4.259 23.467c-2.35 0-4.259 1.917-4.259 4.252 0 2.349 1.909 4.244 4.259 4.244 2.358 0 4.265-1.895 4.265-4.244-0-2.336-1.907-4.252-4.265-4.252zM0.005 10.873v6.133c3.993 0 7.749 1.562 10.577 4.391 2.825 2.822 4.384 6.595 4.384 10.603h6.16c-0-11.651-9.478-21.127-21.121-21.127zM0.012 0v6.136c14.243 0 25.836 11.604 25.836 25.864h6.152c0-17.64-14.352-32-31.988-32z" fill="#000000"/> </symbol><symbol viewbox="0 0 32 32" id="shape-film"><title>film</title> <g> </g> <path d="M0 4v24h32v-24h-32zM6 26h-4v-4h4v4zM6 18h-4v-4h4v4zM6 10h-4v-4h4v4zM24 26h-16v-20h16v20zM30 26h-4v-4h4v4zM30 18h-4v-4h4v4zM30 10h-4v-4h4v4zM12 10v12l8-6z" fill="#000000"/> </symbol><symbol viewbox="0 0 32 32" id="shape-github"><title>github</title> <g> </g> <path d="M16 0c-8.837 0-16 7.163-16 16s7.163 16 16 16 16-7.163 16-16-7.163-16-16-16zM25.502 25.502c-1.235 1.235-2.672 2.204-4.272 2.881-0.406 0.172-0.819 0.323-1.238 0.453v-2.398c0-1.26-0.432-2.188-1.297-2.781 0.542-0.052 1.039-0.125 1.492-0.219s0.932-0.229 1.438-0.406 0.958-0.388 1.359-0.633 0.786-0.563 1.156-0.953 0.68-0.833 0.93-1.328 0.448-1.089 0.594-1.781 0.219-1.456 0.219-2.289c0-1.615-0.526-2.99-1.578-4.125 0.479-1.25 0.427-2.609-0.156-4.078l-0.391-0.047c-0.271-0.031-0.758 0.083-1.461 0.344s-1.492 0.688-2.367 1.281c-1.24-0.344-2.526-0.516-3.859-0.516-1.344 0-2.625 0.172-3.844 0.516-0.552-0.375-1.075-0.685-1.57-0.93-0.495-0.245-0.891-0.411-1.188-0.5s-0.573-0.143-0.828-0.164-0.419-0.026-0.492-0.016-0.125 0.021-0.156 0.031c-0.583 1.479-0.635 2.839-0.156 4.078-1.052 1.135-1.578 2.51-1.578 4.125 0 0.833 0.073 1.596 0.219 2.289s0.344 1.286 0.594 1.781 0.56 0.938 0.93 1.328 0.755 0.708 1.156 0.953 0.854 0.456 1.359 0.633 0.984 0.313 1.438 0.406 0.95 0.167 1.492 0.219c-0.854 0.583-1.281 1.51-1.281 2.781v2.445c-0.472-0.14-0.937-0.306-1.394-0.5-1.6-0.677-3.037-1.646-4.272-2.881-1.235-1.235-2.204-2.672-2.881-4.272-0.7-1.655-1.055-3.414-1.055-5.23s0.355-3.575 1.055-5.23c0.677-1.6 1.646-3.037 2.881-4.272s2.672-2.204 4.272-2.881c1.655-0.7 3.415-1.055 5.23-1.055s3.575 0.355 5.23 1.055c1.6 0.677 3.037 1.646 4.272 2.881 1.235 1.235 2.204 2.672 2.881 4.272 0.7 1.655 1.055 3.415 1.055 5.23s-0.355 3.575-1.055 5.23c-0.677 1.6-1.646 3.037-2.881 4.272z" fill="#000000"/> </symbol><symbol viewbox="0 0 32 32" id="shape-image"><title>image</title> <g> </g> <path d="M28 6h-24v20h24v-20zM32 2v0 28h-32v-28h32zM26 24h-20v-4l6-10 8.219 10 5.781-4v2zM20 11c0-1.657 1.343-3 3-3s3 1.343 3 3c0 1.657-1.343 3-3 3-1.657 0-3-1.343-3-3z" fill="#000000"/> </symbol><symbol viewbox="0 0 32 32" id="shape-linkedin"><title>linkedin</title> <g> </g> <path d="M26.625 0h-21.25c-2.956 0-5.375 2.419-5.375 5.375v21.25c0 2.956 2.419 5.375 5.375 5.375h21.25c2.956 0 5.375-2.419 5.375-5.375v-21.25c0-2.956-2.419-5.375-5.375-5.375zM12 26h-4v-14h4v14zM10 10c-1.105 0-2-0.895-2-2s0.895-2 2-2 2 0.895 2 2-0.895 2-2 2zM26 26h-4v-8c0-1.105-0.895-2-2-2s-2 0.895-2 2v8h-4v-14h4v2.483c0.825-1.133 2.086-2.483 3.5-2.483 2.485 0 4.5 2.239 4.5 5v9z" fill="#000000"/> </symbol><symbol viewbox="0 0 32 32" id="shape-menu"><title>menu</title> <g> </g> <path d="M2 6h28v6h-28zM2 14h28v6h-28zM2 22h28v6h-28z" fill="#000000"/> </symbol><symbol viewbox="0 0 32 32" id="shape-quotes-left"><title>quotes-left</title> <g> </g> <path d="M7.031 14c3.866 0 7 3.134 7 7 0 3.866-3.134 7-7 7-3.866 0-7-3.134-7-7l-0.031-1c0-7.732 6.268-14 14-14v4c-2.671 0-5.182 1.040-7.071 2.929-0.364 0.364-0.695 0.751-0.995 1.157 0.357-0.056 0.724-0.086 1.097-0.086zM25.031 14c3.866 0 7 3.134 7 7 0 3.866-3.134 7-7 7-3.866 0-7-3.134-7-7l-0.031-1c0-7.732 6.268-14 14-14v4c-2.671 0-5.182 1.040-7.071 2.929-0.364 0.364-0.695 0.751-0.995 1.157 0.358-0.056 0.724-0.086 1.097-0.086z" fill="#000000"/> </symbol><symbol viewbox="0 0 32 32" id="shape-twitter"><title>twitter</title> <g> </g> <path d="M32 6.076c-1.177 0.522-2.443 0.875-3.771 1.034 1.355-0.813 2.396-2.099 2.887-3.632-1.269 0.752-2.674 1.299-4.169 1.593-1.198-1.276-2.904-2.073-4.792-2.073-3.626 0-6.565 2.939-6.565 6.565 0 0.515 0.058 1.016 0.17 1.496-5.456-0.274-10.294-2.888-13.532-6.86-0.565 0.97-0.889 2.097-0.889 3.301 0 2.278 1.159 4.287 2.921 5.465-1.076-0.034-2.088-0.329-2.974-0.821-0.001 0.027-0.001 0.055-0.001 0.083 0 3.181 2.263 5.834 5.266 6.437-0.551 0.15-1.131 0.23-1.73 0.23-0.423 0-0.834-0.041-1.235-0.118 0.835 2.608 3.26 4.506 6.133 4.559-2.247 1.761-5.078 2.81-8.154 2.81-0.53 0-1.052-0.031-1.566-0.092 2.905 1.863 6.356 2.95 10.064 2.95 12.076 0 18.679-10.004 18.679-18.68 0-0.285-0.006-0.568-0.019-0.849 1.283-0.926 2.396-2.082 3.276-3.398z" fill="#000000"/> </symbol></svg>