<svg xmlns="http://www.w3.org/2000/svg" viewBox="-101.4 0 1061.7 518.4"><g fill="#2580AA"><path d="M521.8 233.2c-5.2.4-10.6-4.2-9.5-3.8 9.4 3.8 15.9-6.3 13.5-10.8-2.5-4.4-13.8-.8-15.8-2.6-6.9-6.2-14.7-18.7-23.5-10.3-3 2.9-6.2 5.2-7.6 8.8-2.4-3.4-7.5-7.1-10.7-5.6-9.4 4.2.5 17 2.5 20.1 2.7 4.3.9 6.5-2.5 8.1-4.5 2.1 3.7 3.9 8.3 3.1-1.7 3.3-5.5 5.6-7.6 6.8-1 .6-1.8 1.3-2.4 2.2-1.6-2.9-11.2-3.2-14.1-1.6-2.9 1.6-.8 6 3.6 7.5 2.3.8 3.8-.4 5.8 3-.6 1.2.5 5.8 1.2 7.1 1.2 2.1 3.3 1.2 5.4 0 1.5-.8 3.2-7.7 3.2-9.2 2.3-.4 2.7-1.1 4.5-2.1.5-.3-2.4 3.5-1.6 5 1.5 2.6 7.7 12.2 9.1 9.5 1.4-2.5 4.8-7.6 3.8-10.1 1.2.2 3.5 3.2 4 4.1 1.2 2.2 3.2 3.6 5.4 2.4 2.2-1.2 1.8-11.8 3.1-11.2 6.1-3 12-6.3 12.2-11.2 2.3 1.4 7.3 2.7 9.7 1.1 7.2-4.2 5.2-10.7 0-10.3zm-19.9-14.8c-1.1.6-3-.4-4.1-2.4-1.1-2-1.1-4.1.1-4.7s3 .4 4.1 2.4c1 1.9 1 4.1-.1 4.7zM841.5 298.6c1.4-1.4 2.2-3.6 2.2-7 0-9.7-4.3-6.4-14-6.4 0 0-13.6-7.1-15.7-14.6 2.9-6.4-.6-15.9-7.6-18.6-8.7-3.5-14.3-2.2-19.8 7-20.5 7.7-47 16.7-51.9 14.6 2.5-6.3 30.3-21.6 30.3-50.9 0-26-49.4-64.9-53-68-10.9-9.2-32.8-24.9-32.7-32.5.2-12.3 5.3-21.6.3-40.7-10.4-39.4-51.7-60.3-77.2-48.6-28.1 12.9-29.8 20.3-33.1 48.2-.7 6.2 11.9 9.8 13.1 16.1.6 3.1-3 19.4-2 22.5 2.1 6.5 13.2 1.3 16.6 6.8.9 1.5-4.5 11.3 4.7 10 3.3-.5 14.5-14.3 17.7-12.9 6.2 13.2-16.6 17-12.7 20.9 5 5 3.2 11.7 7.9 14.3 4.7 2.6 21.5-6.3 24.4-6.4-4.1 9.3-7 51.1-13.2 58.8 0 0-20.1 21.1-30.1 20.9-3.3-.1-3.6-11.1-5.6-11.8-7.7-2.8-5.7 12.8-9.9 15.7-4.9 3.4-32.9 7-33.2 12-.3 5 25.5 5.4 31.4 4.3 16.4-3.1 45.4-2.6 61.4-9.5 8.9-3.8 16.7-30.4 16.7-30.4-.6 3.3 18.8 29.5 20.6 35-9.6 8.1-31.5 22-31.5 35.5 0 6.1 1 11.3 3 15.7h-35.5v63.7l35 31.9v115.1c5.7 1.4 11.6 2.2 17.7 2.2 21.5 0 40.8-9.1 54.4-23.7 13.5 14.6 32.9 23.7 54.4 23.7 20.9 0 39.8-8.7 53.3-22.6 13.5 13.9 32.4 22.6 53.3 22.6 13.5 0 26.2-3.6 37.1-10 10.9 6.3 23.6 10 37.1 10 20.2 0 38.5-8.1 51.8-21.1 13.4 13.1 31.7 21.1 51.8 21.1 24.6 0 46.4-12 59.9-30.5 13.5 18.5 35.3 30.5 59.9 30.5V393.1l9.3-30.8v-63.7H841.5zm-46.2-17.5c3.1 1.8 9.2 12.9 23.5 17.4h-34.6c5.2-6 9.3-12.2 11.1-17.4z"/><path d="M465.9 276.3c0-8.9-6.1-9.2-14.9-8.5-10.3.8-10.5 8.3-15.3 13.3s-17.4 16.2-24 18.4c-1.1-.2-39.2-20.3-47.8-21.4-8.6-1.1-9-3.6-14.3-10.2.1-.9 1-2 3.1-3.7 2-.6 3.6-1 4.4-1 6.8-.1 9.9 2.1 16 0 8-2.8 10.2-15.6 9.4-20.6-.3-1.7-14.7-9.6-10.2-7.6 2.2 1 11.1 1 12.5-1.7 1.9-3.7-1.3-7.8-1-12.3.3-4 9.9-2.3 9.9-7.4 0-8.2-9.9-13.7-11.1-21.1-.8-5 6.3-11.2 4.8-15.6-7.3-22.2-26.5-37.1-53.8-37.1-40.8 0-55.3 33.5-55.3 74.8 0 3.6-.2 6.7-.4 9.5-1.2 15.9 4.6 28.4 10.8 31.4 1.5.7 9.1 2 15.4 5.3-8.4 19.2-7.1 33.9-6.3 47.6 0 0-8.5 65.5-.6 86.7-19.2 1.5-38.5 2.7-58 3.4-47.5-24.7-95.3-44-142.1-58-.9 1.5-12.3 19-23.9 53.7-4.9-.4-9.7-.9-14.6-1.4-.9-.1-1.7-.2-2.6-.3-4.6-.5-9.3-1-13.9-1.5l-3-.3c-4.6-.5-9.2-1.1-13.8-1.7l-2.7-.3c-4.8-.6-9.5-1.2-14.2-1.9-.5-.1-1-.1-1.5-.2-4.7-.7-9.3-1.3-14-2-.5-.1-1.1-.2-1.6-.2-4.7-.7-9.5-1.5-14.2-2.3-.8-.1-1.7-.3-2.5-.4l-13.8-2.4c-.9-.2-1.7-.3-2.6-.5-4.6-.8-9.3-1.7-13.9-2.6-.6-.1-1.3-.2-1.9-.4-4.9-.9-9.7-1.9-14.6-2.9 2.9 20.7 8.9 40.5 17.6 59.2 1.2 2.7 2.6 5.3 3.9 7.9 4.1 7.9 8.6 15.5 13.7 22.9.8 1.2 1.7 2.5 2.5 3.7 7.8 10.9 16.5 21.3 26.2 31 3.1-2.2 6.1-4.7 8.8-7.4.8.8 1.7 1.6 2.5 2.3.3.3.7.6 1 .8.5.5 1.1.9 1.6 1.4.4.4.9.7 1.3 1 .5.4.9.7 1.4 1.1.5.4 1 .7 1.5 1.1l1.2.9c.6.4 1.2.7 1.7 1.1.4.2.7.5 1.1.7.6.4 1.3.8 1.9 1.1.3.2.7.4 1 .6.7.4 1.4.7 2.1 1.1.3.2.6.3.9.5.8.4 1.5.7 2.3 1.1.3.1.5.2.8.4.8.4 1.6.7 2.5 1 .2.1.5.2.7.3.9.3 1.7.6 2.6.9.2.1.4.1.6.2.9.3 1.9.6 2.8.8.2 0 .3.1.5.1 1 .3 2 .5 2.9.7.1 0 .3.1.4.1 1 .2 2.1.4 3.1.6h.3c1.1.2 2.2.4 3.2.5h.2c1.1.1 2.2.3 3.4.4h.1c1.2.1 2.3.2 3.5.2.8 0 1.7.1 2.5.1 2 0 3.9-.1 5.8-.2.7-.1 1.5-.1 2.2-.2.7-.1 1.5-.2 2.2-.3l2.1-.3c.7-.1 1.4-.2 2.1-.4h.1c.7-.1 1.4-.3 2.1-.4h.1c.7-.2 1.3-.3 2-.5h.1c.7-.2 1.3-.4 2-.5h.1c.6-.2 1.3-.4 1.9-.6.1 0 .1 0 .2-.1.6-.2 1.2-.4 1.9-.6.1 0 .1 0 .2-.1.6-.2 1.2-.4 1.8-.7.1 0 .1-.1.2-.1.6-.2 1.2-.5 1.7-.7.1 0 .2-.1.3-.1.6-.2 1.1-.5 1.7-.7.1 0 .2-.1.3-.1.5-.3 1.1-.5 1.6-.8.1-.1.2-.1.3-.2.5-.3 1-.5 1.6-.8.1-.1.2-.1.3-.2.5-.3 1-.5 1.5-.8.1-.1.3-.1.4-.2.5-.3 1-.6 1.4-.8.1-.1.3-.2.4-.3.5-.3.9-.6 1.4-.9.1-.1.3-.2.4-.3.4-.3.9-.6 1.3-.9.2-.1.3-.2.5-.3l1.2-.9c.2-.1.3-.3.5-.4l1.2-.9c.2-.1.4-.3.5-.4.4-.3.7-.6 1.1-.9.2-.2.4-.3.6-.5.4-.3.7-.6 1-.9.2-.2.4-.3.6-.5.3-.3.7-.6 1-.9l.6-.6.9-.9.6-.6.8-.8c.2-.2.4-.5.7-.7l.8-.8c.2-.3.5-.5.7-.8.2-.3.5-.5.7-.8.3-.3.5-.6.7-.9.2-.2.4-.5.6-.7.3-.3.5-.7.8-1 .2-.2.3-.4.5-.6l1.2-1.5c0-.1.1-.1.1-.2 4.6 6.3 10.3 11.9 16.6 16.5 2.3 1.7 4.7 3.2 7.3 4.6 1.9 1 3.8 2 5.8 2.9.7.3 1.3.6 2 .9 2 .8 4.1 1.6 6.2 2.2l4.2 1.2c1.4.4 2.9.7 4.3.9.7.1 1.5.3 2.2.4 3.7.6 7.5.9 11.3.9 2.1 0 4.2-.1 6.2-.3 4.1-.3 8.1-1 12-2 1.9-.5 3.9-1.1 5.7-1.7.9-.3 1.9-.7 2.8-1 1.8-.7 3.7-1.5 5.4-2.4 4.4-2.1 8.6-4.7 12.5-7.6 12.4 9.4 27.9 15 44.7 15 21.5 0 40.8-9.1 54.4-23.7 13.5 14.6 32.9 23.7 54.4 23.7 18 0 34.4-6.4 47.3-17 34-35.3 56.1-79.1 61.5-127.1-3.9.9-7.7 1.7-11.6 2.6-.9.2-1.9.4-2.8.6-3.9.8-7.8 1.7-11.7 2.5h-.1c-3.9.8-7.8 1.6-11.7 2.3-.9.2-1.8.3-2.6.5-4 .8-8 1.5-12 2.3l-12 2.1c-.8.1-1.6.3-2.4.4-8.1 1.4-16.3 2.7-24.5 3.9-.7.1-1.4.2-2.2.3-4.2.6-8.3 1.2-12.5 1.8 1.8-13.8 1.4-34.1-6.6-62.5-.1-.2 4.2.2 4.1 0 13-.3 43.5 4.9 46.2 3.5 11.4-2.5 34.1-35.8 41-35.8 5.6 0 38.9 1.6 39.5-10.5.9-6.5-30.7-1.8-30.7-5.1zM174.5 399.2c-1.6 0-3.2-.1-4.8-.1-3.8-.1-7.6-.1-11.4-.2-1.5 0-3-.1-4.5-.1-4.3-.1-8.5-.2-12.7-.4-.8 0-1.5-.1-2.3-.1-21.8-.8-43.4-2.2-64.9-4.1C84 364 96 342.1 96.9 340.4c42.2 15.2 84.9 34.8 127.1 58.5-8.4.2-16.7.4-25.2.4h-8.5c-5.2 0-10.5 0-15.8-.1z"/></g></svg>