<svg xmlns="http://www.w3.org/2000/svg" width="1687.4" height="279" viewBox="0 0 1687.4 279"><path fill="#2580AA" d="M1687.4 0h-6.5l-127.4 124.7c-.3-.2-.6-.5-.9-.7-6.5-4.2-15.2-2.3-19.3 4.1-3.3 5.1-2.2 11.9.6 16l-60.3 95.4-.1.4c-.1.2-12.8 23.5-33.1 28.7-9.7 2.5-19.7.5-29.8-6.1-11.6-7.5-18.4-16.8-20-27.6-1.3-8.4.6-16.7 3.4-23.9.6 6.3 2.8 12.7 7.8 18l6.8-6.4c-10.9-11.6-2.4-32.8-2.3-33l11.4-27.6-19.3 22.8c-.9 1-21 25.2-17 51.3 2 13.6 10.2 25.1 24.2 34.1 12.4 8 24.9 10.4 37.1 7.2 23.4-6.1 37.2-30.8 38.7-33.2l60.2-95.3c4.9.9 11.7-.9 15-5.9 3-4.7 2.9-10.4.2-14.8L1687.4 0zM1549 138.3c-1.4 2.2-4.3 2.8-6.4 1.4-2.2-1.4-2.8-4.3-1.4-6.4 1.4-2.2 4.3-2.8 6.4-1.4 2.2 1.4 2.8 4.2 1.4 6.4z"/><path fill="#231F20" d="M6.5 120H0v-5.8h14v43.1c0 3.3.8 5.6 4.2 5.6 1.2 0 2.1-.1 2.1-.1l-.1 6.2s-1.6.2-3.3.2c-5.6 0-10.4-2.2-10.4-11.4V120zM48.1 144.8h2.5v-1.5c0-6.2-3.6-8.4-8.4-8.4-6.2 0-11.2 3.8-11.2 3.8l-3-5.4s5.7-4.7 14.9-4.7c10 0 15.3 5.2 15.3 15.1v17.5c0 1.2.6 1.7 1.7 1.7h4v5.8h-7.8c-3.5 0-4.9-1.7-4.9-4.3v-.5c0-1.6.3-2.6.3-2.6h-.2s-3.4 8.3-13 8.3c-6.5 0-13-3.8-13-11.9-.1-12.1 16.3-12.9 22.8-12.9zM39.9 164c6.7 0 10.8-6.8 10.8-12.7v-1.6h-1.9c-3.6 0-15.9.2-15.9 7.7-.1 3.4 2.5 6.6 7 6.6zM69.6 163.1h5.9v-25.9c0-1.2-.6-1.7-1.7-1.7h-4.9v-5.8h8.8c3.4 0 5 1.4 5 4.6v2.5c0 1.6-.2 2.7-.2 2.7h.2c1.8-5.7 6.4-10.2 12.4-10.2 1 0 1.9.2 1.9.2v7.4s-.9-.2-2.2-.2c-8.4 0-11.9 8.5-11.9 16.1v10.4h5.8v5.8H69.6v-5.9zM124 144.8h2.5v-1.5c0-6.2-3.6-8.4-8.4-8.4-6.2 0-11.2 3.8-11.2 3.8l-3-5.4s5.7-4.7 14.9-4.7c10 0 15.3 5.2 15.3 15.1v17.5c0 1.2.6 1.7 1.7 1.7h4v5.8H132c-3.5 0-4.9-1.7-4.9-4.3v-.5c0-1.6.3-2.6.3-2.6h-.2s-3.4 8.3-13 8.3c-6.5 0-13-3.8-13-11.9-.1-12.1 16.3-12.9 22.8-12.9zm-8.3 19.2c6.7 0 10.8-6.8 10.8-12.7v-1.6h-1.9c-3.6 0-15.9.2-15.9 7.7 0 3.4 2.5 6.6 7 6.6z"/><path fill="#247FA9" d="M164.1 156.3h6.6v2.6c0 3.3 4.7 4.9 9 4.9 4.4 0 7.9-1.8 7.9-5 0-4-4.3-5.2-9.8-7.1-5.8-2.2-12.3-4.8-12.3-11.9 0-7.8 7.7-10.9 14.5-10.9 5.5 0 13.6 2.2 13.6 7.9v4.7H187v-2.6c0-2.4-3.1-4-6.9-4-3.7 0-7 1.6-7 4.7 0 3.7 4.3 5.3 9.1 6.9 6.1 2 13 4.6 13 11.9 0 7.4-6.8 11.6-15.7 11.6-7.1 0-15.4-3.2-15.4-9.4v-4.3zM222.2 128.7c5.8 0 15.4 2.2 15.4 8.9v4.8h-6.7v-2.7c0-3-5-4.5-8.5-4.5-7.9 0-13.3 5.6-13.3 14 0 8.9 6.3 14.1 13.8 14.1 6.7 0 11.2-4 12.6-5l2.9 5.5c-1.8 1.6-7.4 6.1-15.7 6.1-11.3 0-21.2-7.8-21.2-20.5-.1-12.1 9-20.7 20.7-20.7zM243.7 163.1h6.2V120h-6.6v-5.8h14v20.3c0 1.9-.2 3.3-.2 3.3h.2c1.7-3.8 6.8-9 14.7-9 9.2 0 13.5 5 13.5 15v19.3h6.1v5.8h-13.7v-23.4c0-5.5-1.2-9.9-7.4-9.9-7.7 0-13.1 6.5-13.1 14.9v12.6h6.2v5.8h-19.9v-5.8zM316.3 128.7c11.2 0 17 8.2 17 18.4 0 1-.2 2.9-.2 2.9h-28.7c.5 8.7 6.6 13.3 13.6 13.3 6.8 0 11.7-4.4 11.7-4.4l3.1 5.5s-5.9 5.4-15.3 5.4c-12.3 0-20.8-8.9-20.8-20.6 0-12.4 8.4-20.5 19.6-20.5zm9.2 16.5c-.2-6.9-4.4-10.5-9.4-10.5-5.7 0-10.4 3.9-11.5 10.5h20.9zM340.3 163.1h6.1v-25.9c0-1.2-.6-1.7-1.7-1.7h-4.8v-5.8h8.8c3.4 0 5 1.5 5 4.3v2c0 1.2-.2 2.2-.2 2.2h.2c.8-2.1 5.4-9.5 15.3-9.5 9 0 13 5 13 15V163h6.2v5.8h-13.7v-23.4c0-5.5-1.1-9.9-7.4-9.9-7.9 0-13.1 7.2-13.1 15v12.4h6.2v5.8h-19.9v-5.6zM413.9 128.7c5.8 0 15.4 2.2 15.4 8.9v4.8h-6.7v-2.7c0-3-5-4.5-8.5-4.5-7.9 0-13.3 5.6-13.3 14 0 8.9 6.3 14.1 13.8 14.1 6.7 0 11.2-4 12.6-5l2.9 5.5c-1.8 1.6-7.4 6.1-15.7 6.1-11.3 0-21.2-7.8-21.2-20.5-.1-12.1 9-20.7 20.7-20.7zM435.4 163.1h6.2V120H435v-5.8h14v30.6h5.7l7.8-9.2h-5.1v-5.8h17.8v5.8H470l-9.7 11.3v.2c.1 0 1.3.5 2.9 3.2l6.7 11.4c.8 1.2 1.4 1.6 3.4 1.6h2.5v5.8H470c-3.6 0-4.7-.6-6.4-3.6l-7.8-13.3c-.9-1.4-1.9-1.6-3.6-1.6H449v12.6h5.3v5.8h-18.9v-5.9z"/><g><g fill="#3E3739"><path d="M13.8 208.8c4 0 5.3 3.1 5.3 3.1h.1s-.1-.6-.1-1.2v-8h2.2v22.9h-2.1v-1.7c0-.7.1-1.2.1-1.2h-.1s-1.3 3.3-5.6 3.3c-4.4 0-7.1-3.5-7.1-8.6-.1-5.2 3-8.6 7.3-8.6zm.1 15.1c2.7 0 5.3-2 5.3-6.6 0-3.3-1.7-6.6-5.2-6.6-2.9 0-5.3 2.4-5.3 6.6 0 4.1 2.1 6.6 5.2 6.6zM33.6 208.8c4.5 0 6.8 3.5 6.8 7.5 0 .4-.1 1.1-.1 1.1H27.8c.1 4.2 3 6.5 6.3 6.5 3 0 5-2 5-2l1 1.7s-2.4 2.3-6 2.3c-4.9 0-8.6-3.5-8.6-8.6 0-5.3 3.6-8.5 8.1-8.5zm4.5 6.9c-.1-3.4-2.2-5-4.6-5-2.7 0-5.1 1.7-5.6 5h10.2zM44.5 222s1.8 2 4.9 2c1.8 0 3.3-.9 3.3-2.6 0-3.6-8.8-2.7-8.8-8 0-2.9 2.6-4.5 5.6-4.5 3.4 0 5 1.8 5 1.8l-1 1.7s-1.4-1.5-4.1-1.5c-1.7 0-3.3.7-3.3 2.5 0 3.6 8.8 2.6 8.8 8 0 2.7-2.3 4.6-5.6 4.6-4 0-6-2.4-6-2.4l1.2-1.6zM59 202.7h2.3v2.8H59v-2.8zm0 6.5h2.2v16.4H59v-16.4zM72.2 230.4c3.2 0 5.7-1.5 5.7-5.1v-1.5c0-.6.1-1.2.1-1.2-1 1.8-2.6 2.9-5.2 2.9-4.4 0-7.3-3.5-7.3-8.4s2.7-8.3 7.1-8.3c4.3 0 5.4 2.7 5.4 2.7v-2.4h2.1v16c0 5.2-3.8 7.2-7.8 7.2-1.9 0-3.8-.5-5.4-1.3l.8-1.8c.1.1 2.1 1.2 4.5 1.2zm5.8-13.3c0-4.8-2.3-6.2-5.2-6.2-3.2 0-5 2.3-5 6.2 0 3.9 2.1 6.4 5.4 6.4 2.5 0 4.8-1.6 4.8-6.4zM85.5 209.2h2.2v2.4c0 .7-.1 1.3-.1 1.3h.1c.6-1.5 2.7-4.1 6.5-4.1 4 0 5.5 2.3 5.5 6.3v10.4h-2.2v-9.8c0-2.6-.4-4.8-3.5-4.8-2.8 0-5.2 1.9-6 4.6-.2.7-.3 1.4-.3 2.2v7.8h-2.2v-16.3zM113.6 215.4h7.5v-8.3h2v8.3h7.5v1.9h-7.5v8.3h-2v-8.3h-7.5v-1.9zM150.9 208.8c4 0 5.3 3.1 5.3 3.1h.1s-.1-.6-.1-1.2v-8h2.2v22.9h-2.1v-1.7c0-.7.1-1.2.1-1.2h-.1s-1.3 3.3-5.6 3.3c-4.4 0-7.1-3.5-7.1-8.6 0-5.2 3-8.6 7.3-8.6zm.1 15.1c2.7 0 5.3-2 5.3-6.6 0-3.3-1.7-6.6-5.2-6.6-2.9 0-5.3 2.4-5.3 6.6.1 4.1 2.2 6.6 5.2 6.6zM170.7 208.8c4.5 0 6.8 3.5 6.8 7.5 0 .4-.1 1.1-.1 1.1h-12.6c.1 4.2 3 6.5 6.3 6.5 3 0 5-2 5-2l1 1.7s-2.4 2.3-6 2.3c-4.9 0-8.6-3.5-8.6-8.6.2-5.3 3.8-8.5 8.2-8.5zm4.6 6.9c-.1-3.4-2.2-5-4.6-5-2.7 0-5.1 1.7-5.6 5h10.2zM179.5 209.2h2.3l4.6 12c.3.8.6 2 .6 2h.1s.3-1.1.6-2l4.5-12h2.3l-6.2 16.4h-2.4l-6.4-16.4zM204.5 208.8c4.5 0 6.8 3.5 6.8 7.5 0 .4-.1 1.1-.1 1.1h-12.6c.1 4.2 3 6.5 6.3 6.5 3 0 5-2 5-2l1 1.7s-2.4 2.3-6 2.3c-4.9 0-8.6-3.5-8.6-8.6.1-5.3 3.8-8.5 8.2-8.5zm4.6 6.9c-.1-3.4-2.2-5-4.6-5-2.7 0-5.1 1.7-5.6 5h10.2zM215.4 202.7h2.2v18.5c0 2.1 1 2.5 1.8 2.5h.6v2s-.4.1-.8.1c-1.4 0-3.8-.4-3.8-4v-19.1zM231 208.8c4.8 0 8.6 3.6 8.6 8.5s-3.9 8.6-8.6 8.6c-4.8 0-8.6-3.7-8.6-8.6 0-4.9 3.8-8.5 8.6-8.5zm0 15.1c3.5 0 6.4-2.9 6.4-6.7 0-3.7-2.9-6.5-6.4-6.5s-6.4 2.8-6.4 6.5c0 3.9 2.9 6.7 6.4 6.7zM243.8 209.2h2.1v1.6c0 .7-.1 1.3-.1 1.3h.1s1.3-3.3 5.7-3.3 7.1 3.5 7.1 8.6c0 5.2-3.1 8.6-7.3 8.6-3.9 0-5.4-3.1-5.4-3.1h-.1s.1.6.1 1.4v7.8h-2.2v-22.9zm7.3 14.8c2.9 0 5.3-2.4 5.3-6.6 0-4-2.1-6.6-5.2-6.6-2.7 0-5.3 2-5.3 6.6 0 3.3 1.9 6.6 5.2 6.6zM271.7 215.4h7.5v-8.3h2v8.3h7.5v1.9h-7.5v8.3h-2v-8.3h-7.5v-1.9zM309.7 208.8c4.5 0 6.8 3.5 6.8 7.5 0 .4-.1 1.1-.1 1.1H304c.1 4.2 3 6.5 6.3 6.5 3 0 5-2 5-2l1 1.7s-2.4 2.3-6 2.3c-4.9 0-8.6-3.5-8.6-8.6 0-5.3 3.6-8.5 8-8.5zm4.6 6.9c-.1-3.4-2.2-5-4.6-5-2.7 0-5.1 1.7-5.6 5h10.2zM327.1 208.8c4 0 5.3 3.1 5.3 3.1h.1s-.1-.6-.1-1.2v-8h2.2v22.9h-2.1v-1.7c0-.7.1-1.2.1-1.2h-.1s-1.3 3.3-5.6 3.3c-4.4 0-7.1-3.5-7.1-8.6-.1-5.2 3-8.6 7.3-8.6zm.1 15.1c2.7 0 5.3-2 5.3-6.6 0-3.3-1.7-6.6-5.2-6.6-2.9 0-5.3 2.4-5.3 6.6 0 4.1 2.1 6.6 5.2 6.6zM339.7 209.2h2.2v9.8c0 2.6.4 4.8 3.5 4.8 3.7 0 6-3.3 6-6.8v-7.8h2.2v16.4h-2.1v-2.4c0-.7.1-1.3.1-1.3h-.1c-.7 1.6-2.8 4.1-6.4 4.1-3.8 0-5.5-2.1-5.5-6.3v-10.5zM366.5 208.8c4 0 6 2.3 6 2.3l-1.1 1.7s-1.8-2-4.8-2c-3.6 0-6.4 2.7-6.4 6.6 0 3.8 2.8 6.6 6.4 6.6 3.3 0 5.2-2.3 5.2-2.3l1 1.7s-2.2 2.6-6.4 2.6c-4.8 0-8.6-3.5-8.6-8.6.1-5.1 3.9-8.6 8.7-8.6zM385.6 215.4h.9v-.4c0-3.2-1.7-4.2-4.1-4.2-2.7 0-4.6 1.6-4.6 1.6l-1-1.7s2.1-1.9 5.8-1.9c3.9 0 6.1 2.2 6.1 6.3v10.5h-2.1v-1.8c0-.8.1-1.4.1-1.4h-.1s-1.4 3.5-5.5 3.5c-2.7 0-5.6-1.6-5.6-4.8.1-5.5 7.3-5.7 10.1-5.7zm-4.1 8.6c3.1 0 5-3.3 5-6.1v-.7h-.9c-2.6 0-7.7.1-7.7 3.7 0 1.6 1.2 3.1 3.6 3.1zM394.4 211.2h-2.1v-1.9h2.2v-4.7h2.2v4.7h4.1v1.9h-4.1v8.1c0 3.8 2.4 4.3 3.7 4.3.5 0 .7-.1.7-.1v2s-.4.1-.9.1c-1.9 0-5.7-.6-5.7-6.1v-8.3zM411.6 208.8c4.5 0 6.8 3.5 6.8 7.5 0 .4-.1 1.1-.1 1.1h-12.6c.1 4.2 3 6.5 6.3 6.5 3 0 5-2 5-2l1 1.7s-2.4 2.3-6 2.3c-4.9 0-8.6-3.5-8.6-8.6.1-5.3 3.7-8.5 8.2-8.5zm4.6 6.9c-.1-3.4-2.2-5-4.6-5-2.7 0-5.1 1.7-5.6 5h10.2z"/></g></g></svg>