<svg viewBox="0 0 100 100" xmlns="http://www.w3.org/2000/svg"><symbol viewBox="0 0 32 32" id="shape-arrow-down"><title>arrow-down</title><path d="M24.773 13.7c-.65.67-7.512 7.206-7.512 7.206-.348.357-.804.534-1.26.534-.458 0-.914-.178-1.26-.534 0 0-6.862-6.536-7.515-7.205-.65-.668-.696-1.87 0-2.585.698-.714 1.67-.77 2.522 0L16 17.112l6.25-5.995c.855-.77 1.828-.714 2.523 0 .698.714.654 1.917 0 2.584z"/></symbol><symbol viewBox="0 0 32 32" id="shape-arrow-left"><title>arrow-left</title><path d="M18.3 7.226c-.67.653-7.204 7.514-7.204 7.514-.357.35-.534.805-.534 1.26s.178.913.534 1.262c0 0 6.534 6.86 7.203 7.512.668.653 1.87.698 2.585 0 .712-.696.768-1.667-.002-2.52L14.888 16l5.995-6.252c.77-.854.714-1.826.002-2.522-.715-.696-1.918-.653-2.586 0z"/></symbol><symbol viewBox="0 0 32 32" id="shape-arrow-right"><title>arrow-right</title><path d="M13.7 7.226c.67.653 7.204 7.514 7.204 7.514.358.35.536.805.536 1.26s-.178.913-.536 1.262c0 0-6.534 6.86-7.203 7.512-.668.653-1.87.698-2.585 0-.714-.696-.77-1.667 0-2.52L17.112 16 11.117 9.75c-.77-.854-.714-1.826 0-2.522.714-.696 1.917-.653 2.584 0z"/></symbol><symbol viewBox="0 0 32 32" id="shape-arrow-up"><title>arrow-up</title><path d="M29.2 19.4c-1-1-11.3-10.8-11.3-10.8-.5-.5-1.2-.8-1.9-.8s-1.4.3-1.9.8c0 0-10.3 9.8-11.3 10.8s-1 2.8 0 3.9 2.5 1.2 3.8 0l9.4-9 9.4 9c1.3 1.2 2.7 1.1 3.8 0 1-1 .9-2.8 0-3.9z"/></symbol><symbol viewBox="-101.4 0 1061.7 518.4" id="shape-deliver-fish"><title>deliver-fish</title><g fill="#2580AA"><path d="M521.8 233.2c-5.2.4-10.6-4.2-9.5-3.8 9.4 3.8 15.9-6.3 13.5-10.8-2.5-4.4-13.8-.8-15.8-2.6-6.9-6.2-14.7-18.7-23.5-10.3-3 2.9-6.2 5.2-7.6 8.8-2.4-3.4-7.5-7.1-10.7-5.6-9.4 4.2.5 17 2.5 20.1 2.7 4.3.9 6.5-2.5 8.1-4.5 2.1 3.7 3.9 8.3 3.1-1.7 3.3-5.5 5.6-7.6 6.8-1 .6-1.8 1.3-2.4 2.2-1.6-2.9-11.2-3.2-14.1-1.6-2.9 1.6-.8 6 3.6 7.5 2.3.8 3.8-.4 5.8 3-.6 1.2.5 5.8 1.2 7.1 1.2 2.1 3.3 1.2 5.4 0 1.5-.8 3.2-7.7 3.2-9.2 2.3-.4 2.7-1.1 4.5-2.1.5-.3-2.4 3.5-1.6 5 1.5 2.6 7.7 12.2 9.1 9.5 1.4-2.5 4.8-7.6 3.8-10.1 1.2.2 3.5 3.2 4 4.1 1.2 2.2 3.2 3.6 5.4 2.4 2.2-1.2 1.8-11.8 3.1-11.2 6.1-3 12-6.3 12.2-11.2 2.3 1.4 7.3 2.7 9.7 1.1 7.2-4.2 5.2-10.7 0-10.3zm-19.9-14.8c-1.1.6-3-.4-4.1-2.4-1.1-2-1.1-4.1.1-4.7s3 .4 4.1 2.4c1 1.9 1 4.1-.1 4.7zM841.5 298.6c1.4-1.4 2.2-3.6 2.2-7 0-9.7-4.3-6.4-14-6.4 0 0-13.6-7.1-15.7-14.6 2.9-6.4-.6-15.9-7.6-18.6-8.7-3.5-14.3-2.2-19.8 7-20.5 7.7-47 16.7-51.9 14.6 2.5-6.3 30.3-21.6 30.3-50.9 0-26-49.4-64.9-53-68-10.9-9.2-32.8-24.9-32.7-32.5.2-12.3 5.3-21.6.3-40.7-10.4-39.4-51.7-60.3-77.2-48.6-28.1 12.9-29.8 20.3-33.1 48.2-.7 6.2 11.9 9.8 13.1 16.1.6 3.1-3 19.4-2 22.5 2.1 6.5 13.2 1.3 16.6 6.8.9 1.5-4.5 11.3 4.7 10 3.3-.5 14.5-14.3 17.7-12.9 6.2 13.2-16.6 17-12.7 20.9 5 5 3.2 11.7 7.9 14.3 4.7 2.6 21.5-6.3 24.4-6.4-4.1 9.3-7 51.1-13.2 58.8 0 0-20.1 21.1-30.1 20.9-3.3-.1-3.6-11.1-5.6-11.8-7.7-2.8-5.7 12.8-9.9 15.7-4.9 3.4-32.9 7-33.2 12-.3 5 25.5 5.4 31.4 4.3 16.4-3.1 45.4-2.6 61.4-9.5 8.9-3.8 16.7-30.4 16.7-30.4-.6 3.3 18.8 29.5 20.6 35-9.6 8.1-31.5 22-31.5 35.5 0 6.1 1 11.3 3 15.7h-35.5v63.7l35 31.9v115.1c5.7 1.4 11.6 2.2 17.7 2.2 21.5 0 40.8-9.1 54.4-23.7 13.5 14.6 32.9 23.7 54.4 23.7 20.9 0 39.8-8.7 53.3-22.6 13.5 13.9 32.4 22.6 53.3 22.6 13.5 0 26.2-3.6 37.1-10 10.9 6.3 23.6 10 37.1 10 20.2 0 38.5-8.1 51.8-21.1 13.4 13.1 31.7 21.1 51.8 21.1 24.6 0 46.4-12 59.9-30.5 13.5 18.5 35.3 30.5 59.9 30.5V393.1l9.3-30.8v-63.7H841.5zm-46.2-17.5c3.1 1.8 9.2 12.9 23.5 17.4h-34.6c5.2-6 9.3-12.2 11.1-17.4z"/><path d="M465.9 276.3c0-8.9-6.1-9.2-14.9-8.5-10.3.8-10.5 8.3-15.3 13.3s-17.4 16.2-24 18.4c-1.1-.2-39.2-20.3-47.8-21.4-8.6-1.1-9-3.6-14.3-10.2.1-.9 1-2 3.1-3.7 2-.6 3.6-1 4.4-1 6.8-.1 9.9 2.1 16 0 8-2.8 10.2-15.6 9.4-20.6-.3-1.7-14.7-9.6-10.2-7.6 2.2 1 11.1 1 12.5-1.7 1.9-3.7-1.3-7.8-1-12.3.3-4 9.9-2.3 9.9-7.4 0-8.2-9.9-13.7-11.1-21.1-.8-5 6.3-11.2 4.8-15.6-7.3-22.2-26.5-37.1-53.8-37.1-40.8 0-55.3 33.5-55.3 74.8 0 3.6-.2 6.7-.4 9.5-1.2 15.9 4.6 28.4 10.8 31.4 1.5.7 9.1 2 15.4 5.3-8.4 19.2-7.1 33.9-6.3 47.6 0 0-8.5 65.5-.6 86.7-19.2 1.5-38.5 2.7-58 3.4-47.5-24.7-95.3-44-142.1-58-.9 1.5-12.3 19-23.9 53.7-4.9-.4-9.7-.9-14.6-1.4-.9-.1-1.7-.2-2.6-.3-4.6-.5-9.3-1-13.9-1.5l-3-.3c-4.6-.5-9.2-1.1-13.8-1.7l-2.7-.3c-4.8-.6-9.5-1.2-14.2-1.9-.5-.1-1-.1-1.5-.2-4.7-.7-9.3-1.3-14-2-.5-.1-1.1-.2-1.6-.2-4.7-.7-9.5-1.5-14.2-2.3-.8-.1-1.7-.3-2.5-.4l-13.8-2.4c-.9-.2-1.7-.3-2.6-.5-4.6-.8-9.3-1.7-13.9-2.6-.6-.1-1.3-.2-1.9-.4-4.9-.9-9.7-1.9-14.6-2.9 2.9 20.7 8.9 40.5 17.6 59.2 1.2 2.7 2.6 5.3 3.9 7.9 4.1 7.9 8.6 15.5 13.7 22.9.8 1.2 1.7 2.5 2.5 3.7 7.8 10.9 16.5 21.3 26.2 31 3.1-2.2 6.1-4.7 8.8-7.4.8.8 1.7 1.6 2.5 2.3.3.3.7.6 1 .8.5.5 1.1.9 1.6 1.4.4.4.9.7 1.3 1 .5.4.9.7 1.4 1.1.5.4 1 .7 1.5 1.1l1.2.9c.6.4 1.2.7 1.7 1.1.4.2.7.5 1.1.7.6.4 1.3.8 1.9 1.1.3.2.7.4 1 .6.7.4 1.4.7 2.1 1.1.3.2.6.3.9.5.8.4 1.5.7 2.3 1.1.3.1.5.2.8.4.8.4 1.6.7 2.5 1 .2.1.5.2.7.3.9.3 1.7.6 2.6.9.2.1.4.1.6.2.9.3 1.9.6 2.8.8.2 0 .3.1.5.1 1 .3 2 .5 2.9.7.1 0 .3.1.4.1 1 .2 2.1.4 3.1.6h.3c1.1.2 2.2.4 3.2.5h.2c1.1.1 2.2.3 3.4.4h.1c1.2.1 2.3.2 3.5.2.8 0 1.7.1 2.5.1 2 0 3.9-.1 5.8-.2.7-.1 1.5-.1 2.2-.2.7-.1 1.5-.2 2.2-.3l2.1-.3c.7-.1 1.4-.2 2.1-.4h.1c.7-.1 1.4-.3 2.1-.4h.1c.7-.2 1.3-.3 2-.5h.1c.7-.2 1.3-.4 2-.5h.1c.6-.2 1.3-.4 1.9-.6.1 0 .1 0 .2-.1.6-.2 1.2-.4 1.9-.6.1 0 .1 0 .2-.1.6-.2 1.2-.4 1.8-.7.1 0 .1-.1.2-.1.6-.2 1.2-.5 1.7-.7.1 0 .2-.1.3-.1.6-.2 1.1-.5 1.7-.7.1 0 .2-.1.3-.1.5-.3 1.1-.5 1.6-.8.1-.1.2-.1.3-.2.5-.3 1-.5 1.6-.8.1-.1.2-.1.3-.2.5-.3 1-.5 1.5-.8.1-.1.3-.1.4-.2.5-.3 1-.6 1.4-.8.1-.1.3-.2.4-.3.5-.3.9-.6 1.4-.9.1-.1.3-.2.4-.3.4-.3.9-.6 1.3-.9.2-.1.3-.2.5-.3l1.2-.9c.2-.1.3-.3.5-.4l1.2-.9c.2-.1.4-.3.5-.4.4-.3.7-.6 1.1-.9.2-.2.4-.3.6-.5.4-.3.7-.6 1-.9.2-.2.4-.3.6-.5.3-.3.7-.6 1-.9l.6-.6.9-.9.6-.6.8-.8c.2-.2.4-.5.7-.7l.8-.8c.2-.3.5-.5.7-.8.2-.3.5-.5.7-.8.3-.3.5-.6.7-.9.2-.2.4-.5.6-.7.3-.3.5-.7.8-1 .2-.2.3-.4.5-.6l1.2-1.5c0-.1.1-.1.1-.2 4.6 6.3 10.3 11.9 16.6 16.5 2.3 1.7 4.7 3.2 7.3 4.6 1.9 1 3.8 2 5.8 2.9.7.3 1.3.6 2 .9 2 .8 4.1 1.6 6.2 2.2l4.2 1.2c1.4.4 2.9.7 4.3.9.7.1 1.5.3 2.2.4 3.7.6 7.5.9 11.3.9 2.1 0 4.2-.1 6.2-.3 4.1-.3 8.1-1 12-2 1.9-.5 3.9-1.1 5.7-1.7.9-.3 1.9-.7 2.8-1 1.8-.7 3.7-1.5 5.4-2.4 4.4-2.1 8.6-4.7 12.5-7.6 12.4 9.4 27.9 15 44.7 15 21.5 0 40.8-9.1 54.4-23.7 13.5 14.6 32.9 23.7 54.4 23.7 18 0 34.4-6.4 47.3-17 34-35.3 56.1-79.1 61.5-127.1-3.9.9-7.7 1.7-11.6 2.6-.9.2-1.9.4-2.8.6-3.9.8-7.8 1.7-11.7 2.5h-.1c-3.9.8-7.8 1.6-11.7 2.3-.9.2-1.8.3-2.6.5-4 .8-8 1.5-12 2.3l-12 2.1c-.8.1-1.6.3-2.4.4-8.1 1.4-16.3 2.7-24.5 3.9-.7.1-1.4.2-2.2.3-4.2.6-8.3 1.2-12.5 1.8 1.8-13.8 1.4-34.1-6.6-62.5-.1-.2 4.2.2 4.1 0 13-.3 43.5 4.9 46.2 3.5 11.4-2.5 34.1-35.8 41-35.8 5.6 0 38.9 1.6 39.5-10.5.9-6.5-30.7-1.8-30.7-5.1zM174.5 399.2c-1.6 0-3.2-.1-4.8-.1-3.8-.1-7.6-.1-11.4-.2-1.5 0-3-.1-4.5-.1-4.3-.1-8.5-.2-12.7-.4-.8 0-1.5-.1-2.3-.1-21.8-.8-43.4-2.2-64.9-4.1C84 364 96 342.1 96.9 340.4c42.2 15.2 84.9 34.8 127.1 58.5-8.4.2-16.7.4-25.2.4h-8.5c-5.2 0-10.5 0-15.8-.1z"/></g></symbol><symbol viewBox="0 0 32 32" id="shape-facebook"><title>facebook</title><path d="M17.996 32H12V16H8v-5.514l4-.002-.007-3.248c0-4.498 1.22-7.236 6.52-7.236h4.41v5.515h-2.756c-2.064 0-2.163.77-2.163 2.21l-.008 2.76h4.96l-.585 5.513L18 16l-.003 16z"/></symbol><symbol viewBox="0 0 32 32" id="shape-feed"><title>feed</title><path d="M4.26 23.467C1.91 23.467 0 25.384 0 27.72c0 2.348 1.91 4.243 4.26 4.243 2.357 0 4.264-1.895 4.264-4.244 0-2.337-1.907-4.253-4.265-4.253zM.004 10.873v6.133c3.993 0 7.75 1.562 10.577 4.39 2.825 2.823 4.384 6.596 4.384 10.604h6.16c0-11.65-9.478-21.127-21.12-21.127zM.012 0v6.136C14.255 6.136 25.848 17.74 25.848 32H32C32 14.36 17.648 0 .012 0z"/></symbol><symbol viewBox="0 0 1687.4 279" id="shape-hook"><title>hook</title><path fill="#2580AA" d="M1687.4 0h-6.5l-127.4 124.7c-.3-.2-.6-.5-.9-.7-6.5-4.2-15.2-2.3-19.3 4.1-3.3 5.1-2.2 11.9.6 16l-60.3 95.4-.1.4c-.1.2-12.8 23.5-33.1 28.7-9.7 2.5-19.7.5-29.8-6.1-11.6-7.5-18.4-16.8-20-27.6-1.3-8.4.6-16.7 3.4-23.9.6 6.3 2.8 12.7 7.8 18l6.8-6.4c-10.9-11.6-2.4-32.8-2.3-33l11.4-27.6-19.3 22.8c-.9 1-21 25.2-17 51.3 2 13.6 10.2 25.1 24.2 34.1 12.4 8 24.9 10.4 37.1 7.2 23.4-6.1 37.2-30.8 38.7-33.2l60.2-95.3c4.9.9 11.7-.9 15-5.9 3-4.7 2.9-10.4.2-14.8L1687.4 0zM1549 138.3c-1.4 2.2-4.3 2.8-6.4 1.4-2.2-1.4-2.8-4.3-1.4-6.4 1.4-2.2 4.3-2.8 6.4-1.4 2.2 1.4 2.8 4.2 1.4 6.4z"/><path fill="#231F20" d="M6.5 120H0v-5.8h14v43.1c0 3.3.8 5.6 4.2 5.6 1.2 0 2.1-.1 2.1-.1l-.1 6.2s-1.6.2-3.3.2c-5.6 0-10.4-2.2-10.4-11.4V120zM48.1 144.8h2.5v-1.5c0-6.2-3.6-8.4-8.4-8.4-6.2 0-11.2 3.8-11.2 3.8l-3-5.4s5.7-4.7 14.9-4.7c10 0 15.3 5.2 15.3 15.1v17.5c0 1.2.6 1.7 1.7 1.7h4v5.8h-7.8c-3.5 0-4.9-1.7-4.9-4.3v-.5c0-1.6.3-2.6.3-2.6h-.2s-3.4 8.3-13 8.3c-6.5 0-13-3.8-13-11.9-.1-12.1 16.3-12.9 22.8-12.9zM39.9 164c6.7 0 10.8-6.8 10.8-12.7v-1.6h-1.9c-3.6 0-15.9.2-15.9 7.7-.1 3.4 2.5 6.6 7 6.6zM69.6 163.1h5.9v-25.9c0-1.2-.6-1.7-1.7-1.7h-4.9v-5.8h8.8c3.4 0 5 1.4 5 4.6v2.5c0 1.6-.2 2.7-.2 2.7h.2c1.8-5.7 6.4-10.2 12.4-10.2 1 0 1.9.2 1.9.2v7.4s-.9-.2-2.2-.2c-8.4 0-11.9 8.5-11.9 16.1v10.4h5.8v5.8H69.6v-5.9zM124 144.8h2.5v-1.5c0-6.2-3.6-8.4-8.4-8.4-6.2 0-11.2 3.8-11.2 3.8l-3-5.4s5.7-4.7 14.9-4.7c10 0 15.3 5.2 15.3 15.1v17.5c0 1.2.6 1.7 1.7 1.7h4v5.8H132c-3.5 0-4.9-1.7-4.9-4.3v-.5c0-1.6.3-2.6.3-2.6h-.2s-3.4 8.3-13 8.3c-6.5 0-13-3.8-13-11.9-.1-12.1 16.3-12.9 22.8-12.9zm-8.3 19.2c6.7 0 10.8-6.8 10.8-12.7v-1.6h-1.9c-3.6 0-15.9.2-15.9 7.7 0 3.4 2.5 6.6 7 6.6z"/><path fill="#247FA9" d="M164.1 156.3h6.6v2.6c0 3.3 4.7 4.9 9 4.9 4.4 0 7.9-1.8 7.9-5 0-4-4.3-5.2-9.8-7.1-5.8-2.2-12.3-4.8-12.3-11.9 0-7.8 7.7-10.9 14.5-10.9 5.5 0 13.6 2.2 13.6 7.9v4.7H187v-2.6c0-2.4-3.1-4-6.9-4-3.7 0-7 1.6-7 4.7 0 3.7 4.3 5.3 9.1 6.9 6.1 2 13 4.6 13 11.9 0 7.4-6.8 11.6-15.7 11.6-7.1 0-15.4-3.2-15.4-9.4v-4.3zM222.2 128.7c5.8 0 15.4 2.2 15.4 8.9v4.8h-6.7v-2.7c0-3-5-4.5-8.5-4.5-7.9 0-13.3 5.6-13.3 14 0 8.9 6.3 14.1 13.8 14.1 6.7 0 11.2-4 12.6-5l2.9 5.5c-1.8 1.6-7.4 6.1-15.7 6.1-11.3 0-21.2-7.8-21.2-20.5-.1-12.1 9-20.7 20.7-20.7zM243.7 163.1h6.2V120h-6.6v-5.8h14v20.3c0 1.9-.2 3.3-.2 3.3h.2c1.7-3.8 6.8-9 14.7-9 9.2 0 13.5 5 13.5 15v19.3h6.1v5.8h-13.7v-23.4c0-5.5-1.2-9.9-7.4-9.9-7.7 0-13.1 6.5-13.1 14.9v12.6h6.2v5.8h-19.9v-5.8zM316.3 128.7c11.2 0 17 8.2 17 18.4 0 1-.2 2.9-.2 2.9h-28.7c.5 8.7 6.6 13.3 13.6 13.3 6.8 0 11.7-4.4 11.7-4.4l3.1 5.5s-5.9 5.4-15.3 5.4c-12.3 0-20.8-8.9-20.8-20.6 0-12.4 8.4-20.5 19.6-20.5zm9.2 16.5c-.2-6.9-4.4-10.5-9.4-10.5-5.7 0-10.4 3.9-11.5 10.5h20.9zM340.3 163.1h6.1v-25.9c0-1.2-.6-1.7-1.7-1.7h-4.8v-5.8h8.8c3.4 0 5 1.5 5 4.3v2c0 1.2-.2 2.2-.2 2.2h.2c.8-2.1 5.4-9.5 15.3-9.5 9 0 13 5 13 15V163h6.2v5.8h-13.7v-23.4c0-5.5-1.1-9.9-7.4-9.9-7.9 0-13.1 7.2-13.1 15v12.4h6.2v5.8h-19.9v-5.6zM413.9 128.7c5.8 0 15.4 2.2 15.4 8.9v4.8h-6.7v-2.7c0-3-5-4.5-8.5-4.5-7.9 0-13.3 5.6-13.3 14 0 8.9 6.3 14.1 13.8 14.1 6.7 0 11.2-4 12.6-5l2.9 5.5c-1.8 1.6-7.4 6.1-15.7 6.1-11.3 0-21.2-7.8-21.2-20.5-.1-12.1 9-20.7 20.7-20.7zM435.4 163.1h6.2V120H435v-5.8h14v30.6h5.7l7.8-9.2h-5.1v-5.8h17.8v5.8H470l-9.7 11.3v.2c.1 0 1.3.5 2.9 3.2l6.7 11.4c.8 1.2 1.4 1.6 3.4 1.6h2.5v5.8H470c-3.6 0-4.7-.6-6.4-3.6l-7.8-13.3c-.9-1.4-1.9-1.6-3.6-1.6H449v12.6h5.3v5.8h-18.9v-5.9z"/><g><g fill="#3E3739"><path d="M13.8 208.8c4 0 5.3 3.1 5.3 3.1h.1s-.1-.6-.1-1.2v-8h2.2v22.9h-2.1v-1.7c0-.7.1-1.2.1-1.2h-.1s-1.3 3.3-5.6 3.3c-4.4 0-7.1-3.5-7.1-8.6-.1-5.2 3-8.6 7.3-8.6zm.1 15.1c2.7 0 5.3-2 5.3-6.6 0-3.3-1.7-6.6-5.2-6.6-2.9 0-5.3 2.4-5.3 6.6 0 4.1 2.1 6.6 5.2 6.6zM33.6 208.8c4.5 0 6.8 3.5 6.8 7.5 0 .4-.1 1.1-.1 1.1H27.8c.1 4.2 3 6.5 6.3 6.5 3 0 5-2 5-2l1 1.7s-2.4 2.3-6 2.3c-4.9 0-8.6-3.5-8.6-8.6 0-5.3 3.6-8.5 8.1-8.5zm4.5 6.9c-.1-3.4-2.2-5-4.6-5-2.7 0-5.1 1.7-5.6 5h10.2zM44.5 222s1.8 2 4.9 2c1.8 0 3.3-.9 3.3-2.6 0-3.6-8.8-2.7-8.8-8 0-2.9 2.6-4.5 5.6-4.5 3.4 0 5 1.8 5 1.8l-1 1.7s-1.4-1.5-4.1-1.5c-1.7 0-3.3.7-3.3 2.5 0 3.6 8.8 2.6 8.8 8 0 2.7-2.3 4.6-5.6 4.6-4 0-6-2.4-6-2.4l1.2-1.6zM59 202.7h2.3v2.8H59v-2.8zm0 6.5h2.2v16.4H59v-16.4zM72.2 230.4c3.2 0 5.7-1.5 5.7-5.1v-1.5c0-.6.1-1.2.1-1.2-1 1.8-2.6 2.9-5.2 2.9-4.4 0-7.3-3.5-7.3-8.4s2.7-8.3 7.1-8.3c4.3 0 5.4 2.7 5.4 2.7v-2.4h2.1v16c0 5.2-3.8 7.2-7.8 7.2-1.9 0-3.8-.5-5.4-1.3l.8-1.8c.1.1 2.1 1.2 4.5 1.2zm5.8-13.3c0-4.8-2.3-6.2-5.2-6.2-3.2 0-5 2.3-5 6.2 0 3.9 2.1 6.4 5.4 6.4 2.5 0 4.8-1.6 4.8-6.4zM85.5 209.2h2.2v2.4c0 .7-.1 1.3-.1 1.3h.1c.6-1.5 2.7-4.1 6.5-4.1 4 0 5.5 2.3 5.5 6.3v10.4h-2.2v-9.8c0-2.6-.4-4.8-3.5-4.8-2.8 0-5.2 1.9-6 4.6-.2.7-.3 1.4-.3 2.2v7.8h-2.2v-16.3zM113.6 215.4h7.5v-8.3h2v8.3h7.5v1.9h-7.5v8.3h-2v-8.3h-7.5v-1.9zM150.9 208.8c4 0 5.3 3.1 5.3 3.1h.1s-.1-.6-.1-1.2v-8h2.2v22.9h-2.1v-1.7c0-.7.1-1.2.1-1.2h-.1s-1.3 3.3-5.6 3.3c-4.4 0-7.1-3.5-7.1-8.6 0-5.2 3-8.6 7.3-8.6zm.1 15.1c2.7 0 5.3-2 5.3-6.6 0-3.3-1.7-6.6-5.2-6.6-2.9 0-5.3 2.4-5.3 6.6.1 4.1 2.2 6.6 5.2 6.6zM170.7 208.8c4.5 0 6.8 3.5 6.8 7.5 0 .4-.1 1.1-.1 1.1h-12.6c.1 4.2 3 6.5 6.3 6.5 3 0 5-2 5-2l1 1.7s-2.4 2.3-6 2.3c-4.9 0-8.6-3.5-8.6-8.6.2-5.3 3.8-8.5 8.2-8.5zm4.6 6.9c-.1-3.4-2.2-5-4.6-5-2.7 0-5.1 1.7-5.6 5h10.2zM179.5 209.2h2.3l4.6 12c.3.8.6 2 .6 2h.1s.3-1.1.6-2l4.5-12h2.3l-6.2 16.4h-2.4l-6.4-16.4zM204.5 208.8c4.5 0 6.8 3.5 6.8 7.5 0 .4-.1 1.1-.1 1.1h-12.6c.1 4.2 3 6.5 6.3 6.5 3 0 5-2 5-2l1 1.7s-2.4 2.3-6 2.3c-4.9 0-8.6-3.5-8.6-8.6.1-5.3 3.8-8.5 8.2-8.5zm4.6 6.9c-.1-3.4-2.2-5-4.6-5-2.7 0-5.1 1.7-5.6 5h10.2zM215.4 202.7h2.2v18.5c0 2.1 1 2.5 1.8 2.5h.6v2s-.4.1-.8.1c-1.4 0-3.8-.4-3.8-4v-19.1zM231 208.8c4.8 0 8.6 3.6 8.6 8.5s-3.9 8.6-8.6 8.6c-4.8 0-8.6-3.7-8.6-8.6 0-4.9 3.8-8.5 8.6-8.5zm0 15.1c3.5 0 6.4-2.9 6.4-6.7 0-3.7-2.9-6.5-6.4-6.5s-6.4 2.8-6.4 6.5c0 3.9 2.9 6.7 6.4 6.7zM243.8 209.2h2.1v1.6c0 .7-.1 1.3-.1 1.3h.1s1.3-3.3 5.7-3.3 7.1 3.5 7.1 8.6c0 5.2-3.1 8.6-7.3 8.6-3.9 0-5.4-3.1-5.4-3.1h-.1s.1.6.1 1.4v7.8h-2.2v-22.9zm7.3 14.8c2.9 0 5.3-2.4 5.3-6.6 0-4-2.1-6.6-5.2-6.6-2.7 0-5.3 2-5.3 6.6 0 3.3 1.9 6.6 5.2 6.6zM271.7 215.4h7.5v-8.3h2v8.3h7.5v1.9h-7.5v8.3h-2v-8.3h-7.5v-1.9zM309.7 208.8c4.5 0 6.8 3.5 6.8 7.5 0 .4-.1 1.1-.1 1.1H304c.1 4.2 3 6.5 6.3 6.5 3 0 5-2 5-2l1 1.7s-2.4 2.3-6 2.3c-4.9 0-8.6-3.5-8.6-8.6 0-5.3 3.6-8.5 8-8.5zm4.6 6.9c-.1-3.4-2.2-5-4.6-5-2.7 0-5.1 1.7-5.6 5h10.2zM327.1 208.8c4 0 5.3 3.1 5.3 3.1h.1s-.1-.6-.1-1.2v-8h2.2v22.9h-2.1v-1.7c0-.7.1-1.2.1-1.2h-.1s-1.3 3.3-5.6 3.3c-4.4 0-7.1-3.5-7.1-8.6-.1-5.2 3-8.6 7.3-8.6zm.1 15.1c2.7 0 5.3-2 5.3-6.6 0-3.3-1.7-6.6-5.2-6.6-2.9 0-5.3 2.4-5.3 6.6 0 4.1 2.1 6.6 5.2 6.6zM339.7 209.2h2.2v9.8c0 2.6.4 4.8 3.5 4.8 3.7 0 6-3.3 6-6.8v-7.8h2.2v16.4h-2.1v-2.4c0-.7.1-1.3.1-1.3h-.1c-.7 1.6-2.8 4.1-6.4 4.1-3.8 0-5.5-2.1-5.5-6.3v-10.5zM366.5 208.8c4 0 6 2.3 6 2.3l-1.1 1.7s-1.8-2-4.8-2c-3.6 0-6.4 2.7-6.4 6.6 0 3.8 2.8 6.6 6.4 6.6 3.3 0 5.2-2.3 5.2-2.3l1 1.7s-2.2 2.6-6.4 2.6c-4.8 0-8.6-3.5-8.6-8.6.1-5.1 3.9-8.6 8.7-8.6zM385.6 215.4h.9v-.4c0-3.2-1.7-4.2-4.1-4.2-2.7 0-4.6 1.6-4.6 1.6l-1-1.7s2.1-1.9 5.8-1.9c3.9 0 6.1 2.2 6.1 6.3v10.5h-2.1v-1.8c0-.8.1-1.4.1-1.4h-.1s-1.4 3.5-5.5 3.5c-2.7 0-5.6-1.6-5.6-4.8.1-5.5 7.3-5.7 10.1-5.7zm-4.1 8.6c3.1 0 5-3.3 5-6.1v-.7h-.9c-2.6 0-7.7.1-7.7 3.7 0 1.6 1.2 3.1 3.6 3.1zM394.4 211.2h-2.1v-1.9h2.2v-4.7h2.2v4.7h4.1v1.9h-4.1v8.1c0 3.8 2.4 4.3 3.7 4.3.5 0 .7-.1.7-.1v2s-.4.1-.9.1c-1.9 0-5.7-.6-5.7-6.1v-8.3zM411.6 208.8c4.5 0 6.8 3.5 6.8 7.5 0 .4-.1 1.1-.1 1.1h-12.6c.1 4.2 3 6.5 6.3 6.5 3 0 5-2 5-2l1 1.7s-2.4 2.3-6 2.3c-4.9 0-8.6-3.5-8.6-8.6.1-5.3 3.7-8.5 8.2-8.5zm4.6 6.9c-.1-3.4-2.2-5-4.6-5-2.7 0-5.1 1.7-5.6 5h10.2z"/></g></g></symbol><symbol viewBox="0 0 32 32" id="shape-quotes-left"><title>quotes-left</title><path d="M7.03 14c3.867 0 7 3.134 7 7s-3.133 7-7 7c-3.865 0-7-3.134-7-7L0 20C0 12.268 6.268 6 14 6v4c-2.67 0-5.182 1.04-7.07 2.93-.365.363-.696.75-.996 1.156C6.29 14.03 6.658 14 7.03 14zm18 0c3.867 0 7 3.134 7 7s-3.133 7-7 7c-3.865 0-7-3.134-7-7L18 20c0-7.732 6.268-14 14-14v4c-2.67 0-5.182 1.04-7.07 2.93-.365.363-.696.75-.996 1.156.358-.056.724-.086 1.097-.086z" fill="#aaa"/></symbol><symbol viewBox="0 0 32 32" id="shape-twitter"><title>twitter</title><path d="M32 6.076c-1.177.522-2.443.875-3.77 1.034 1.354-.813 2.395-2.1 2.886-3.632-1.27.752-2.674 1.3-4.17 1.593C25.75 3.796 24.044 3 22.157 3c-3.627 0-6.566 2.94-6.566 6.565 0 .515.058 1.016.17 1.496-5.456-.275-10.294-2.89-13.532-6.86-.565.97-.89 2.096-.89 3.3 0 2.278 1.16 4.287 2.922 5.465-1.076-.034-2.088-.33-2.974-.82v.082c0 3.18 2.262 5.834 5.265 6.437-.55.15-1.13.23-1.73.23-.422 0-.833-.04-1.234-.118.835 2.608 3.26 4.506 6.133 4.56-2.248 1.76-5.08 2.81-8.155 2.81-.53 0-1.052-.032-1.566-.093 2.904 1.863 6.355 2.95 10.063 2.95 12.076 0 18.68-10.004 18.68-18.68 0-.285-.007-.568-.02-.85C30.006 8.55 31.12 7.394 32 6.077z"/></symbol></svg>