<!-- Generator: Adobe Illustrator 18.0.0, SVG Export Plug-In  -->
<svg version="1.1"
	 xmlns="http://www.w3.org/2000/svg" xmlns:xlink="http://www.w3.org/1999/xlink" xmlns:a="http://ns.adobe.com/AdobeSVGViewerExtensions/3.0/"
	 x="0px" y="0px" width="329.1px" height="124.4px" viewBox="0 0 329.1 124.4" enable-background="new 0 0 329.1 124.4"
	 xml:space="preserve">
<defs>
</defs>
<path fill="#fefefe" d="M246.8,0h-0.4h-81.3h-1H82.7h-0.4H0v61.7v1v61.7h82.3h0.4h81.3h1h81.3h0.4h82.3V62.7v-1V0H246.8z
	 M270.8,14.4h33.9v33.9h-33.9V14.4z M188.4,14.4h33.9v33.9h-33.9V14.4z M106.7,14.4h33.9v33.9h-33.9V14.4z M24.4,14.4h33.9v33.9
	H24.4V14.4z M58.3,110.1H24.4V76.1h33.9V110.1z M140.7,110.1h-33.9V76.1h33.9V110.1z M222.4,110.1h-33.9V76.1h33.9V110.1z
	 M304.7,110.1h-33.9V76.1h33.9V110.1z"/>
</svg>
