<!-- Generator: Adobe Illustrator 18.0.0, SVG Export Plug-In  -->
<svg version="1.1"
     xmlns="http://www.w3.org/2000/svg" xmlns:xlink="http://www.w3.org/1999/xlink" xmlns:a="http://ns.adobe.com/AdobeSVGViewerExtensions/3.0/"
     x="0px" y="0px" width="225.4px" height="87.9px" viewBox="0 0 225.4 87.9" enable-background="new 0 0 225.4 87.9"
     xml:space="preserve">
<defs>
</defs>
<path fill="#222334" d="M0,2.9C0,1.3,1.3,0,2.9,0h14.2c11,0,18.5,0.5,22.4,1.5c3.9,1,6.8,2.7,8.9,5c2,2.3,3.3,4.9,3.8,7.7
    c0.5,2.8,0.8,8.4,0.8,16.8v30.8c0,7.9-0.4,13.2-1.1,15.8c-0.7,2.7-2,4.7-3.9,6.2c-1.8,1.5-4.1,2.6-6.8,3.1
    c-2.7,0.6-6.8,0.9-12.3,0.9H2.9C1.3,87.9,0,86.6,0,85V2.9z M22.9,18.2v51.5c0,1.9,1.8,3.3,3.7,2.8c1.2-0.3,2-0.9,2.4-1.6
    c0.8-1.3,1.1-4.9,1.1-10.8V26c0-4-0.1-6.5-0.4-7.7c-0.3-1.1-0.8-1.9-1.7-2.5c-0.4-0.2-1-0.4-1.7-0.6C24.5,15,22.9,16.4,22.9,18.2z"
    />
<path fill="#222334" d="M83.4,2.9v5.6c0,1.6-1.3,2.9-2.9,2.9H63.7c-1.6,0-2.9-1.3-2.9-2.9V2.9c0-1.6,1.3-2.9,2.9-2.9h16.7
    C82.1,0,83.4,1.3,83.4,2.9z M83.4,18.8V85c0,1.6-1.3,2.9-2.9,2.9H63.7c-1.6,0-2.9-1.3-2.9-2.9V18.8c0-1.6,1.3-2.9,2.9-2.9h16.7
    C82.1,15.9,83.4,17.2,83.4,18.8z"/>
<path fill="#222334" d="M117,0c1.6,0,2.9,1.3,2.9,2.9v55.8c0,8.8-0.1,14.5-0.3,17c-0.2,2.5-1,4.8-2.5,6.8c-1.5,2-3.5,3.4-6,4.2
    c-2.5,0.8-6.3,1.2-11.4,1.2h-8.5c-1.6,0-2.9-1.3-2.9-2.9v-9.4c0-1.6,1.3-2.9,3-2.9c0,0,0,0,0,0c1.6,0,2.9-0.4,3.9-1.2
    c0.9-0.8,1.5-1.8,1.6-2.9c0.1-1.2,0.2-3.4,0.2-6.7V2.9C97,1.3,98.3,0,99.9,0H117z"/>
<path fill="#222334" d="M150.7,2.9v5.6c0,1.6-1.3,2.9-2.9,2.9H131c-1.6,0-2.9-1.3-2.9-2.9V2.9c0-1.6,1.3-2.9,2.9-2.9h16.7
    C149.4,0,150.7,1.3,150.7,2.9z M150.7,18.8V85c0,1.6-1.3,2.9-2.9,2.9H131c-1.6,0-2.9-1.3-2.9-2.9V18.8c0-1.6,1.3-2.9,2.9-2.9h16.7
    C149.4,15.9,150.7,17.2,150.7,18.8z M225.4,2.9v5.6c0,1.6-1.3,2.9-2.9,2.9h-16.7c-1.6,0-2.9-1.3-2.9-2.9V2.9c0-1.6,1.3-2.9,2.9-2.9
    h16.7C224.1,0,225.4,1.3,225.4,2.9z"/>
<path fill="#222334" d="M162.1,0H195c1.6,0,2.9,1.3,2.9,2.9v11.8c0,1.6-1.3,2.9-2.9,2.9h-10c-1.6,0-2.9,1.3-2.9,2.9v10.8
    c0,1.6,1.3,2.9,2.9,2.9h8.3c1.6,0,2.9,1.3,2.9,2.9v10.9c0,1.6-1.3,2.9-2.9,2.9H185c-1.6,0-2.9,1.3-2.9,2.9V85c0,1.6-1.3,2.9-2.9,2.9
    h-17c-1.6,0-2.9-1.3-2.9-2.9V2.9C159.2,1.3,160.5,0,162.1,0z"/>
<path fill="#222334" d="M225.4,18.8V85c0,1.6-1.3,2.9-2.9,2.9h-16.7c-1.6,0-2.9-1.3-2.9-2.9V18.8c0-1.6,1.3-2.9,2.9-2.9h16.7
    C224.1,15.9,225.4,17.2,225.4,18.8z"/>
</svg>
