<!-- Generator: Adobe Illustrator 18.0.0, SVG Export Plug-In  -->
<svg version="1.1"
	 xmlns="http://www.w3.org/2000/svg" xmlns:xlink="http://www.w3.org/1999/xlink" xmlns:a="http://ns.adobe.com/AdobeSVGViewerExtensions/3.0/"
	 x="0px" y="0px" width="128.1px" height="128.1px" viewBox="0 0 128.1 128.1" enable-background="new 0 0 128.1 128.1"
	 xml:space="preserve">
<defs>
</defs>
<path fill="#FECC53" d="M36.7,113.1c28.5,14.5,63.3,3.1,77.8-25.4s3.1-63.3-25.4-77.8S25.8,6.8,11.3,35.3S8.2,98.6,36.7,113.1z
	 M35.8,69.9c5.1,3.2,7.2,9.7,5,15.3c-2.9,7.6-12,10.5-18.8,6.1c-5.1-3.2-7.2-9.7-5-15.3C19.9,68.5,28.9,65.6,35.8,69.9z M90.4,52.3
	c-5.1-3.2-7.2-9.7-5-15.3c2.9-7.6,12-10.5,18.8-6.1c5.1,3.2,7.2,9.7,5,15.3C106.3,53.7,97.3,56.6,90.4,52.3z M55,34.3
	c-5.1-3.2-7.2-9.7-5-15.3c2.9-7.6,12-10.5,18.8-6.1c5.1,3.2,7.2,9.7,5,15.3C70.9,35.7,61.8,38.6,55,34.3z M42.1,46.9
	c-3.2,6.3-10.9,8.8-17.2,5.6s-8.8-10.9-5.6-17.2s10.9-8.8,17.2-5.6S45.3,40.6,42.1,46.9z M67.9,51.7c6.3,3.2,8.8,10.9,5.6,17.2
	s-10.9,8.8-17.2,5.6s-8.8-10.9-5.6-17.2C53.9,51,61.6,48.5,67.9,51.7z M92.5,93.5c-6.3-3.2-8.8-10.9-5.6-17.2
	c3.2-6.3,10.9-8.8,17.2-5.6c6.3,3.2,8.8,10.9,5.6,17.2C106.5,94.2,98.8,96.7,92.5,93.5z M57.4,109.4c-5.1-3.2-7.2-9.7-5-15.3
	c2.9-7.6,12-10.5,18.8-6.1c5.1,3.2,7.2,9.7,5,15.3C73.3,110.8,64.2,113.7,57.4,109.4z"/>
<path fill="#5693C3" d="M36.9,117.6c29.5,15,65.6,3.2,80.6-26.3s3.2-65.6-26.3-80.6S25.6,7.4,10.6,36.9S7.4,102.6,36.9,117.6z
	 M36,72.8c5.2,3.3,7.4,10.1,5.2,15.9c-3,7.8-12.4,10.9-19.5,6.4c-5.2-3.3-7.4-10.1-5.2-15.9C19.5,71.4,28.9,68.3,36,72.8z
	 M92.6,54.5c-5.2-3.3-7.4-10.1-5.2-15.9c3-7.8,12.4-10.9,19.5-6.4c5.2,3.3,7.4,10.1,5.2,15.9C109.1,56,99.7,59,92.6,54.5z
	 M55.9,35.9c-5.2-3.3-7.4-10.1-5.2-15.9c3-7.8,12.4-10.9,19.5-6.4c5.2,3.3,7.4,10.1,5.2,15.9C72.4,37.3,63,40.4,55.9,35.9z
	 M42.5,48.9c-3.3,6.5-11.3,9.1-17.8,5.8c-6.5-3.3-9.1-11.3-5.8-17.8s11.3-9.1,17.8-5.8S45.8,42.4,42.5,48.9z M69.2,53.9
	c6.5,3.3,9.1,11.3,5.8,17.8s-11.3,9.1-17.8,5.8s-9.1-11.3-5.8-17.8C54.7,53.2,62.7,50.6,69.2,53.9z M94.8,97.3
	C88.3,94,85.7,86,89,79.5s11.3-9.1,17.8-5.8c6.5,3.3,9.1,11.3,5.8,17.8S101.3,100.6,94.8,97.3z M58.4,113.7
	c-5.2-3.3-7.4-10.1-5.2-15.9c3-7.8,12.4-10.9,19.5-6.4c5.2,3.3,7.4,10.1,5.2,15.9C74.8,115.2,65.4,118.2,58.4,113.7z"/>
<path fill="#222334" d="M35.1,121.2c31.5,16,70.1,3.4,86.1-28.1S124.6,23,93.1,7S23,3.5,7,35.1S3.5,105.2,35.1,121.2z M34.1,73.4
	c5.6,3.6,7.9,10.8,5.5,17c-3.3,8.4-13.3,11.6-20.8,6.8c-5.6-3.6-7.9-10.8-5.5-17C16.5,71.8,26.5,68.6,34.1,73.4z M94.5,53.8
	c-5.6-3.6-7.9-10.8-5.5-17c3.3-8.4,13.3-11.6,20.8-6.8c5.6,3.6,7.9,10.8,5.5,17C112.1,55.4,102.1,58.7,94.5,53.8z M55.3,33.9
	c-5.6-3.6-7.9-10.8-5.5-17c3.3-8.4,13.3-11.6,20.8-6.8c5.6,3.6,7.9,10.8,5.5,17C72.9,35.5,62.9,38.8,55.3,33.9z M41.1,47.9
	c-3.5,7-12,9.7-19,6.2c-7-3.5-9.7-12-6.2-19s12-9.7,19-6.2S44.6,41,41.1,47.9z M69.6,53.3c7,3.5,9.7,12,6.2,19s-12,9.7-19,6.2
	s-9.7-12-6.2-19C54.1,52.5,62.6,49.7,69.6,53.3z M96.9,99.5c-7-3.5-9.7-12-6.2-19s12-9.7,19-6.2s9.7,12,6.2,19
	C112.3,100.3,103.8,103.1,96.9,99.5z M58,117.1c-5.6-3.6-7.9-10.8-5.5-17c3.3-8.4,13.3-11.6,20.8-6.8c5.6,3.6,7.9,10.8,5.5,17
	C75.5,118.6,65.5,121.9,58,117.1z"/>
</svg>
