<!-- Generator: Adobe Illustrator 18.0.0, SVG Export Plug-In  -->
<svg version="1.1"
	 xmlns="http://www.w3.org/2000/svg" xmlns:xlink="http://www.w3.org/1999/xlink" xmlns:a="http://ns.adobe.com/AdobeSVGViewerExtensions/3.0/"
	 x="0px" y="0px" width="547.8px" height="462.4px" viewBox="0 0 547.8 462.4" enable-background="new 0 0 547.8 462.4"
	 xml:space="preserve">
<defs>
</defs>
<polygon fill="#999999" points="547.8,453.3 0,462.4 0,0 547.8,0 "/>
<rect x="100.7" y="117.4" fill="#191919" width="324.2" height="53.4"/>
<path fill="#626267" d="M423.8,170.8H101.5l-21.3,18.7c0,0,87,3.8,183.4,3.8s183.8-3.8,183.8-3.8L423.8,170.8z"/>
<path fill="#605C5A" d="M425.2,117.4H101.5L80.1,98.8c0,0,89.3-5.3,182.7-5.3s184.5,5.3,184.5,5.3L425.2,117.4z"/>
<path fill="#75716F" d="M103,171.6l-21.3,19.2c0,0-13-22.9-13-46.8s13-46.8,13-46.8l21.3,22.3V171.6z"/>
<path fill="#89817F" d="M425.2,116.6l21.3-17.9c0,0,13,22.2,13,45.3s-13,45.3-13,45.3l-21.3-18.6V116.6z"/>
<circle fill="#1C2538" cx="490.5" cy="62.4" r="22.8"/>
<path fill="#B0BCD4" d="M482.4,62.4c0,9.3,15,16.9,5.6,16.9c-9.3,0-16.9-7.6-16.9-16.9s7.6-16.9,16.9-16.9
	C497.4,45.6,482.4,53.1,482.4,62.4z"/>
<circle fill="#90D002" cx="36.7" cy="62.4" r="9.9"/>
</svg>
