<!-- Generator: Adobe Illustrator 18.0.0, SVG Export Plug-In  -->
<svg version="1.1"
	 xmlns="http://www.w3.org/2000/svg" xmlns:xlink="http://www.w3.org/1999/xlink" xmlns:a="http://ns.adobe.com/AdobeSVGViewerExtensions/3.0/"
	 x="0px" y="0px" width="147.4px" height="72px" viewBox="0 0 147.4 72" enable-background="new 0 0 147.4 72" xml:space="preserve"
	>
<defs>
</defs>
<g>
	<path fill="#FFFFFF" stroke="#BCBEC0" stroke-width="0.5" d="M137.4,58.6L137.4,58.6C137.4,58.6,137.4,58.6,137.4,58.6L137.4,58.6z
		 M88.9,27.2C88.9,27.2,88.9,27.2,88.9,27.2C89,27.2,89,27.2,88.9,27.2L88.9,27.2z M144.7,40.2c-0.9-0.7-1.1-0.8-6.8-2.7
		c4.9-1.2,5.1-1.3,6-1.9c2-1.3,3-3.5,2.9-5.9l0-0.3c-0.4-3.8-5.4-11.1-8.7-12.7c-2.2-1.1-4.6-0.9-6.6,0.4c-0.9,0.6-1,0.7-4.7,5.8
		c-0.4-5.9-1.1-16.4-1.2-17.4l0-0.2l-0.1-0.2c-0.6-2.3-2.4-4-4.8-4.6c-4-1-14.5,2-17.4,4.9c-1.7,1.7-2.3,4.1-1.7,6.3l0.1,0.4
		l0.2,0.4c0.3,0.6,1,1.7,7.1,11.3l2.3,3.6c-5.5-2.2-5.7-2.2-6.8-2.3c-2.2-0.1-4.3,1.1-5.6,3.1l0,0c-0.7,1.1-1.1,2.6-1.3,4.1
		c-1.8-2.4-4.4-4.3-8.4-5.1c-2.9-0.6-5.5-0.2-8.1,0.8c-2.3-1.5-5.5-1.6-8.1-0.1c-0.8,0.5-1.4,1-1.9,1.6v-3.3l-0.3-1.9L70.5,24
		c-0.5-2.1-2.1-3.9-4.2-4.7l0,0c-2.3-0.9-4.9-0.7-7.2,0.6c-2.4,1.4-3.6,3.7-3.6,6.9v6.6c-0.8-1.3-1.9-2.4-3.1-3.4
		c-3.3-2.5-7.8-3.4-12.9-2.5c-3,0.5-5.4,1.8-7.4,3.7c0-0.1-0.1-0.1-0.1-0.2c-1-1.8-2.6-3-4.7-3.5c-3.4-0.9-7.8,0.2-9.6,6.4
		c0,0-0.3,1-0.7,2.4c-0.8-1.5-2.8-5.4-2.9-5.5c-1.8-2.8-5.5-4-8.9-2.7c-3.2,1.2-5,4-5,7.3c0,1,0.2,2.1,0.6,3.2l0.1,0.3
		c0,0,6.6,13.4,8.5,17.2c-3.1,0.8-5.2,3.1-5.6,6.2c0,0.3-0.1,0.6-0.1,0.9c0,2,0.8,3.9,2.3,5.3c2.3,2.1,5.9,2.8,10.1,2
		c4.6-0.9,7.2-3.6,9-9.5l2.8-8.8c0.9,3.7,2.6,6.1,4.1,7.7c2.3,2.2,6.4,4.7,13.2,3.8c5.1-0.7,8.6-3,10.5-5.7l0.1,0.6
		c0.5,1.9,2,3.6,4,4.5c2.1,1,4.5,0.9,6.6,0c1.1-0.5,2-1.2,2.7-2.2v2.8c0,4.6,2.6,6.5,4.2,7.3c2.1,1,4.5,1.1,6.7,0.2
		c2-0.9,3.5-2.5,4.1-4.6l0.1-0.3l0.3-1.9c0,0,0-0.7,0-0.8c2.8,0.3,5.6-0.2,8.1-1.5c1.1-0.6,2.1-1.3,3-2.1h1.9c1,0.5,2.2,0.9,3.4,0.9
		c1.2,0,2.4-0.3,3.4-0.9h5.4c3.6,2,8.8,3.5,11.6,3.1c2.4-0.4,4.3-2,5.1-4.1l0-0.1c0.3-1,0.4-1.2,0.4-6.7c3.1,4.9,3.2,5.1,4.1,5.7
		c1.8,1.4,4.3,1.8,6.5,0.9c3.6-1.4,9.1-8.4,9.6-12.3c0-0.3,0.1-0.7,0.1-1C147.1,43.3,146.3,41.5,144.7,40.2z"/>
	<g>
		<g>
			<path fill="#E6E7E8" d="M102,32.5c-0.9,1.4-1.2,5.8-0.9,8.7c0.1,1,0.3,1.8,0.5,2.2c0.3,0.7,0.9,1.1,1.6,1.1
				c0.4,0,0.7-0.1,8.7-2.6c0,0,3.6-1.1,3.6-1.1c0.9-0.2,1.5-1,1.6-2.1c0.1-1.1-0.5-2-1.4-2.4c0,0-2.5-1-2.5-1
				c-8.6-3.6-9-3.7-9.5-3.7C103,31.5,102.4,31.9,102,32.5z"/>
			<path fill="#E6E7E8" d="M121.3,59.1c0.1-0.4,0.2-0.7,0.2-9.1c0,0,0-3.7,0-3.8c0.1-0.9-0.5-1.7-1.5-2.1c-1-0.4-2.1-0.2-2.7,0.6
				c0,0-1.8,2.1-1.8,2.1c-6.1,7.1-6.3,7.4-6.5,7.9c-0.1,0.2-0.1,0.5-0.1,0.8c0,0.4,0.2,0.8,0.5,1.1c1.4,1.7,8.1,4.1,10.3,3.8
				C120.5,60.1,121.1,59.7,121.3,59.1z"/>
			<path fill="#E6E7E8" d="M135,56.1c2-0.8,6.5-6.4,6.8-8.6c0.1-0.8-0.1-1.4-0.7-1.8c-0.3-0.3-0.6-0.4-8.6-3c0,0-3.5-1.2-3.6-1.2
				c-0.9-0.3-1.8,0-2.5,0.8c-0.7,0.8-0.8,1.9-0.2,2.7l1.4,2.3c4.8,7.8,5.1,8.3,5.5,8.6C133.6,56.3,134.3,56.4,135,56.1L135,56.1z"/>
			<path fill="#E6E7E8" d="M130.8,36.2c9.1-2.2,9.5-2.3,9.9-2.6c0.6-0.4,0.8-1,0.8-1.8c0,0,0,0,0-0.1c-0.2-2.2-4.2-8.1-6.1-9
				c-0.7-0.3-1.4-0.3-1.9,0.1c-0.4,0.2-0.6,0.6-5.5,7.3c0,0-2.2,3-2.2,3c-0.6,0.7-0.6,1.7,0,2.6c0.6,0.9,1.6,1.3,2.5,1.1
				c0,0,0,0.1-0.1,0.1C128.5,36.7,129.3,36.5,130.8,36.2z"/>
			<path fill="#E6E7E8" d="M121.6,28.6L121.6,28.6c-0.2-3.6-1.2-19.7-1.4-20.5c-0.2-0.7-0.7-1.2-1.5-1.4c-2.3-0.6-11.2,1.9-12.9,3.6
				c-0.5,0.5-0.7,1.2-0.6,1.8c0.3,0.5,11.3,17.9,11.3,17.9c1.6,2.7,3,2.2,3.4,2.1C120.5,32.1,121.8,31.7,121.6,28.6z"/>
		</g>
	</g>
	<g>
		<g>
			<path fill="#B3282D" d="M102.7,30.7c-0.9,1.4-1.2,5.8-0.9,8.7c0.1,1,0.3,1.8,0.5,2.2c0.3,0.7,0.9,1.1,1.6,1.1
				c0.4,0,0.7-0.1,8.7-2.6c0,0,3.6-1.1,3.6-1.1c0.9-0.2,1.5-1,1.6-2.1c0.1-1.1-0.5-2-1.4-2.4c0,0-2.5-1-2.5-1
				c-8.6-3.6-9-3.7-9.5-3.7C103.7,29.7,103.1,30,102.7,30.7z"/>
			<path fill="#B3282D" d="M122,57.2c0.1-0.4,0.2-0.7,0.2-9.1c0,0,0-3.7,0-3.8c0.1-0.9-0.5-1.7-1.5-2.1c-1-0.4-2.1-0.1-2.7,0.6
				c0,0-1.8,2.1-1.8,2.1c-6.1,7.1-6.3,7.4-6.5,7.9c-0.1,0.3-0.1,0.5-0.1,0.8c0,0.4,0.2,0.7,0.5,1.1c1.4,1.7,8.1,4.1,10.3,3.8
				C121.3,58.3,121.8,57.9,122,57.2z"/>
			<path fill="#B3282D" d="M135.7,54.3c2-0.8,6.5-6.4,6.8-8.6c0.1-0.8-0.1-1.4-0.6-1.8c-0.3-0.3-0.6-0.4-8.6-3c0,0-3.5-1.2-3.6-1.2
				c-0.9-0.3-1.8,0-2.5,0.8c-0.7,0.8-0.8,1.9-0.2,2.7l1.4,2.3c4.8,7.8,5.1,8.3,5.5,8.6C134.3,54.5,135,54.6,135.7,54.3L135.7,54.3z"
				/>
			<path fill="#B3282D" d="M131.5,34.3c9.1-2.2,9.5-2.3,9.9-2.6c0.6-0.4,0.8-1,0.8-1.8c0,0,0,0,0-0.1c-0.2-2.2-4.2-8.1-6.1-9
				c-0.7-0.3-1.4-0.3-1.9,0.1c-0.4,0.2-0.6,0.6-5.5,7.3c0,0-2.2,3-2.2,3c-0.6,0.7-0.6,1.7,0,2.6c0.6,0.9,1.6,1.3,2.5,1.1
				c0,0,0,0.1,0,0.1C129.3,34.9,130.1,34.7,131.5,34.3z"/>
			<path fill="#B3282D" d="M122.4,26.8L122.4,26.8c-0.2-3.6-1.2-19.7-1.4-20.5c-0.2-0.7-0.7-1.2-1.5-1.4c-2.3-0.6-11.2,1.9-12.9,3.6
				c-0.5,0.6-0.7,1.2-0.6,1.8c0.3,0.5,11.3,17.9,11.3,17.9c1.6,2.6,3,2.2,3.4,2.1C121.2,30.3,122.5,29.9,122.4,26.8z"/>
		</g>
	</g>
	<g>
		<g>
			<path d="M9.2,65c1.2,1.1,3.3,1.4,6,0.8c2.5-0.5,4-1.6,5.5-6.3l7.4-23.2c0.4-1.2,0.4-2.3-0.1-3.1c-0.4-0.6-0.9-1.1-1.8-1.3
				c-1.3-0.4-3-0.3-4,3.2l-3.9,13.2c0,0-7.9-14.9-7.9-14.9c-0.5-1-2-1.7-3.4-1.1C5.1,33,4.4,34.8,5.2,37c0,0,9.6,19.5,9.6,19.6
				c0,0,0.3,0.7,0.3,0.8c0,0,0.1,0.5,0.1,0.5c0,0.8-0.3,1.4-0.7,1.8c-0.4,0.4-1.1,0.6-1.8,0.6c0,0-1.5,0-1.6,0
				c-1.5,0.2-2.5,1.1-2.7,2.4C8.3,63.7,8.6,64.4,9.2,65z"/>
			<path d="M53.3,41.2c-0.3-3.3-1.6-6-3.7-7.6c-2.3-1.7-5.5-2.3-9.2-1.6c-4.7,0.8-7.6,4.2-8.2,9.8c-0.8,6.7,0.3,11.7,3.2,14.6
				c2.2,2.2,5.4,3,9.4,2.5c5.6-0.8,8.1-3.9,8.1-5.8c0-1.4-0.9-2.6-2.1-2.7c-0.7-0.1-1.3,0-2.7,1.2c-2,1.7-4.2,2.4-6.2,1.9
				c-1.5-0.4-2.7-1.4-3.3-2.9c0,0-0.2-1-0.2-0.9c-0.2-0.9-0.2-1.7,0.3-2.1l0.1-0.1H51c1.1,0,1.7-0.1,2-0.5
				C53.7,46.4,53.6,44.2,53.3,41.2z M47,43H36.8c-0.3-0.2-0.4-0.5-0.2-1.6c0.1-0.5,0.3-1,0.7-1.7c0.1-0.2,0.3-0.4,0.4-0.6
				c0.8-1,1.8-1.6,2.9-1.8c3.6-0.9,6.1,0.9,6.5,4.1C47.3,42.8,47.2,43,47,43z"/>
			<path d="M64.5,23.5c-1-0.4-2.1-0.3-3,0.3c-0.9,0.5-1.3,1.4-1.3,2.9v29.4c0,0,0.2,1,0.2,1.1c0.2,0.7,0.8,1.4,1.5,1.7
				c0.8,0.4,1.8,0.4,2.7,0c1.1-0.5,1.7-1.5,1.7-2.9V26.6c0,0-0.2-1.4-0.2-1.4C65.8,24.4,65.3,23.8,64.5,23.5z"/>
			<path d="M88,31.8c-2.7-0.6-5.1-0.1-7.3,1.4c0,0-0.3,0.2-0.3,0.3l-0.2,0.1l-0.6,0.3l-0.2-0.7l-0.1-0.2l-0.1-0.2l0,0
				c0,0-0.1-0.2-0.2-0.2c-0.6-1-2.4-1.5-4-0.6c-0.8,0.4-1.2,1.1-1.2,2.9v28.8c0,1.6,0.5,2.6,1.6,3.1c0.9,0.5,1.9,0.5,2.8,0.1
				c0.8-0.3,1.3-0.9,1.5-1.6l0.2-1.2v-5l0-0.8l0-0.2l0-0.1l0.3-0.9l0.9,0.6c0,0,0.2,0.1,0.3,0.3l0.3,0.2c0,0,0.3,0.2,0.3,0.2
				c0,0,0.3,0.1,0.3,0.1c2.4,1.1,5.7,1,8.3-0.3c3.3-1.7,4.9-4.7,5.3-9.8C96.6,37.9,94.3,33,88,31.8z M87.7,53.3
				c-4.1,0-4.7-3.6-4.8-6.3c0,0-0.1-1.6-0.1-1.6s0-1.2,0-1.2c0.3-4.7,1.2-6.6,3.7-7.1c1.7-0.4,2.9-0.2,3.9,0.6
				c1.4,1.2,2.1,3.6,2,7.7C92.5,50.2,91.7,53.3,87.7,53.3z"/>
		</g>
	</g>
	<g>
		<path d="M101,54c0.9,0,1.7,0.7,1.7,1.7c0,1-0.8,1.7-1.7,1.7c-0.9,0-1.7-0.7-1.7-1.7C99.3,54.7,100.1,54,101,54z M101,57.1
			c0.8,0,1.4-0.6,1.4-1.5c0-0.8-0.6-1.4-1.4-1.4c-0.8,0-1.4,0.6-1.4,1.5C99.6,56.5,100.2,57.1,101,57.1z M100.4,54.7h0.7
			c0.5,0,0.7,0.2,0.7,0.6c0,0.3-0.2,0.5-0.5,0.5l0.6,0.9h-0.3l-0.5-0.8h-0.4v0.8h-0.3V54.7z M100.7,55.6h0.3c0.3,0,0.5,0,0.5-0.3
			c0-0.3-0.2-0.3-0.4-0.3h-0.4V55.6z"/>
	</g>
</g>
</svg>
