<?xml version="1.0" encoding="utf-8"?>
<!-- Generator: Adobe Illustrator 18.0.0, SVG Export Plug-In . SVG Version: 6.00 Build 0)  -->
<!DOCTYPE svg PUBLIC "-//W3C//DTD SVG 1.1//EN" "http://www.w3.org/Graphics/SVG/1.1/DTD/svg11.dtd">
<svg version="1.1" id="Layer_1" xmlns="http://www.w3.org/2000/svg" xmlns:xlink="http://www.w3.org/1999/xlink" x="0px" y="0px"
	 viewBox="-101.4 0 1061.7 518.4" enable-background="new -101.4 0 1061.7 518.4" xml:space="preserve">
<g id="bkgd" display="none">
	<rect x="255.6" y="120.2" display="inline" fill="#2580AA" width="745.1" height="444.5"/>
</g>
<g id="Layer_11" display="none">
	<g id="ZdVMCK_1_" display="inline">
		
			<image overflow="visible" enable-background="new    " width="710" height="475" id="ZdVMCK_3_" xlink:href="80FC38D519362C9B.jpeg"  transform="matrix(0.3869 0 0 0.385 770.5801 333.5964)">
		</image>
	</g>
	<g id="OSBCFu_1_" display="inline">
		
			<image overflow="visible" enable-background="new    " width="268" height="189" id="OSBCFu_3_" xlink:href="80FC38D519362C99.jpeg"  transform="matrix(0.7812 0 0 0.7771 861.5917 169.5964)">
		</image>
	</g>
	<g id="mbKGOr_1_" display="inline">
		
			<image overflow="visible" enable-background="new    " width="404" height="271" id="mbKGOr_3_" xlink:href="80FC38D519362C9F.jpeg"  transform="matrix(0.2376 0 0 0.2365 658.0126 216.948)">
		</image>
	</g>
	<g id="mGmEBY_1_" display="inline">
		
			<image overflow="visible" enable-background="new    " width="551" height="366" id="mGmEBY_3_" xlink:href="80FC38D519362C99.jpeg"  transform="matrix(0.5618 0 0 0.5628 643.6478 -30.9667)">
		</image>
	</g>
	<g id="_x37_yX0mE_1_" display="inline">
		
			<image overflow="visible" enable-background="new    " width="275" height="183" id="_x37_yX0mE_2_" xlink:href="80FC38D519362C9B.jpeg"  transform="matrix(-0.661 0 0 0.661 480.5056 363.0333)">
		</image>
	</g>
</g>
<g id="images" display="none">
	<g id="hgqPPR_1_" display="inline">
		
			<image overflow="visible" enable-background="new    " width="225" height="225" id="hgqPPR_3_" xlink:href="80FC38D519362C99.jpeg"  transform="matrix(-1.5998 0 0 1.5998 937.9513 200.6141)">
		</image>
	</g>
	<g id="R2Yxqx_1_" display="inline">
		
			<image overflow="visible" enable-background="new    " width="319" height="160" id="R2Yxqx_3_" xlink:href="80FC38D519362CA7.jpeg"  transform="matrix(0.9969 0 0 0.9937 1000.6405 354.9066)">
		</image>
	</g>
	<g id="vyAUYj_1_" display="inline">
		
			<image overflow="visible" enable-background="new    " width="401" height="421" id="vyAUYj_3_" xlink:href="80FC38D519362CA9.jpeg"  transform="matrix(0.9975 0 0 0.9976 536.4293 647.5685)">
		</image>
	</g>
	<g id="n8oLnq_1_" display="inline">
		
			<image overflow="visible" enable-background="new    " width="401" height="421" id="n8oLnq_3_" xlink:href="80FC38D519362CAB.jpeg"  transform="matrix(0.9975 0 0 0.9976 1609.9363 543.0756)">
		</image>
	</g>
	<g id="oQ07uo_1_" display="inline">
		
			<image overflow="visible" enable-background="new    " width="271" height="193" id="oQ07uo_2_" xlink:href="A47436CCA4D47278.jpeg"  transform="matrix(0.1015 0 0 0.1018 27.5542 518.3369)">
		</image>
	</g>
	<g id="f5Mqt6_1_" display="inline">
		
			<image overflow="visible" enable-background="new    " width="291" height="174" id="f5Mqt6_2_" xlink:href="A47436CCA4D47278.jpeg"  transform="matrix(0.5261 0 0 0.5279 -21.4982 670.1047)">
		</image>
	</g>
	<g id="ZazR74_1_" display="inline">
		
			<image overflow="visible" enable-background="new    " width="247" height="208" id="ZazR74_2_" xlink:href="A47436CCA4D47278.jpeg"  transform="matrix(0.4382 0 0 0.4376 -277.1871 569.2051)">
		</image>
	</g>
	<g id="_x38_oYl0z_1_" display="inline">
		
			<image overflow="visible" enable-background="new    " width="244" height="210" id="_x38_oYl0z_2_" xlink:href="A47436CCA4D47278.jpeg"  transform="matrix(0.3442 0 0 0.3453 -154.5499 652.3916)">
		</image>
	</g>
</g>
<g id="separate_all" display="none">
	<path display="inline" fill="#2580AA" d="M783.2,132c3.1,0,4.5,1,7.2,0c3.6-1.3,4.6-7.1,4.3-9.3c-0.1-0.8-6.6-4.4-4.6-3.4
		c1,0.5,5,0.5,5.6-0.8c0.9-1.7-0.6-3.5-0.5-5.6c0.1-1.8,4.5-1.1,4.5-3.4c0-3.7-4.5-6.2-5.1-9.5c-0.4-2.3,2.8-5.1,2.2-7.1
		c-3.3-10.1-12-16.8-24.4-16.8c-18.5,0-25.1,15.2-25.1,33.9c0,1.6-0.1,3-0.2,4.3c-0.6,7.2,2.1,12.9,4.9,14.2
		c0.9,0.4,6.4,1.3,9.3,3.9C767.7,138.3,781.1,132,783.2,132z"/>
	<path display="inline" fill="#2580AA" d="M760.1,130.9c-6.1,4.8-11.6,10.1-11.6,18.6c0,4.7,3.2,21.1-1.1,29.2
		c-7.8,14.6,13,30.3,29.1,30.3c16.1,0,24.8-6.8,24.8-23.6c0-8.6-4.8-21.9-4.6-28.6c0.2-1.4,0.3-2.8,0.3-4.2c0-6.7-13.1-16.1-17-20.7
		L760.1,130.9z"/>
	<path display="inline" fill="#2580AA" d="M606.1,354.7c-3.4-36.1-2-39.8,6.6-80.3c8.1-38,21.8-76.5,41.9-111.4
		c-22.9,35.2-41.1,78.6-51.4,127c-7.7,36.3-9.5,36-7.5,69.1"/>
	<path display="inline" fill="#2580AA" stroke="#FFFFFF" stroke-miterlimit="10" d="M666.5,391.9"/>
	<path display="inline" fill="#2580AA" stroke="#FFFFFF" stroke-miterlimit="10" d="M666.5,296.8"/>
	<path display="inline" fill="#2580AA" d="M318.9,24.4c2.5-0.3,3.9-0.7,3.9-1.1c0-1.3-14.8-2.3-33.2-2.3s-33.2,1-33.2,2.3
		c0,0.5,2,0.9,5.6,1.3c-8.6,5.4-14,13.3-14,22c0,16.4,19.1,29.7,42.6,29.7s42.6-13.3,42.6-29.7C333.3,37.7,327.7,29.8,318.9,24.4z"
		/>
	<g display="inline">
		<path fill="#2580AA" d="M667.9,413.2c-2.8-156.7-7.3-250.4-13.1-250.4c-0.1,0-0.1,0-0.2,0.1c6.3,2.4,11.1,119.4,13.8,309.3"/>
	</g>
	<path display="inline" fill="#2580AA" d="M9.2,519.7c-0.1-6.5-0.9-11-7.5-11c-0.1,0,0.6-2.5,0.5-2.5c0.7-0.8-2.2-7.5-4.7-7.5
		c-1.4,0-0.8,3.7-1.6,4.8c-1.3-1.1-3.4-4.8-5.2-4.8c-4.1,0-5.1,12.9,0.8,16c0.3,0.1-0.8,5.5-0.8,7.1c0,3.6,4.7-1.9,4.7-0.9
		c0,4.6,15.5,10.3,15.5,10.3s-4.9-6-4.3-6c3.8,0,9.5,1.3,9.5,1.3S12.1,520.5,9.2,519.7z"/>
	<path display="inline" fill="#2580AA" d="M487.1,29.5c-0.2-0.8-0.6-6-1.3-6.5c-1.5-1-3.2,5.6-3.1,5.7c-0.9,0.2-3.2,6.6-6.6,3.2
		c0.1-1.6-0.8-6.6-2.3-11.8c0,0,0,0,0,0c3-4.5,1.8-10.6-2.8-13.6c-2.2-1.5-4.8-1.9-7.3-1.5c-2.2-1.2-4.5-2.3-5-2.7
		c-4.6-3.1-12.8-2.6-14,2.8c-1.1,5.2,9.4,9,9.4,9s-15.4-4.6-6.6,5c0,0,0,0,0,0c0,0.2,0.1,0.5,0.3,0.9c-1.3,0.3-2.6,1.1-2.9,1.7
		c-0.6,1.2,0.4,4.8,2.1,6.7c1.2,1.4,2.5-1.6,3.3-3.7c3.4,5.5,8.9,12.9,11.1,14.4c2.7,1.8,10.8,10.1,25.1-4.6
		c0.3-0.3,4.7-1.1,6.2-2.8C496.9,26.9,488.5,28.8,487.1,29.5z M454.9,8.5c-0.8-0.5-1-1.6-0.5-2.3s1.6-1,2.3-0.5s1,1.6,0.5,2.3
		S455.7,9,454.9,8.5z"/>
	<path display="inline" fill="#2580AA" d="M523.1,25c5.1,0.8,7.1-4.9,5.4-6.8c-1.7-1.9-6.9,1.2-8.1,0.5c-4.1-2.3-9.3-7.6-12.7-2.4
		c-1.2,1.8-2.5,3.3-2.7,5.2c-1.6-1.4-4.5-2.6-5.9-1.6c-4.1,3.1,2.2,8.3,3.5,9.6c1.8,1.8,1.2,3.1-0.3,4.3c-2,1.5,2.3,1.5,4.4,0.6
		c-0.5,1.8-2.1,3.4-3,4.2c-0.4,0.4-0.7,0.9-0.9,1.4c-1.1-1.2-5.9-0.3-7.1,0.8c-1.2,1.1,0.3,3.1,2.6,3.3c1.2,0.1,1.8-0.6,3.2,0.9
		c-0.2,0.7,0.9,2.8,1.4,3.4c0.8,0.9,1.8,0.2,2.7-0.6c0.6-0.6,0.7-4.1,0.5-4.9c1.1-0.5,1.2-0.8,2-1.5c0.2-0.2-0.8,2-0.2,2.6
		c1,1.1,5.2,5.2,5.6,3.7c0.4-1.4,1.5-4.3,0.7-5.4c0.6,0,2.1,1.2,2.4,1.6c0.9,1,2,1.4,2.9,0.6s-0.5-6,0.3-5.8
		c2.7-2.1,5.2-4.4,4.7-6.9c1.3,0.4,3.9,0.5,4.9-0.5c2.9-3,1.2-6-1.3-5.2S522.5,24.9,523.1,25z M516.7,20.8c-0.5,0.4-1.5,0.1-2.3-0.7
		c-0.8-0.8-1-1.9-0.5-2.3c0.5-0.4,1.5-0.1,2.3,0.7C517,19.3,517.2,20.3,516.7,20.8z"/>
	<path display="inline" fill="#2580AA" d="M523.9,320.4c-49.7,0-98-5-144.2-14.5c9,64.3,73.2,114.2,151.2,114.2
		c79.2,0,144.3-51.5,151.6-117.3C631.9,314.3,578.7,320.4,523.9,320.4z"/>
	<path display="inline" fill="#2580AA" d="M237.1,327.6c7.4-46,5.9-50.8-1.7-103.3c-7.8-53.8-23.3-103.4-44.2-146.1
		c26.4,47,46,104.1,55.1,166.9c6.8,47.2,9.1,46.9,3.8,89"/>
	<g display="inline">
		<path fill="#2580AA" d="M190.1,291.3C184.1,158.6,184,79,191.4,78.4c0.1,0,0.2,0,0.3,0c-8,2.7-6.9,102,1.4,262.8"/>
	</g>
	<path display="inline" fill="#2580AA" d="M226.9,254.2c-2.9-4.7,2.3-7.5,2.3-13.4c0-7.8,9.5-29.7,10.9-34.6s0.1-32.9,3.3-38.2
		s2.9-2.9,1.9-5.9c-1.7-5-5.1-8.1-5.6-16.6c-1-17.5,12.5-29.7,24.5-28.3c13.2,1.5,15.3,2.4,20.4,13.3c1.1,2.4-3.5,5.6-3.2,8.4
		c0.2,1.4,3.8,7.5,3.8,8.9c0,2.9-5.2,2.3-5.9,5c-0.2,0.7,3.4,4-0.6,4.7c-1.4,0.2-7.6-2.3-8.8-1.3c-0.6,2.3,8.9,3.2,7.8,5.3
		c-1.4,2.7,0.3,5.2-1.3,6.9s-9.6,0.3-10.8,0.7c2.9,3.2,9.9,19.9,13.3,22.2c0.8-2.3,5.1-3.1,7.1-6c2-2.9,1.6-7.9,3.9-7.9
		c5.2,0,8,4.2,8,9.3c0,5.2-2.8,9.3-8,9.3c-13.3,16.6-13.9,8.4-17.4,8.7c-0.1,6.1-1.5,26.3-1.5,33.4c0,7.8,10.7,14.9,6,20.3
		c3.6,2.7,6,7,6,11.9c0,8.2-6.7,14.9-14.9,14.9c-6.3,0-11.7-3.9-13.9-9.5c-2.6,6.9-9.3,11.8-17.1,11.8c-10.1,0-18.3-8.2-18.3-18.3
		C219,263,222.1,257.5,226.9,254.2z"/>
	<path display="inline" fill="#2580AA" d="M784.4,315.8c-5,0-21.5-2-21.5-2c-3.7-2.7-9.6-16.3-11.3-17.9c0.9-0.3,1.6-0.4,1.9-0.5
		c3,0,4.3,0.9,7,0c3.5-1.2,4.5-6.8,4.1-9c-0.1-0.8-6.4-4.2-4.5-3.3c1,0.4,4.8,0.4,5.4-0.7c0.8-1.6-0.6-3.4-0.4-5.4
		c0.1-1.8,4.3-1,4.3-3.2c0-3.6-4.3-6-4.9-9.2c-0.4-2.2,2.7-4.9,2.1-6.8c-3.2-9.7-11.6-16.2-23.5-16.2c-17.8,0-24.2,14.6-24.2,32.7
		c0,1.6-0.1,2.9-0.2,4.1c-0.5,6.9,2,12.4,4.7,13.7c0.7,0.3,4,0.9,6.7,2.3c-5.4,12.3-1.7,20.3-2.9,28.9c-1.3,8.6-4.2,11.5-4.2,17.9
		c0,7,0.4,12,5.2,16.4c-1.3,1.8-1.4,10.5-0.3,12.2c-1.5,1.3-2.1,7.9-1.5,8.9c-1.8,2.4-2.9,3.1-2.9,6.9c0,3.8,3.1,6.9,6.9,6.9
		c0.7,0,2.2,0.3,2.7,0.2c0.5,2.1,2.4,2.3,4.6,2.3c2.7,0,6.1-0.9,6.1-3.5s-3.4-4.8-6.1-4.8c0,0,0,0-0.1,0c0-2-1-3.8-2.4-4.9
		c2.6-1.1,4.5-7.2,4.4-7.5c3.5-1,6.3-3.7,7.4-7.2c0.8,0.6,0.3,4.9,0.3,7.1c0,3,1.7,5.7,4.1,7.1c-2.1,1.5-3.4,3.9-3.4,6.6
		c0,4.5,3.6,8.1,8.1,8.1c2.3,0,4.4-1,5.9-2.5c0.9,0.8,8.9-1.2,8.9-4.2s-6.9-5.3-7.5-5c-0.7-1.4-1.9-2.6-3.3-3.4
		c2.1-1.5,3.4-3.9,3.4-6.6c0-3.1-1.8-5.8-4.4-7.2c2.7-1.9,0.2-9,0.2-12.5c0-1,1.7-15,1.7-26.2c3.6-0.7,7.5-1.2,11.2-1.4
		c6.3-0.3,14.3,4,14.6,1.2c5-1.5,9-2.2,9-7.7C796.5,313.5,791.3,315.8,784.4,315.8z"/>
	<path display="inline" fill="#2580AA" d="M582.4,143.9c4.8-0.1,16.1,1.8,17.1,1.3c4.2-0.9,12.6-13.3,15.2-13.3
		c2.1,0,4.9-2.1,5.1-6.6c0.1-2.4,6.8-2,6.8-3.2c0-3.3-7.7-2.1-11-1.8c-7.6,0.6-11.1,7.6-16,9.3c-0.4-0.1-9-0.7-12.2-0.7
		c-0.4,0-2.4-1.3-4.8-3.1"/>
	<g id="gHb3f0_1_" display="inline">
		
			<image overflow="visible" enable-background="new    " width="501" height="457" id="gHb3f0_2_" xlink:href="A47436CCA4D47278.jpeg"  transform="matrix(0.998 0 0 0.9978 -111.8078 434.16)">
		</image>
	</g>
	<path display="inline" fill="#2580AA" d="M589.2,280.2c3-2.2,9.8-5.1,11.5-8.4c1.8-3.4-1.5-10.5-1.5-14.7c0-13.6-11-26.8-24.6-26.8
		c-13.6,0-24.6,13.2-24.6,26.8c0,4.5-3.1,12-0.9,15.6c2.1,3.6,9.4,6.7,13.1,8.8c-5.3,2.9-11.8,7.3-14.7,12.7
		c-2.4,4.4-1.6,9.4-1.6,14.7c0,17.2,14,31.2,31.2,31.2c17.2,0,33.2-14,33.2-31.2c0-8.6-0.5-14.5-6.2-20.1
		C601.3,286.1,592.9,281.8,589.2,280.2z"/>
	<path display="inline" fill="#2580AA" d="M463.1,264c-29.9-41.1-81.2-55.5-118.1-34.4c0.1,0.1,0.2,0.2,0.4,0.3
		c37.1-17.9,86.3-2,114.4,38.8c26.5,38.5,25.7,86.5,0.5,115.6c0.2,0.5,0.4,0.9,0.6,1.4C490.9,356.7,492.5,304.5,463.1,264z"/>
	<g display="inline">
		<path fill="#2580AA" d="M297,475c35.3-152.7,53.7-244.7,48.1-246.1c-0.1,0-0.1,0-0.2,0c5.6,3.9-18.2,118.5-61.7,303.5"/>
	</g>
	<path display="inline" fill="#2580AA" d="M518.2,243.6c-3.6-4.3-7.2-9.1-6.8-11.3c1.1-5.2,5.5-10.1,5-18.6
		c-1-17.4-15.3-28.6-27.3-29c-10.1-0.3-17.6,5.4-21.4,16.9c-0.8,2.5,4.1,5.1,4.1,7.9c0,1.4-2.9,7.9-2.7,9.3c0.3,2.9,5.4,1.7,6.4,4.3
		c0.3,0.7-2.9,4.4,1.1,4.6c1.4,0.1,9.3-3.8,10.5-2.9c0.3,12-9.4,8.7-8.1,10.7c1.7,2.5,0.3,5.2,2.1,6.7c1.8,1.5,9.6-0.8,10.8-0.6
		c-0.7,1-5.7,3-7.2,7.2c-1.9,5.6-3,12.8-4.5,16.3c0,0-8.5-3.6-13.2-6c-5-9.3-15.1-6.3-16.4-6.3c-6.6,0-2.2,1.7-2.2,8.3
		c0,2.4,6.4,2.5,10.2,4.6c6.9,3.9,15.3,16,24,16.2c3,0.1,7.1-5,9.3-7.2c1.3,2.6-9.3,39.7-9.3,51c0,15.5,4.3,12.1,19.8,12.1
		s33.2-1.3,33.2-16.8c0-8.7-5.1-38.3-5.1-47.7C530.6,263.2,521.8,247.9,518.2,243.6z"/>
</g>
<g id="blue_boat">
</g>
<g id="dock">
</g>
<g id="fish" display="none">
	<path display="inline" fill="#F5F8FA" d="M397.2,311.6c-0.2-0.8-0.6-6-1.3-6.5c-1.5-1-3.2,5.6-3.1,5.7c-0.9,0.2-3.2,6.6-6.6,3.2
		c0.1-1.6-0.8-6.6-2.3-11.8c0,0,0,0,0,0c3-4.5,1.8-10.6-2.8-13.6c-2.2-1.5-4.8-1.9-7.3-1.5c-2.2-1.2-4.5-2.3-5-2.7
		c-4.6-3.1-12.8-2.6-14,2.8c-1.1,5.2,9.4,9,9.4,9s-15.4-4.6-6.6,5c0,0,0,0,0,0c0,0.2,0.1,0.5,0.3,0.9c-1.3,0.3-2.6,1.1-2.9,1.7
		c-0.6,1.2,0.4,4.8,2.1,6.7c1.2,1.4,2.5-1.6,3.3-3.7c3.4,5.5,8.9,12.9,11.1,14.4c2.7,1.8,10.8,10.1,25.1-4.6
		c0.3-0.3,4.7-1.1,6.2-2.8C407,309.1,398.6,310.9,397.2,311.6z M365,290.6c-0.8-0.5-1-1.6-0.5-2.3s1.6-1,2.3-0.5s1,1.6,0.5,2.3
		C366.8,291,365.8,291.2,365,290.6z"/>
</g>
<g id="white_person-joined" display="none">
	<path display="inline" fill="#FFFFFF" d="M519.1,304.2c6.3-0.3,14.3,4,14.6,1.2c4.2-1.3,7.6-2,8.7-5.4c3.4-0.5,7-1.1,11.1-1.8
		c41.8-6.7,82.3-6.7,118.8-1.1c6.2,4.9,13,54.4,19.3,132.8l-1.8-25.5c-6-67.6-12.4-107.9-18.2-107.8c-0.1,0-0.1,0-0.2,0
		c0.3,0,0.6,0.2,0.8,0.4c-39.3-8.3-84-9.9-130.6-3.2c-1.8-2.1-6-0.9-11-0.9c-3.2,0-11.4-0.9-16.7-1.4c0-0.4,0-0.8,0-1.2
		c0-6.1-10.8-14.4-15.7-19.3c0.9-0.3,1.6-0.5,2-0.5c3.1,0,4.5,1,7.2,0c3.6-1.3,4.6-7.1,4.3-9.3c-0.1-0.8-6.6-4.4-4.6-3.5
		c1,0.5,5,0.5,5.6-0.8c0.9-1.7-0.6-3.5-0.5-5.6c0.1-1.8,4.5-1.1,4.5-3.4c0-3.7-4.5-6.2-5.1-9.5c-0.4-2.3,2.8-5.1,2.2-7.1
		c-3.3-10.1-12-16.8-24.4-16.8c-18.5,0-25.1,15.2-25.1,33.9c0,1.6-0.1,3-0.2,4.3c-0.6,7.2,2.1,12.9,4.9,14.2c0.7,0.3,4.1,0.9,7,2.4
		c-5.7,4.6-10.6,9.7-10.6,17.8c0,4.7,3.2,21.1-1.1,29.2c-0.9,1.6-1.3,3.2-1.6,4.8c-1.2,0-2.5,0-3.7,0c-10.4,0-20.8-0.2-31.1-0.7
		c0-0.2,0.1-0.3,0.2-0.3c2.7-2.1,5.2-4.4,4.7-6.9c1.3,0.4,3.9,0.5,4.9-0.5c2.9-3,1.2-6-1.3-5.2s-5.7-0.9-5.1-0.8
		c5.1,0.8,7.1-4.9,5.4-6.8c-1.7-1.9-6.9,1.2-8.1,0.5c-4.1-2.3-9.3-7.6-12.7-2.4c-1.2,1.8-2.5,3.3-2.7,5.2c-1.6-1.4-4.5-2.6-5.9-1.6
		c-4.1,3.1,2.2,8.3,3.5,9.6c1.8,1.8,1.2,3.1-0.3,4.3c-2,1.5,2.3,1.5,4.4,0.6c-0.4,1.4-1.4,2.6-2.3,3.5c-6.2-0.4-12.3-0.9-18.4-1.4
		c0.7-0.6,1.4-1.3,2.1-2.1c0.3-0.3,4.7-1.1,6.2-2.8c4-4.6-4.4-2.8-5.7-2.1c-0.2-0.8-0.6-6-1.3-6.5c-1.5-1-3.2,5.6-3.1,5.7
		c-0.9,0.2-3.2,6.6-6.6,3.2c0.1-1.6-0.8-6.6-2.3-11.8c0,0,0,0,0,0c3-4.5,1.8-10.6-2.8-13.6c-2.2-1.5-4.8-1.9-7.3-1.5
		c-2.2-1.2-4.5-2.3-5-2.7c-4.6-3.1-12.8-2.6-14,2.8c-1.1,5.2,9.4,9,9.4,9s-15.4-4.6-6.6,5c0,0,0,0,0,0c0,0.2,0.1,0.5,0.3,0.9
		c-1.3,0.3-2.6,1.1-2.9,1.7c-0.6,1.2,0.4,4.8,2.1,6.7c1.2,1.4,2.5-1.6,3.3-3.7c1.7,2.8,4,6,6.1,8.8c-17.4-2.2-34.6-5.1-51.5-8.6
		c9,64.3,73.2,114.2,151.2,114.2c79.2,0,144.3-51.5,151.6-117.3c-32.3,7.3-65.6,12.4-99.8,15.2c-0.6-4.4-1.8-9.4-2.8-14
		C516.5,304.8,517.8,304.5,519.1,304.2z M422.5,299.8c0.5-0.4,1.5-0.1,2.3,0.7c0.8,0.8,1,1.9,0.5,2.3c-0.5,0.4-1.5,0.1-2.3-0.7
		S422,300.3,422.5,299.8z M365,290.6c-0.8-0.5-1-1.6-0.5-2.3s1.6-1,2.3-0.5s1,1.6,0.5,2.3C366.8,291,365.8,291.2,365,290.6z"/>
</g>
<g id="white_water" display="none">
	<g display="inline">
		<path fill="#FFFFFF" d="M800,354.1c-8.6,0-16.5-2.8-22.8-7.6c-6.3,4.8-14.2,7.6-22.8,7.6c-12.6,0-23.7-6.1-30.6-15.5
			c-6.9,9.4-18,15.5-30.6,15.5c-10.3,0-19.6-4.1-26.4-10.8c-6.8,6.7-16.1,10.8-26.4,10.8c-6.9,0-13.3-1.9-18.9-5.1
			c-5.6,3.2-12,5.1-18.9,5.1c-10.7,0-20.3-4.4-27.2-11.5c-6.9,7.1-16.5,11.5-27.2,11.5c-11,0-20.8-4.7-27.7-12.1
			c-6.9,7.4-16.8,12.1-27.7,12.1c-8.6,0-16.5-2.8-22.8-7.6c-6.3,4.8-14.2,7.6-22.8,7.6c-12.6,0-23.7-6.1-30.6-15.5
			c-6.9,9.4-18,15.5-30.6,15.5c-10.3,0-19.6-4.1-26.4-10.8c-5.5,5.4-12.6,9.1-20.5,10.3c-1.9,0.3-3.9,0.5-5.9,0.5"/>
	</g>
	<rect x="298.1" y="353.9" display="inline" fill="#FFFFFF" width="603.8" height="192.5"/>
</g>
<g id="wateronly" display="none">
	<g display="inline">
		<path fill="#2580AA" d="M672.4,355.6c-7.2,0-13.8-2.4-19.2-6.4c-5.3,4-12,6.4-19.2,6.4c-10.6,0-19.9-5.1-25.7-13.1
			c-5.8,7.9-15.1,13.1-25.7,13.1c-8.7,0-16.5-3.5-22.2-9.1c-5.7,5.6-13.6,9.1-22.2,9.1c-5.8,0-11.2-1.6-15.9-4.3
			c-4.7,2.7-10.1,4.3-15.9,4.3c-9,0-17.1-3.7-22.9-9.7c-5.8,6-13.9,9.7-22.9,9.7c-9.2,0-17.5-3.9-23.3-10.2
			c-5.8,6.3-14.1,10.2-23.3,10.2c-7.2,0-13.8-2.4-19.2-6.4c-5.3,4-12,6.4-19.2,6.4c-10.6,0-19.9-5.1-25.7-13.1
			c-5.8,7.9-15.1,13.1-25.7,13.1c-8.7,0-16.5-3.5-22.2-9.1c-4.6,4.5-10.6,7.6-17.2,8.7c-1.6,0.3-3.3,0.4-5,0.4"/>
	</g>
	<g display="inline">
		<path fill="#2580AA" d="M1059.5,355.6c-7.2,0-13.8-2.4-19.2-6.4c-5.3,4-12,6.4-19.2,6.4c-10.6,0-19.9-5.1-25.7-13.1
			c-5.8,7.9-15.1,13.1-25.7,13.1c-8.7,0-16.5-3.5-22.2-9.1c-5.7,5.6-13.6,9.1-22.2,9.1c-5.8,0-11.2-1.6-15.9-4.3
			c-4.7,2.7-10.1,4.3-15.9,4.3c-9,0-17.1-3.7-22.9-9.7c-5.8,6-13.9,9.7-22.9,9.7c-9.2,0-17.5-3.9-23.3-10.2
			c-5.8,6.3-14.1,10.2-23.3,10.2c-7.2,0-13.8-2.4-19.2-6.4c-5.3,4-12,6.4-19.2,6.4c-10.6,0-19.9-5.1-25.7-13.1
			c-5.8,7.9-15.1,13.1-25.7,13.1c-8.7,0-16.5-3.5-22.2-9.1c-4.6,4.5-10.6,7.6-17.2,8.7c-1.6,0.3-3.3,0.4-5,0.4"/>
	</g>
	<rect x="276.4" y="355.6" display="inline" fill="#2580AA" width="619" height="108.4"/>
</g>
<g id="blue_all" display="none">
	<path display="inline" fill="#2580AA" d="M926.8,354.9c-8.6,0-16.5-2.8-22.8-7.6c-5.1,3.8-11.2,6.4-17.8,7.3v-0.7h-13.6
		c-8.9-2.1-16.7-7.3-21.9-14.5c-5.3,7.2-13,12.4-21.9,14.5h-17.2c-6.8-1.6-13-5-17.8-9.8c-4.5,4.4-10,7.6-16.1,9.4
		c-6-1.1-11.4-3.5-16.1-7c-5.4,4.1-11.9,6.7-19,7.4h-7.5c-11-1.1-20.7-6.9-26.9-15.3c-6.2,8.5-15.8,14.3-26.9,15.3h-7.5
		c-1.8-0.2-3.5-0.5-5.2-0.9c-3.7-31-7.3-49-11.2-54.6c3.5,5.4,7.2,24.5,10.8,54.5c-6.5-1.7-12.3-5-16.9-9.6
		c-6,5.8-13.8,9.7-22.6,10.6h-7.5c-5.5-0.5-10.7-2.2-15.3-4.9c-4.6,2.6-9.8,4.3-15.3,4.9h-6.4c9.7-15.1,16.1-32,18.1-50
		c-32.3,7.3-65.6,12.4-99.8,15.2c-0.6-4.4-1.8-9.4-2.8-14c1.2-0.3,2.5-0.6,3.8-0.9c6.3-0.3,14.3,4,14.6,1.2c4.2-1.3,7.6-2,8.7-5.4
		c3.4-0.5,7-1.1,11.1-1.8c41.7-6.6,82-6.7,118.4-1.1c0.3,0.2,0.6,0.5,0.9,0.9c-0.3-0.4-0.6-0.7-0.9-0.9c0.2,0,0.4,0.1,0.6,0.1
		c-0.2,0-0.4-0.1-0.6-0.1c-0.2-0.1-0.3-0.2-0.5-0.3c-0.1,0-0.1,0-0.2,0c0.2,0,0.4,0.1,0.7,0.3c-39.2-8.2-83.7-9.8-130.1-3.1
		c-1.8-2.1-6-0.9-11-0.9c-3.2,0-11.4-0.9-16.7-1.4c0-0.4,0-0.8,0-1.2c0-6.1-10.8-14.4-15.7-19.3c0.9-0.3,1.6-0.5,2-0.5
		c3.1,0,4.5,1,7.2,0c3.6-1.3,4.6-7.1,4.3-9.3c-0.1-0.8-6.6-4.4-4.6-3.5c1,0.5,5,0.5,5.6-0.8c0.9-1.7-0.6-3.5-0.5-5.6
		c0.1-1.8,4.5-1.1,4.5-3.4c0-3.7-4.5-6.2-5.1-9.5c-0.4-2.3,2.8-5.1,2.2-7.1c-3.3-10.1-12-16.8-24.4-16.8
		c-18.5,0-25.1,15.2-25.1,33.9c0,1.6-0.1,3-0.2,4.3c-0.6,7.2,2.1,12.9,4.9,14.2c0.7,0.3,4.1,0.9,7,2.4c-5.7,4.6-10.6,9.7-10.6,17.8
		c0,4.7,3.2,21.1-1.1,29.2c-0.9,1.6-1.3,3.2-1.6,4.8c-1.2,0-2.5,0-3.7,0c-10.4,0-20.8-0.2-31.1-0.7c0-0.2,0.1-0.3,0.2-0.3
		c2.7-2.1,5.2-4.4,4.7-6.9c1.3,0.4,3.9,0.5,4.9-0.5c2.9-3,1.2-6-1.3-5.2s-5.7-0.9-5.1-0.8c5.1,0.8,7.1-4.9,5.4-6.8
		c-1.7-1.9-6.9,1.2-8.1,0.5c-4.1-2.3-9.3-7.6-12.7-2.4c-1.2,1.8-2.5,3.3-2.7,5.2c-1.6-1.4-4.5-2.6-5.9-1.6c-4.1,3.1,2.2,8.3,3.5,9.6
		c1.8,1.8,1.2,3.1-0.3,4.3c-2,1.5,2.3,1.5,4.4,0.6c-0.4,1.4-1.4,2.6-2.3,3.5c-6.2-0.4-12.3-0.9-18.4-1.4c0.7-0.6,1.4-1.3,2.1-2.1
		c0.3-0.3,4.7-1.1,6.2-2.8c4-4.6-4.4-2.8-5.7-2.1c-0.2-0.8-0.6-6-1.3-6.5c-1.5-1-3.2,5.6-3.1,5.7c-0.9,0.2-3.2,6.6-6.6,3.2
		c0.1-1.6-0.8-6.6-2.3-11.8c0,0,0,0,0,0c3-4.5,1.8-10.6-2.8-13.6c-2.2-1.5-4.8-1.9-7.3-1.5c-2.2-1.2-4.5-2.3-5-2.7
		c-4.6-3.1-12.8-2.6-14,2.8c-1.1,5.2,9.4,9,9.4,9s-15.4-4.6-6.6,5c0,0,0,0,0,0c0,0.2,0.1,0.5,0.3,0.9c-1.3,0.3-2.6,1.1-2.9,1.7
		c-0.6,1.2,0.4,4.8,2.1,6.7c1.2,1.4,2.5-1.6,3.3-3.7c1.7,2.8,4,6,6.1,8.8c-17.4-2.2-34.6-5.1-51.5-8.6c2.3,16.8,8.5,32.7,17.7,46.9
		h-34.6v192.5h603.8V354.9L926.8,354.9L926.8,354.9z M351.7,290.2c-0.5,0.8-1.6,1-2.3,0.5s-1-1.6-0.5-2.3s1.6-1,2.3-0.5
		C352,288.4,352.2,289.4,351.7,290.2z M409.6,302.9c-0.5,0.4-1.5,0.1-2.3-0.7s-1-1.9-0.5-2.3c0.5-0.4,1.5-0.1,2.3,0.7
		C409.9,301.4,410.1,302.4,409.6,302.9z"/>
</g>
<g id="testing" display="none">
	<text transform="matrix(1 0 0 1 743.9216 151.9049)" display="inline" fill="#2580AA" font-family="'Monaco'" font-size="53.1044">&lt;html&gt;</text>
	<text transform="matrix(1 0 0 1 743.9217 1.5913)" display="inline" font-family="'Monaco'" font-size="45">$(this)</text>
	<text transform="matrix(1 0 0 1 891.4287 50.0337)" display="inline" font-family="'Monaco'" font-size="25.9371">wp_title();</text>
	<text transform="matrix(1 0 0 1 843.4293 197.0333)" display="inline" font-family="'Monaco'" font-size="12">color: #bada55</text>
</g>
<g id="teach_fish" display="none">
	<g display="inline">
		<path fill="#2580AA" d="M601.5,471c18-111.9,14.4,26.7-4.2-101.2c-19-131-56.7-251.8-107.6-355.7
			C554,128.6,601.7,267.5,623.9,420.4c16.7,114.8,22.2-36.1,9.2,66.4"/>
		<path fill="#2580AA" d="M480,239.9c-18.6,1.4-26.9,18.5-38.9,22.6c-1-0.1-21.9-1.7-29.7-1.7c-2.7,0-29.5-21-36.1-27.6
			c2.2-0.6,3.8-1.1,4.6-1.1c7.2-0.1,10.6,2.2,17,0c8.5-3,10.9-16.6,10-21.9c-0.3-1.8-18.2-4.1-10.9-8.1c2.3,1.1,11.8,1.1,13.3-1.8
			c2.1-4-1.4-8.3-1.1-13c0.3-4.3,10.5-2.5,10.5-7.9c0-8.7-10.6-14.6-11.9-22.4c-0.9-5.3,6.7-11.9,5.1-16.6
			c-7.8-23.6-28.2-39.5-57.2-39.5c-43.4,0-58.8,35.6-58.8,79.6c0,3.8-0.2,7.1-0.4,10.1c-1.3,16.9,4.9,30.2,11.5,33.4
			c1.6,0.8,9.7,2.2,16.4,5.6c-13.1,29.9-4,49.5-7.1,70.4s-10.1,27.9-10.1,43.7c0,17,1.1,29.2,12.6,39.9c-3.2,4.3-3.5,25.6-0.8,29.7
			c-3.6,3.2-5,19.2-3.6,21.7c-4.4,5.8-7,7.7-7,16.8c0,9.3,7.5,26.6,16.8,26.6c1.7,0,5.4,0.8,6.7,0.5c1.3,5,5.8,5.6,11.3,5.6
			c6.5,0,14.8-2.1,14.8-8.6c0-6.5-8.4-21.4-14.8-21.4c-0.1,0-0.1,0-0.2,0c0-4.9-2.4-9.2-6-11.9c6.4-2.6,10.9-17.6,10.8-18.3
			c8.6-2.4,15.5-9.1,18-17.6c2,1.4,0.8,11.9,0.8,17.4c0,7.4,4,13.8,10,17.2c-5,3.6-8.3,9.4-8.3,16.1c0,10.9,8.9,29.5,19.8,29.5
			c5.7,0,10.8-2.4,14.4-6.2c2.3,1.9,21.7-12.6,21.7-19.9c0-7.3-16.8-12.9-18.4-12.3c-1.8-3.5-4.5-6.4-7.9-8.4
			c5-3.6,8.3-9.4,8.3-16.1c0-7.6-4.3-14.2-10.6-17.5c6.5-4.7,0.5-21.9,0.5-30.5c0-2.9,5.8-50,3.8-77.6c-0.1-0.2-0.1-0.4-0.2-0.6
			c11.7-0.3,39.2,4.4,41.6,3.1c10.3-2.2,30.7-32.3,37-32.3c5.1,0,12-5.2,12.5-16.1c0.3-5.8,16.7-4.9,16.7-7.8
			C506.7,236.4,488,239.3,480,239.9z"/>
		<path fill="#2580AA" d="M723.4,414.4c6.6-10.8-5.3-17.3-5.3-30.9c0-18-21.9-68.4-25.2-79.7c-3.3-11.3-0.2-76-7.6-88.1
			c-7.4-12.1-6.7-6.6-4.3-13.7c4-11.6,11.7-18.7,12.9-38.3c2.4-40.3-28.9-68.4-56.6-65.3c-30.4,3.4-35.4,5.4-47.1,30.7
			c-2.6,5.6,8.1,12.9,7.3,19.3c-0.4,3.1-8.8,17.3-8.8,20.6c0,6.8,12,5.3,13.5,11.6c0.4,1.7-7.8,9.3,1.3,10.9
			c3.3,0.6,17.6-5.4,20.2-3.1c1.3,5.4-20.4,7.3-18,12.2c3.1,6.2-0.7,12,3,15.9s22.2,0.8,25,1.5c-6.8,7.5-22.8,45.9-30.7,51.3
			c-1.8-5.4-11.8-7.2-16.5-13.9c-4.6-6.7-3.8-18.3-8.9-18.3c-11.9,0-18.4,9.6-18.4,21.5c0,11.9,6.5,21.5,18.4,21.5
			c30.8,38.4,32,19.4,40.2,20.1c0.3,14,3.5,60.6,3.5,77c0,17.9-24.7,34.3-13.8,46.9c-8.4,6.3-13.8,16.2-13.8,27.5
			c0,19,15.4,44.1,34.4,44.1c14.5,0,26.9-18.8,32-31.5c6.1,15.8,21.4,36.8,39.3,36.8c23.3,0,42.2-28.6,42.2-51.9
			C741.6,434.6,734.4,422,723.4,414.4z"/>
		<g>
			<path fill="#2580AA" d="M352.5,513.9c22.4,0,42.6-9.5,56.8-24.8c14.1,15.2,34.3,24.8,56.8,24.8c21.8,0,41.5-9,55.6-23.6
				c14.1,14.5,33.8,23.6,55.6,23.6c14.1,0,27.3-3.8,38.7-10.4c11.4,6.6,24.6,10.4,38.7,10.4c21.1,0,40.2-8.4,54.1-22.1
				c14,13.6,33.1,22.1,54.1,22.1c6.4,0,12.5-0.8,18.4-2.2c37-44,61-106.2,67.3-163c-123.2,27.9-252.5,42.8-386,42.8
				c-120.9,0-238.5-12.2-351.1-35.2c7.1,50.7,28.3,107.5,60.1,147.9c9.8-5.5,18.3-13,24.8-22c14.1,19.3,36.9,31.8,62.6,31.8
				c17.5,0,33.7-5.8,46.7-15.7C318.8,508,335,513.9,352.5,513.9z"/>
		</g>
		<g>
			<g>
				<defs>
					<rect id="SVGID_1_" x="434.7" y="-30.9" width="90.9" height="478"/>
				</defs>
				<clipPath id="SVGID_2_">
					<use xlink:href="#SVGID_1_"  overflow="visible"/>
				</clipPath>
				<g clip-path="url(#SVGID_2_)">
					<path fill="#2580AA" d="M487.2,532.8c-14.8-323-14.9-516.7,3-518.3c0.2,0,0.4,0,0.6,0.1c-19.4,6.5-16.7,248.4,3.5,639.7"/>
				</g>
			</g>
		</g>
	</g>
</g>
<g id="we_fish" display="none">
	<path display="inline" fill="#2580AA" d="M714.7,480.5c-8.2-87.7-4.8-96.6,16.1-194.8c19.6-92.2,53-185.7,101.7-270.4
		c-55.7,85.5-99.8,190.7-124.8,308.2c-18.8,88.2-23.1,87.5-18.2,167.6"/>
	<path display="inline" fill="#2580AA" stroke="#FFFFFF" stroke-miterlimit="10" d="M861.3,340"/>
	<g display="inline">
		<path fill="#2580AA" d="M862.8,518.4C855.9,196.5,845.7,14.8,833,14.7c-0.2,0-0.3,0.1-0.5,0.1c12.5,4.7,22.5,185.7,29.4,503.6"/>
	</g>
	<path display="inline" fill="#2580AA" d="M673.7,299.8c7.3-5.4,23.7-12.3,27.9-20.4c4.4-8.3-3.5-25.5-3.5-35.6
		c0-33-26.8-65-59.8-65s-59.8,32-59.8,65c0,11-7.4,29-2.3,37.9c5.2,8.8,22.9,16.2,31.7,21.5c-12.9,7.1-28.7,17.8-35.7,30.7
		c-5.7,10.7-3.8,22.8-3.8,35.8c0,41.9,33.9,75.8,75.8,75.8s80.6-33.9,80.6-75.8c0-21-1.2-35.1-15-48.8
		C703,313.9,682.7,303.6,673.7,299.8z"/>
	<path display="inline" fill="#2580AA" d="M367.6,260.5C295,160.6,170.5,125.8,80.8,176.9c0.3,0.2,0.6,0.5,0.9,0.8
		c90.2-43.5,209.4-5,277.8,94.1c64.4,93.4,68.6,157.5,7.3,228.2c0.5,1.1,2.5,11.2,3,12.3C442.7,442.1,439.1,358.8,367.6,260.5z"/>
	<g display="inline">
		<path fill="#2580AA" d="M26,498.8c44.4-204.2,64.9-321.2,55.2-323.7c-0.2,0-0.3,0-0.5,0c8.7,6-11.9,122.3-55.5,323"/>
	</g>
	<path display="inline" fill="#2580AA" d="M501.5,210.8c-8.6-10.5-17.6-22.1-16.4-27.5c2.7-12.5,13.2-24.5,12-45
		c-2.5-42.4-37.1-69.4-66.4-70.4c-24.5-0.8-42.8,13.2-51.9,41c-2,6.1,10.1,12.5,10,19.2c0,3.3-7.1,19.2-6.7,22.5
		c0.8,7,13.2,4,15.5,10.4c0.6,1.7-6.9,10.6,2.8,11.2c3.5,0.2,22.6-9.2,25.6-7.1c0.8,29.1-22.9,21.2-19.7,26c4,6.1,0.8,12.6,5.1,16.2
		c4.3,3.6,23.3-2,26.2-1.5c-1.8,2.5-13.9,7.4-17.4,17.5c-4.7,13.5-7.2,31-10.8,39.6c0,0-20.8-8.6-32-14.5
		c-12.1-22.7-36.8-15.2-39.7-15.2c-16.1,0-5.4,4-5.4,20.1c0,5.8,15.4,6,24.9,11.3c16.8,9.4,37.2,38.8,58.3,39.4
		c7.4,0.2,17.3-12.2,22.6-17.6c3.1,6.3-22.7,96.3-22.7,123.8c0,37.6,10.4,29.5,48,29.5s80.7-3.2,80.7-40.8
		c0-21.2-12.4-93-12.4-115.7C531.6,258.4,510.1,221.3,501.5,210.8z"/>
	<g display="inline">
		<path fill="#2580AA" d="M369.8,512.3c22.4,0,42.5-9.5,56.6-24.7c14.1,15.2,34.2,24.7,56.6,24.7c21.8,0,41.4-9,55.5-23.5
			c14,14.5,33.7,23.5,55.5,23.5c14.1,0,27.3-3.8,38.6-10.4c11.4,6.6,24.6,10.4,38.6,10.4c21,0,40.1-8.4,54-22c13.9,13.6,33,22,54,22
			c6.3,0,12.5-0.8,18.4-2.2c36.9-43.9,60.8-96.2,67.1-152.9c-122.8,27.8-251.9,42.6-385,42.6c-120.6,0-237.9-12.2-350.2-35.2
			c7,50.6,28.2,97.5,60,137.8c9.7-5.5,18.2-12.9,24.8-21.9c14.1,19.2,36.8,31.7,62.4,31.7c17.5,0,33.6-5.8,46.6-15.6
			C336.2,506.5,352.3,512.3,369.8,512.3z"/>
	</g>
</g>
<g id="me_fish_alone" display="none">
	<path display="inline" fill="#2580AA" d="M451.1,392.3c79.2-39.4,88.7-39.4,188.3-55.3c102.1-16.3,200.8-16.2,290-2.5
		C829.2,313.2,714.6,310,595.5,329c-89.4,14.3-90.3,10-163.6,43.5"/>
	<path display="inline" fill="#2580AA" stroke="#FFFFFF" stroke-miterlimit="10" d="M927.1,570.7"/>
	<path display="inline" fill="#2580AA" stroke="#FFFFFF" stroke-miterlimit="10" d="M927.1,339.1"/>
	<g display="inline">
		<path fill="#2580AA" d="M969.4,597c-14.7-164.8-30.2-263.1-44.3-262.7c-0.2,0-0.3,0-0.5,0.1c15.6,2,33,124.9,49,324.7"/>
	</g>
	<path display="inline" fill="#2580AA" d="M579.7,324.9c-12.1,0-52.3-4.9-52.4-4.9c-9-6.7-23.5-39.8-27.5-43.8
		c2.2-0.7,3.8-1.1,4.6-1.1c7.3-0.1,10.6,2.2,17,0c8.6-3,10.9-16.6,10-22c-0.3-1.8-15.6-10.3-10.9-8.1c2.3,1.1,11.8,1.1,13.3-1.8
		c2.1-4-1.4-8.3-1.1-13.1c0.3-4.3,10.6-2.5,10.6-7.9c0-8.7-10.6-14.6-11.9-22.4c-0.9-5.3,6.7-11.9,5.1-16.7
		c-7.8-23.7-28.3-39.6-57.3-39.6c-43.5,0-58.9,35.7-58.9,79.7c0,3.8-0.2,7.2-0.4,10.1c-1.3,16.9,5,30.3,11.5,33.4
		c1.6,0.8,9.7,2.2,16.4,5.6c-13.1,30-4,49.6-7.1,70.4c-3.1,20.9-10.1,28-10.1,43.7c0,17,1.1,29.2,12.7,39.9
		c-3.2,4.3-3.5,25.6-0.8,29.7c-3.6,3.2-5-17.4-3.6-14.8c-4.4,5.8-7,7.7-7,16.8c0,9.3,7.6,16.9,16.9,16.9c1.7,0,5.4,0.8,6.7,0.5
		c1.3,5,5.9,5.6,11.3,5.6c6.5,0,14.9-2.1,14.9-8.6c0-6.5-8.4-11.7-14.9-11.7c-0.1,0-0.1,0-0.2,0c0-4.9-2.4-9.2-6-12
		c6.4-2.6,10.9-17.6,10.8-18.3c8.6-2.4,15.5,27.5,18.1,19c2,1.4,0.8-24.7,0.8-19.2c0,7.4,4,13.8,10,17.2c-5,3.6-8.3,9.5-8.3,16.1
		c0,11,8.9,19.8,19.8,19.8c5.7,0,10.8-2.4,14.4-6.2c2.3,1.9,21.7-2.9,21.7-10.2c0-7.3-16.8-12.9-18.4-12.3c-1.8-3.5-4.5-6.4-7.9-8.4
		c5-3.6,8.3-9.5,8.3-16.1c0-7.6-4.3,22.3-10.6,19c6.5-4.7,0.5-21.9,0.5-30.5c0-2.5,4.1-36.7,4.2-63.8c8.8-1.6,18.2-3,27.3-3.4
		c15.4-0.7,34.9,9.7,35.7,3c12.2-3.7,22-5.5,22-18.8C609,319.4,596.3,324.9,579.7,324.9z"/>
	<path display="inline" fill="#2580AA" d="M303,385.3c-0.9-1.7-5.4-13.6-7.4-14.2c-4.2-1.3-3.8,15.3-3.3,15.3
		c-2.1,1.1-3,17.7-13.4,11.9c-0.8-3.8-6.3-14.9-13.4-26c0,0,0-0.1,0-0.1c4-12.6-3.1-26.1-15.7-30c-6.2-1.9-12.6-1.2-18,1.5
		c-5.8-1.2-12.2-2.4-13.6-2.8c-13-4.1-31.8,2.6-30.8,16.1c0.9,12.9,28.1,14.7,28.1,14.7s-39.2-0.3-12,16.1c0,0,0,0,0.1,0
		c0.3,0.5,0.7,1.1,1.2,1.8c-2.9,1.7-5.3,4.2-5.6,6c-0.6,3.1,4.1,10.9,9.4,14.2c3.8,2.4,4.7-5.4,5.3-10.9
		c11.6,10.6,29.6,24.1,35.9,26.1c7.5,2.3,32.2,16.4,55.6-27.8c0.5-1,10.3-5.8,12.7-10.9C324.1,372.8,305.8,382.9,303,385.3z
		 M213.4,358.2c-2.2-0.7-3.4-3-2.7-5.1s3-3.4,5.1-2.7c2.2,0.7,3.4,3,2.7,5.1C217.8,357.7,215.5,358.9,213.4,358.2z"/>
	<g display="inline">
		<path fill="#2580AA" d="M297.1,512c22.5,0,42.7-9.6,56.8-24.8c14.2,15.2,34.4,24.8,56.8,24.8c21.9,0,41.6-9.1,55.7-23.6
			c14.1,14.5,33.8,23.6,55.7,23.6c14.1,0,27.4-3.8,38.8-10.4c11.4,6.6,24.7,10.4,38.8,10.4c21.1,0,40.2-8.4,54.2-22.1
			c14,13.7,33.1,22.1,54.2,22.1c6.4,0,12.6-0.8,18.5-2.2c37-44.1,61-96.6,67.4-153.5c-123.3,27.9-252.9,42.8-386.5,42.8
			c-121.1,0-238.8-12.2-351.6-35.3c7.1,50.8,28.3,97.9,60.2,138.3c9.8-5.5,18.3-13,24.9-22c14.1,19.3,36.9,31.9,62.7,31.9
			c17.6,0,33.7-5.8,46.8-15.7C263.4,506.2,279.6,512,297.1,512z"/>
	</g>
</g>
<g>
	<path fill="#2580AA" d="M521.8,233.2c-5.2,0.4-10.6-4.2-9.5-3.8c9.4,3.8,15.9-6.3,13.5-10.8c-2.5-4.4-13.8-0.8-15.8-2.6
		c-6.9-6.2-14.7-18.7-23.5-10.3c-3,2.9-6.2,5.2-7.6,8.8c-2.4-3.4-7.5-7.1-10.7-5.6c-9.4,4.2,0.5,17,2.5,20.1
		c2.7,4.3,0.9,6.5-2.5,8.1c-4.5,2.1,3.7,3.9,8.3,3.1c-1.7,3.3-5.5,5.6-7.6,6.8c-1,0.6-1.8,1.3-2.4,2.2c-1.6-2.9-11.2-3.2-14.1-1.6
		c-2.9,1.6-0.8,6,3.6,7.5c2.3,0.8,3.8-0.4,5.8,3c-0.6,1.2,0.5,5.8,1.2,7.1c1.2,2.1,3.3,1.2,5.4,0c1.5-0.8,3.2-7.7,3.2-9.2
		c2.3-0.4,2.7-1.1,4.5-2.1c0.5-0.3-2.4,3.5-1.6,5c1.5,2.6,7.7,12.2,9.1,9.5c1.4-2.5,4.8-7.6,3.8-10.1c1.2,0.2,3.5,3.2,4,4.1
		c1.2,2.2,3.2,3.6,5.4,2.4c2.2-1.2,1.8-11.8,3.1-11.2c6.1-3,12-6.3,12.2-11.2c2.3,1.4,7.3,2.7,9.7,1.1
		C529,239.3,527,232.8,521.8,233.2z M501.9,218.4c-1.1,0.6-3-0.4-4.1-2.4c-1.1-2-1.1-4.1,0.1-4.7s3,0.4,4.1,2.4
		C503,215.6,503,217.8,501.9,218.4z"/>
	<path fill="#2580AA" d="M841.5,298.6c1.4-1.4,2.2-3.6,2.2-7c0-9.7-4.3-6.4-14-6.4c0,0-13.6-7.1-15.7-14.6
		c2.9-6.4-0.6-15.9-7.6-18.6c-8.7-3.5-14.3-2.2-19.8,7c-20.5,7.7-47,16.7-51.9,14.6c2.5-6.3,30.3-21.6,30.3-50.9
		c0-26-49.4-64.9-53-68c-10.9-9.2-32.8-24.9-32.7-32.5c0.2-12.3,5.3-21.6,0.3-40.7c-10.4-39.4-51.7-60.3-77.2-48.6
		c-28.1,12.9-29.8,20.3-33.1,48.2c-0.7,6.2,11.9,9.8,13.1,16.1c0.6,3.1-3,19.4-2,22.5c2.1,6.5,13.2,1.3,16.6,6.8
		c0.9,1.5-4.5,11.3,4.7,10c3.3-0.5,14.5-14.3,17.7-12.9c6.2,13.2-16.6,17-12.7,20.9c5,5,3.2,11.7,7.9,14.3
		c4.7,2.6,21.5-6.3,24.4-6.4c-4.1,9.3-7,51.1-13.2,58.8c0,0-20.1,21.1-30.1,20.9c-3.3-0.1-3.6-11.1-5.6-11.8
		c-7.7-2.8-5.7,12.8-9.9,15.7c-4.9,3.4-32.9,7-33.2,12c-0.3,5,25.5,5.4,31.4,4.3c16.4-3.1,45.4-2.6,61.4-9.5
		c8.9-3.8,16.7-30.4,16.7-30.4c-0.6,3.3,18.8,29.5,20.6,35c-9.6,8.1-31.5,22-31.5,35.5c0,6.1,1,11.3,3,15.7h-35.5v63.7l35,31.9
		v115.1c5.7,1.4,11.6,2.2,17.7,2.2c21.5,0,40.8-9.1,54.4-23.7c13.5,14.6,32.9,23.7,54.4,23.7c20.9,0,39.8-8.7,53.3-22.6
		c13.5,13.9,32.4,22.6,53.3,22.6c13.5,0,26.2-3.6,37.1-10c10.9,6.3,23.6,10,37.1,10c20.2,0,38.5-8.1,51.8-21.1
		c13.4,13.1,31.7,21.1,51.8,21.1c24.6,0,46.4-12,59.9-30.5c13.5,18.5,35.3,30.5,59.9,30.5V393.1l9.3-30.8v-63.7H841.5z M795.3,281.1
		c3.1,1.8,9.2,12.9,23.5,17.4h-34.6C789.4,292.5,793.5,286.3,795.3,281.1z"/>
	<path fill="#2580AA" d="M465.9,276.3c0-8.9-6.1-9.2-14.9-8.5c-10.3,0.8-10.5,8.3-15.3,13.3s-17.4,16.2-24,18.4
		c-1.1-0.2-39.2-20.3-47.8-21.4c-8.6-1.1-9-3.6-14.3-10.2c0.1-0.9,1-2,3.1-3.7c2-0.6,3.6-1,4.4-1c6.8-0.1,9.9,2.1,16,0
		c8-2.8,10.2-15.6,9.4-20.6c-0.3-1.7-14.7-9.6-10.2-7.6c2.2,1,11.1,1,12.5-1.7c1.9-3.7-1.3-7.8-1-12.3c0.3-4,9.9-2.3,9.9-7.4
		c0-8.2-9.9-13.7-11.1-21.1c-0.8-5,6.3-11.2,4.8-15.6c-7.3-22.2-26.5-37.1-53.8-37.1c-40.8,0-55.3,33.5-55.3,74.8
		c0,3.6-0.2,6.7-0.4,9.5c-1.2,15.9,4.6,28.4,10.8,31.4c1.5,0.7,9.1,2,15.4,5.3c-8.4,19.2-7.1,33.9-6.3,47.6c0,0-8.5,65.5-0.6,86.7
		c0,0,0,0,0,0c-19.2,1.5-38.5,2.7-58,3.4c-47.5-24.7-95.3-44-142.1-58c0,0,0,0,0,0c0,0,0,0,0,0c0,0,0,0,0,0
		c-0.9,1.5-12.3,19-23.9,53.7c0,0,0,0,0,0c-4.9-0.4-9.7-0.9-14.6-1.4c-0.9-0.1-1.7-0.2-2.6-0.3c-4.6-0.5-9.3-1-13.9-1.5
		c-1-0.1-2-0.2-3-0.3c-4.6-0.5-9.2-1.1-13.8-1.7c-0.9-0.1-1.8-0.2-2.7-0.3c-4.8-0.6-9.5-1.2-14.2-1.9c-0.5-0.1-1-0.1-1.5-0.2
		c-4.7-0.7-9.3-1.3-14-2c-0.5-0.1-1.1-0.2-1.6-0.2c-4.7-0.7-9.5-1.5-14.2-2.3c-0.8-0.1-1.7-0.3-2.5-0.4c-4.6-0.8-9.2-1.6-13.8-2.4
		c-0.9-0.2-1.7-0.3-2.6-0.5c-4.6-0.8-9.3-1.7-13.9-2.6c-0.6-0.1-1.3-0.2-1.9-0.4c-4.9-0.9-9.7-1.9-14.6-2.9c0,0,0,0,0,0l0,0h0
		c2.9,20.7,8.9,40.5,17.6,59.2c1.2,2.7,2.6,5.3,3.9,7.9c4.1,7.9,8.6,15.5,13.7,22.9c0.8,1.2,1.7,2.5,2.5,3.7
		c7.8,10.9,16.5,21.3,26.2,31h0l0,0c3.1-2.2,6.1-4.7,8.8-7.4c0.8,0.8,1.7,1.6,2.5,2.3c0.3,0.3,0.7,0.6,1,0.8
		c0.5,0.5,1.1,0.9,1.6,1.4c0.4,0.4,0.9,0.7,1.3,1c0.5,0.4,0.9,0.7,1.4,1.1c0.5,0.4,1,0.7,1.5,1.1c0.4,0.3,0.8,0.6,1.2,0.9
		c0.6,0.4,1.2,0.7,1.7,1.1c0.4,0.2,0.7,0.5,1.1,0.7c0.6,0.4,1.3,0.8,1.9,1.1c0.3,0.2,0.7,0.4,1,0.6c0.7,0.4,1.4,0.7,2.1,1.1
		c0.3,0.2,0.6,0.3,0.9,0.5c0.8,0.4,1.5,0.7,2.3,1.1c0.3,0.1,0.5,0.2,0.8,0.4c0.8,0.4,1.6,0.7,2.5,1c0.2,0.1,0.5,0.2,0.7,0.3
		c0.9,0.3,1.7,0.6,2.6,0.9c0.2,0.1,0.4,0.1,0.6,0.2c0.9,0.3,1.9,0.6,2.8,0.8c0.2,0,0.3,0.1,0.5,0.1c1,0.3,2,0.5,2.9,0.7
		c0.1,0,0.3,0.1,0.4,0.1c1,0.2,2.1,0.4,3.1,0.6c0.1,0,0.2,0,0.3,0c1.1,0.2,2.2,0.4,3.2,0.5c0.1,0,0.1,0,0.2,0
		c1.1,0.1,2.2,0.3,3.4,0.4c0,0,0.1,0,0.1,0c1.2,0.1,2.3,0.2,3.5,0.2c0,0,0,0,0,0h0c0.8,0,1.7,0.1,2.5,0.1c2,0,3.9-0.1,5.8-0.2
		c0,0,0,0,0,0c0.7-0.1,1.5-0.1,2.2-0.2c0,0,0,0,0,0c0.7-0.1,1.5-0.2,2.2-0.3c0,0,0,0,0,0c0.7-0.1,1.4-0.2,2.1-0.3c0,0,0,0,0,0
		c0.7-0.1,1.4-0.2,2.1-0.4c0,0,0,0,0.1,0c0.7-0.1,1.4-0.3,2.1-0.4c0,0,0.1,0,0.1,0c0.7-0.2,1.3-0.3,2-0.5c0,0,0.1,0,0.1,0
		c0.7-0.2,1.3-0.4,2-0.5c0,0,0.1,0,0.1,0c0.6-0.2,1.3-0.4,1.9-0.6c0.1,0,0.1,0,0.2-0.1c0.6-0.2,1.2-0.4,1.9-0.6c0.1,0,0.1,0,0.2-0.1
		c0.6-0.2,1.2-0.4,1.8-0.7c0.1,0,0.1-0.1,0.2-0.1c0.6-0.2,1.2-0.5,1.7-0.7c0.1,0,0.2-0.1,0.3-0.1c0.6-0.2,1.1-0.5,1.7-0.7
		c0.1,0,0.2-0.1,0.3-0.1c0.5-0.3,1.1-0.5,1.6-0.8c0.1-0.1,0.2-0.1,0.3-0.2c0.5-0.3,1-0.5,1.6-0.8c0.1-0.1,0.2-0.1,0.3-0.2
		c0.5-0.3,1-0.5,1.5-0.8c0.1-0.1,0.3-0.1,0.4-0.2c0.5-0.3,1-0.6,1.4-0.8c0.1-0.1,0.3-0.2,0.4-0.3c0.5-0.3,0.9-0.6,1.4-0.9
		c0.1-0.1,0.3-0.2,0.4-0.3c0.4-0.3,0.9-0.6,1.3-0.9c0.2-0.1,0.3-0.2,0.5-0.3c0.4-0.3,0.8-0.6,1.2-0.9c0.2-0.1,0.3-0.3,0.5-0.4
		c0.4-0.3,0.8-0.6,1.2-0.9c0.2-0.1,0.4-0.3,0.5-0.4c0.4-0.3,0.7-0.6,1.1-0.9c0.2-0.2,0.4-0.3,0.6-0.5c0.4-0.3,0.7-0.6,1-0.9
		c0.2-0.2,0.4-0.3,0.6-0.5c0.3-0.3,0.7-0.6,1-0.9c0.2-0.2,0.4-0.4,0.6-0.6c0.3-0.3,0.6-0.6,0.9-0.9c0.2-0.2,0.4-0.4,0.6-0.6
		c0.3-0.3,0.6-0.6,0.8-0.8c0.2-0.2,0.4-0.5,0.7-0.7c0.3-0.3,0.5-0.5,0.8-0.8c0.2-0.3,0.5-0.5,0.7-0.8c0.2-0.3,0.5-0.5,0.7-0.8
		c0.3-0.3,0.5-0.6,0.7-0.9c0.2-0.2,0.4-0.5,0.6-0.7c0.3-0.3,0.5-0.7,0.8-1c0.2-0.2,0.3-0.4,0.5-0.6c0.4-0.5,0.8-1,1.2-1.5
		c0-0.1,0.1-0.1,0.1-0.2c4.6,6.3,10.3,11.9,16.6,16.5c2.3,1.7,4.7,3.2,7.3,4.6c1.9,1,3.8,2,5.8,2.9c0.7,0.3,1.3,0.6,2,0.9
		c2,0.8,4.1,1.6,6.2,2.2c1.4,0.4,2.8,0.8,4.2,1.2c1.4,0.4,2.9,0.7,4.3,0.9c0.7,0.1,1.5,0.3,2.2,0.4c3.7,0.6,7.5,0.9,11.3,0.9l0,0h0
		c2.1,0,4.2-0.1,6.2-0.3c4.1-0.3,8.1-1,12-2c1.9-0.5,3.9-1.1,5.7-1.7c0.9-0.3,1.9-0.7,2.8-1c1.8-0.7,3.7-1.5,5.4-2.4
		c4.4-2.1,8.6-4.7,12.5-7.6c12.4,9.4,27.9,15,44.7,15c21.5,0,40.8-9.1,54.4-23.7c13.5,14.6,32.9,23.7,54.4,23.7
		c18,0,34.4-6.4,47.3-17c34-35.3,56.1-79.1,61.5-127.1c-3.9,0.9-7.7,1.7-11.6,2.6c-0.9,0.2-1.9,0.4-2.8,0.6
		c-3.9,0.8-7.8,1.7-11.7,2.5c0,0-0.1,0-0.1,0c-3.9,0.8-7.8,1.6-11.7,2.3c-0.9,0.2-1.8,0.3-2.6,0.5c-4,0.8-8,1.5-12,2.3c0,0,0,0,0,0
		c-4,0.7-8,1.4-12,2.1c-0.8,0.1-1.6,0.3-2.4,0.4c-8.1,1.4-16.3,2.7-24.5,3.9c-0.7,0.1-1.4,0.2-2.2,0.3c-4.2,0.6-8.3,1.2-12.5,1.8
		c0,0,0,0,0,0c1.8-13.8,1.4-34.1-6.6-62.5c-0.1-0.2,4.2,0.2,4.1,0c13-0.3,43.5,4.9,46.2,3.5c11.4-2.5,34.1-35.8,41-35.8
		c5.6,0,38.9,1.6,39.5-10.5C497.5,274.9,465.9,279.6,465.9,276.3z M174.5,399.2c-1.6,0-3.2-0.1-4.8-0.1c-3.8-0.1-7.6-0.1-11.4-0.2
		c-1.5,0-3-0.1-4.5-0.1c-4.3-0.1-8.5-0.2-12.7-0.4c-0.8,0-1.5-0.1-2.3-0.1c-21.8-0.8-43.4-2.2-64.9-4.1C84,364,96,342.1,96.9,340.4
		c42.2,15.2,84.9,34.8,127.1,58.5c-8.4,0.2-16.7,0.4-25.2,0.4c-2.8,0-5.6,0-8.5,0C185.1,399.3,179.8,399.3,174.5,399.2z"/>
</g>
</svg>
