<!-- Generator: Adobe Illustrator 18.0.0, SVG Export Plug-In  -->
<svg version="1.1"
	 xmlns="http://www.w3.org/2000/svg" xmlns:xlink="http://www.w3.org/1999/xlink" xmlns:a="http://ns.adobe.com/AdobeSVGViewerExtensions/3.0/"
	 x="0px" y="0px" width="1687.4px" height="279px" viewBox="0 0 1687.4 279" enable-background="new 0 0 1687.4 279"
	 xml:space="preserve">
<defs>
</defs>
<path fill="#2580AA" d="M1687.4,0l-6.5,0l-127.4,124.7c-0.3-0.2-0.6-0.5-0.9-0.7c-6.5-4.2-15.2-2.3-19.3,4.1
	c-3.3,5.1-2.2,11.9,0.6,16l-60.3,95.4l-0.1,0.4c-0.1,0.2-12.8,23.5-33.1,28.7c-9.7,2.5-19.7,0.5-29.8-6.1
	c-11.6-7.5-18.4-16.8-20-27.6c-1.3-8.4,0.6-16.7,3.4-23.9c0.6,6.3,2.8,12.7,7.8,18l6.8-6.4c-10.9-11.6-2.4-32.8-2.3-33l11.4-27.6
	l-19.3,22.8c-0.9,1-21,25.2-17,51.3c2,13.6,10.2,25.1,24.2,34.1c12.4,8,24.9,10.4,37.1,7.2c23.4-6.1,37.2-30.8,38.7-33.2l60.2-95.3
	c4.9,0.9,11.7-0.9,15-5.9c3-4.7,2.9-10.4,0.2-14.8L1687.4,0z M1549,138.3c-1.4,2.2-4.3,2.8-6.4,1.4c-2.2-1.4-2.8-4.3-1.4-6.4
	c1.4-2.2,4.3-2.8,6.4-1.4C1549.8,133.3,1550.4,136.1,1549,138.3z"/>
<g>
	<path fill="#231F20" d="M6.5,120H0v-5.8h14v43.1c0,3.3,0.8,5.6,4.2,5.6c1.2,0,2.1-0.1,2.1-0.1l-0.1,6.2c0,0-1.6,0.2-3.3,0.2
		c-5.6,0-10.4-2.2-10.4-11.4V120z"/>
	<path fill="#231F20" d="M48.1,144.8h2.5v-1.5c0-6.2-3.6-8.4-8.4-8.4c-6.2,0-11.2,3.8-11.2,3.8l-3-5.4c0,0,5.7-4.7,14.9-4.7
		c10,0,15.3,5.2,15.3,15.1v17.5c0,1.2,0.6,1.7,1.7,1.7h4v5.8h-7.8c-3.5,0-4.9-1.7-4.9-4.3v-0.5c0-1.6,0.3-2.6,0.3-2.6h-0.2
		c0,0-3.4,8.3-13,8.3c-6.5,0-13-3.8-13-11.9C25.2,145.6,41.6,144.8,48.1,144.8z M39.9,164c6.7,0,10.8-6.8,10.8-12.7v-1.6h-1.9
		c-3.6,0-15.9,0.2-15.9,7.7C32.8,160.8,35.4,164,39.9,164z"/>
	<path fill="#231F20" d="M69.6,163.1h5.9v-25.9c0-1.2-0.6-1.7-1.7-1.7h-4.9v-5.8h8.8c3.4,0,5,1.4,5,4.6v2.5c0,1.6-0.2,2.7-0.2,2.7
		h0.2c1.8-5.7,6.4-10.2,12.4-10.2c1,0,1.9,0.2,1.9,0.2v7.4c0,0-0.9-0.2-2.2-0.2c-8.4,0-11.9,8.5-11.9,16.1v10.4h5.8v5.8H69.6V163.1z
		"/>
	<path fill="#231F20" d="M124,144.8h2.5v-1.5c0-6.2-3.6-8.4-8.4-8.4c-6.2,0-11.2,3.8-11.2,3.8l-3-5.4c0,0,5.7-4.7,14.9-4.7
		c10,0,15.3,5.2,15.3,15.1v17.5c0,1.2,0.6,1.7,1.7,1.7h4v5.8h-7.8c-3.5,0-4.9-1.7-4.9-4.3v-0.5c0-1.6,0.3-2.6,0.3-2.6h-0.2
		c0,0-3.4,8.3-13,8.3c-6.5,0-13-3.8-13-11.9C101.1,145.6,117.5,144.8,124,144.8z M115.7,164c6.7,0,10.8-6.8,10.8-12.7v-1.6h-1.9
		c-3.6,0-15.9,0.2-15.9,7.7C108.7,160.8,111.2,164,115.7,164z"/>
	<path fill="#247FA9" d="M164.1,156.3h6.6v2.6c0,3.3,4.7,4.9,9,4.9c4.4,0,7.9-1.8,7.9-5c0-4-4.3-5.2-9.8-7.1
		c-5.8-2.2-12.3-4.8-12.3-11.9c0-7.8,7.7-10.9,14.5-10.9c5.5,0,13.6,2.2,13.6,7.9v4.7H187v-2.6c0-2.4-3.1-4-6.9-4
		c-3.7,0-7,1.6-7,4.7c0,3.7,4.3,5.3,9.1,6.9c6.1,2,13,4.6,13,11.9c0,7.4-6.8,11.6-15.7,11.6c-7.1,0-15.4-3.2-15.4-9.4V156.3z"/>
	<path fill="#247FA9" d="M222.2,128.7c5.8,0,15.4,2.2,15.4,8.9v4.8h-6.7v-2.7c0-3-5-4.5-8.5-4.5c-7.9,0-13.3,5.6-13.3,14
		c0,8.9,6.3,14.1,13.8,14.1c6.7,0,11.2-4,12.6-5l2.9,5.5c-1.8,1.6-7.4,6.1-15.7,6.1c-11.3,0-21.2-7.8-21.2-20.5
		C201.4,137.3,210.5,128.7,222.2,128.7z"/>
	<path fill="#247FA9" d="M243.7,163.1h6.2V120h-6.6v-5.8h14v20.3c0,1.9-0.2,3.3-0.2,3.3h0.2c1.7-3.8,6.8-9,14.7-9
		c9.2,0,13.5,5,13.5,15v19.3h6.1v5.8h-13.7v-23.4c0-5.5-1.2-9.9-7.4-9.9c-7.7,0-13.1,6.5-13.1,14.9v12.6h6.2v5.8h-19.9V163.1z"/>
	<path fill="#247FA9" d="M316.3,128.7c11.2,0,17,8.2,17,18.4c0,1-0.2,2.9-0.2,2.9h-28.7c0.5,8.7,6.6,13.3,13.6,13.3
		c6.8,0,11.7-4.4,11.7-4.4l3.1,5.5c0,0-5.9,5.4-15.3,5.4c-12.3,0-20.8-8.9-20.8-20.6C296.7,136.8,305.1,128.7,316.3,128.7z
		 M325.5,145.2c-0.2-6.9-4.4-10.5-9.4-10.5c-5.7,0-10.4,3.9-11.5,10.5H325.5z"/>
	<path fill="#247FA9" d="M340.3,163.1h6.1v-25.9c0-1.2-0.6-1.7-1.7-1.7h-4.8v-5.8h8.8c3.4,0,5,1.5,5,4.3v2c0,1.2-0.2,2.2-0.2,2.2
		h0.2c0.8-2.1,5.4-9.5,15.3-9.5c9,0,13,5,13,15v19.3h6.2v5.8h-13.7v-23.4c0-5.5-1.1-9.9-7.4-9.9c-7.9,0-13.1,7.2-13.1,15v12.4h6.2
		v5.8h-19.9V163.1z"/>
	<path fill="#247FA9" d="M413.9,128.7c5.8,0,15.4,2.2,15.4,8.9v4.8h-6.7v-2.7c0-3-5-4.5-8.5-4.5c-7.9,0-13.3,5.6-13.3,14
		c0,8.9,6.3,14.1,13.8,14.1c6.7,0,11.2-4,12.6-5l2.9,5.5c-1.8,1.6-7.4,6.1-15.7,6.1c-11.3,0-21.2-7.8-21.2-20.5
		C393.1,137.3,402.2,128.7,413.9,128.7z"/>
	<path fill="#247FA9" d="M435.4,163.1h6.2V120H435v-5.8h14v30.6h5.7l7.8-9.2h-5.1v-5.8h17.8v5.8h-5.2l-9.7,11.3v0.2
		c0.1,0,1.3,0.5,2.9,3.2l6.7,11.4c0.8,1.2,1.4,1.6,3.4,1.6h2.5v5.8H470c-3.6,0-4.7-0.6-6.4-3.6l-7.8-13.3c-0.9-1.4-1.9-1.6-3.6-1.6
		H449v12.6h5.3v5.8h-18.9V163.1z"/>
</g>
<g>
	<g>
		<path fill="#3E3739" d="M13.8,208.8c4,0,5.3,3.1,5.3,3.1h0.1c0,0-0.1-0.6-0.1-1.2v-8h2.2v22.9h-2.1v-1.7c0-0.7,0.1-1.2,0.1-1.2
			h-0.1c0,0-1.3,3.3-5.6,3.3c-4.4,0-7.1-3.5-7.1-8.6C6.4,212.2,9.5,208.8,13.8,208.8z M13.9,223.9c2.7,0,5.3-2,5.3-6.6
			c0-3.3-1.7-6.6-5.2-6.6c-2.9,0-5.3,2.4-5.3,6.6C8.7,221.4,10.8,223.9,13.9,223.9z"/>
		<path fill="#3E3739" d="M33.6,208.8c4.5,0,6.8,3.5,6.8,7.5c0,0.4-0.1,1.1-0.1,1.1H27.8c0.1,4.2,3,6.5,6.3,6.5c3,0,5-2,5-2l1,1.7
			c0,0-2.4,2.3-6,2.3c-4.9,0-8.6-3.5-8.6-8.6C25.5,212,29.1,208.8,33.6,208.8z M38.1,215.7c-0.1-3.4-2.2-5-4.6-5
			c-2.7,0-5.1,1.7-5.6,5H38.1z"/>
		<path fill="#3E3739" d="M44.5,222c0,0,1.8,2,4.9,2c1.8,0,3.3-0.9,3.3-2.6c0-3.6-8.8-2.7-8.8-8c0-2.9,2.6-4.5,5.6-4.5
			c3.4,0,5,1.8,5,1.8l-1,1.7c0,0-1.4-1.5-4.1-1.5c-1.7,0-3.3,0.7-3.3,2.5c0,3.6,8.8,2.6,8.8,8c0,2.7-2.3,4.6-5.6,4.6
			c-4,0-6-2.4-6-2.4L44.5,222z"/>
		<path fill="#3E3739" d="M59,202.7h2.3v2.8H59V202.7z M59,209.2h2.2v16.4H59V209.2z"/>
		<path fill="#3E3739" d="M72.2,230.4c3.2,0,5.7-1.5,5.7-5.1v-1.5c0-0.6,0.1-1.2,0.1-1.2H78c-1,1.8-2.6,2.9-5.2,2.9
			c-4.4,0-7.3-3.5-7.3-8.4c0-4.9,2.7-8.3,7.1-8.3c4.3,0,5.4,2.7,5.4,2.7H78c0,0,0-0.2,0-0.6v-1.8h2.1v16c0,5.2-3.8,7.2-7.8,7.2
			c-1.9,0-3.8-0.5-5.4-1.3l0.8-1.8C67.8,229.3,69.8,230.4,72.2,230.4z M78,217.1c0-4.8-2.3-6.2-5.2-6.2c-3.2,0-5,2.3-5,6.2
			c0,3.9,2.1,6.4,5.4,6.4C75.7,223.5,78,221.9,78,217.1z"/>
		<path fill="#3E3739" d="M85.5,209.2h2.2v2.4c0,0.7-0.1,1.3-0.1,1.3h0.1c0.6-1.5,2.7-4.1,6.5-4.1c4,0,5.5,2.3,5.5,6.3v10.4h-2.2
			v-9.8c0-2.6-0.4-4.8-3.5-4.8c-2.8,0-5.2,1.9-6,4.6c-0.2,0.7-0.3,1.4-0.3,2.2v7.8h-2.2V209.2z"/>
		<path fill="#3E3739" d="M113.6,215.4h7.5v-8.3h2v8.3h7.5v1.9h-7.5v8.3h-2v-8.3h-7.5V215.4z"/>
		<path fill="#3E3739" d="M150.9,208.8c4,0,5.3,3.1,5.3,3.1h0.1c0,0-0.1-0.6-0.1-1.2v-8h2.2v22.9h-2.1v-1.7c0-0.7,0.1-1.2,0.1-1.2
			h-0.1c0,0-1.3,3.3-5.6,3.3c-4.4,0-7.1-3.5-7.1-8.6C143.6,212.2,146.6,208.8,150.9,208.8z M151,223.9c2.7,0,5.3-2,5.3-6.6
			c0-3.3-1.7-6.6-5.2-6.6c-2.9,0-5.3,2.4-5.3,6.6C145.9,221.4,148,223.9,151,223.9z"/>
		<path fill="#3E3739" d="M170.7,208.8c4.5,0,6.8,3.5,6.8,7.5c0,0.4-0.1,1.1-0.1,1.1h-12.6c0.1,4.2,3,6.5,6.3,6.5c3,0,5-2,5-2l1,1.7
			c0,0-2.4,2.3-6,2.3c-4.9,0-8.6-3.5-8.6-8.6C162.7,212,166.3,208.8,170.7,208.8z M175.3,215.7c-0.1-3.4-2.2-5-4.6-5
			c-2.7,0-5.1,1.7-5.6,5H175.3z"/>
		<path fill="#3E3739" d="M179.5,209.2h2.3l4.6,12c0.3,0.8,0.6,2,0.6,2h0.1c0,0,0.3-1.1,0.6-2l4.5-12h2.3l-6.2,16.4h-2.4
			L179.5,209.2z"/>
		<path fill="#3E3739" d="M204.5,208.8c4.5,0,6.8,3.5,6.8,7.5c0,0.4-0.1,1.1-0.1,1.1h-12.6c0.1,4.2,3,6.5,6.3,6.5c3,0,5-2,5-2l1,1.7
			c0,0-2.4,2.3-6,2.3c-4.9,0-8.6-3.5-8.6-8.6C196.4,212,200.1,208.8,204.5,208.8z M209.1,215.7c-0.1-3.4-2.2-5-4.6-5
			c-2.7,0-5.1,1.7-5.6,5H209.1z"/>
		<path fill="#3E3739" d="M215.4,202.7h2.2v18.5c0,2.1,1,2.5,1.8,2.5c0.3,0,0.6,0,0.6,0v2c0,0-0.4,0.1-0.8,0.1c-1.4,0-3.8-0.4-3.8-4
			V202.7z"/>
		<path fill="#3E3739" d="M231,208.8c4.8,0,8.6,3.6,8.6,8.5c0,4.9-3.9,8.6-8.6,8.6c-4.8,0-8.6-3.7-8.6-8.6
			C222.4,212.4,226.2,208.8,231,208.8z M231,223.9c3.5,0,6.4-2.9,6.4-6.7c0-3.7-2.9-6.5-6.4-6.5s-6.4,2.8-6.4,6.5
			C224.6,221.1,227.5,223.9,231,223.9z"/>
		<path fill="#3E3739" d="M243.8,209.2h2.1v1.6c0,0.7-0.1,1.3-0.1,1.3h0.1c0,0,1.3-3.3,5.7-3.3c4.4,0,7.1,3.5,7.1,8.6
			c0,5.2-3.1,8.6-7.3,8.6c-3.9,0-5.4-3.1-5.4-3.1h-0.1c0,0,0.1,0.6,0.1,1.4v7.8h-2.2V209.2z M251.1,224c2.9,0,5.3-2.4,5.3-6.6
			c0-4-2.1-6.6-5.2-6.6c-2.7,0-5.3,2-5.3,6.6C245.9,220.7,247.8,224,251.1,224z"/>
		<path fill="#3E3739" d="M271.7,215.4h7.5v-8.3h2v8.3h7.5v1.9h-7.5v8.3h-2v-8.3h-7.5V215.4z"/>
		<path fill="#3E3739" d="M309.7,208.8c4.5,0,6.8,3.5,6.8,7.5c0,0.4-0.1,1.1-0.1,1.1H304c0.1,4.2,3,6.5,6.3,6.5c3,0,5-2,5-2l1,1.7
			c0,0-2.4,2.3-6,2.3c-4.9,0-8.6-3.5-8.6-8.6C301.7,212,305.3,208.8,309.7,208.8z M314.3,215.7c-0.1-3.4-2.2-5-4.6-5
			c-2.7,0-5.1,1.7-5.6,5H314.3z"/>
		<path fill="#3E3739" d="M327.1,208.8c4,0,5.3,3.1,5.3,3.1h0.1c0,0-0.1-0.6-0.1-1.2v-8h2.2v22.9h-2.1v-1.7c0-0.7,0.1-1.2,0.1-1.2
			h-0.1c0,0-1.3,3.3-5.6,3.3c-4.4,0-7.1-3.5-7.1-8.6C319.7,212.2,322.8,208.8,327.1,208.8z M327.2,223.9c2.7,0,5.3-2,5.3-6.6
			c0-3.3-1.7-6.6-5.2-6.6c-2.9,0-5.3,2.4-5.3,6.6C322,221.4,324.1,223.9,327.2,223.9z"/>
		<path fill="#3E3739" d="M339.7,209.2h2.2v9.8c0,2.6,0.4,4.8,3.5,4.8c3.7,0,6-3.3,6-6.8v-7.8h2.2v16.4h-2.1v-2.4
			c0-0.7,0.1-1.3,0.1-1.3h-0.1c-0.7,1.6-2.8,4.1-6.4,4.1c-3.8,0-5.5-2.1-5.5-6.3V209.2z"/>
		<path fill="#3E3739" d="M366.5,208.8c4,0,6,2.3,6,2.3l-1.1,1.7c0,0-1.8-2-4.8-2c-3.6,0-6.4,2.7-6.4,6.6c0,3.8,2.8,6.6,6.4,6.6
			c3.3,0,5.2-2.3,5.2-2.3l1,1.7c0,0-2.2,2.6-6.4,2.6c-4.8,0-8.6-3.5-8.6-8.6C357.9,212.3,361.7,208.8,366.5,208.8z"/>
		<path fill="#3E3739" d="M385.6,215.4h0.9V215c0-3.2-1.7-4.2-4.1-4.2c-2.7,0-4.6,1.6-4.6,1.6l-1-1.7c0,0,2.1-1.9,5.8-1.9
			c3.9,0,6.1,2.2,6.1,6.3v10.5h-2.1v-1.8c0-0.8,0.1-1.4,0.1-1.4h-0.1c0,0-1.4,3.5-5.5,3.5c-2.7,0-5.6-1.6-5.6-4.8
			C375.6,215.6,382.8,215.4,385.6,215.4z M381.5,224c3.1,0,5-3.3,5-6.1v-0.7h-0.9c-2.6,0-7.7,0.1-7.7,3.7
			C377.9,222.5,379.1,224,381.5,224z"/>
		<path fill="#3E3739" d="M394.4,211.2h-2.1v-1.9h2.2v-4.7h2.2v4.7h4.1v1.9h-4.1v8.1c0,3.8,2.4,4.3,3.7,4.3c0.5,0,0.7-0.1,0.7-0.1v2
			c0,0-0.4,0.1-0.9,0.1c-1.9,0-5.7-0.6-5.7-6.1V211.2z"/>
		<path fill="#3E3739" d="M411.6,208.8c4.5,0,6.8,3.5,6.8,7.5c0,0.4-0.1,1.1-0.1,1.1h-12.6c0.1,4.2,3,6.5,6.3,6.5c3,0,5-2,5-2l1,1.7
			c0,0-2.4,2.3-6,2.3c-4.9,0-8.6-3.5-8.6-8.6C403.5,212,407.1,208.8,411.6,208.8z M416.2,215.7c-0.1-3.4-2.2-5-4.6-5
			c-2.7,0-5.1,1.7-5.6,5H416.2z"/>
	</g>
</g>
</svg>
